<?xml version="1.0" encoding="utf-8" standalone="no"?>
<!DOCTYPE svg PUBLIC "-//W3C//DTD SVG 1.1//EN"
  "http://www.w3.org/Graphics/SVG/1.1/DTD/svg11.dtd">
<svg xmlns:xlink="http://www.w3.org/1999/xlink" width="460.8pt" height="345.6pt" viewBox="0 0 460.8 345.6" xmlns="http://www.w3.org/2000/svg" version="1.1">
 <metadata>
  <rdf:RDF xmlns:dc="http://purl.org/dc/elements/1.1/" xmlns:cc="http://creativecommons.org/ns#" xmlns:rdf="http://www.w3.org/1999/02/22-rdf-syntax-ns#">
   <cc:Work>
    <dc:type rdf:resource="http://purl.org/dc/dcmitype/StillImage"/>
    <dc:date>2023-11-12T23:05:34.531375</dc:date>
    <dc:format>image/svg+xml</dc:format>
    <dc:creator>
     <cc:Agent>
      <dc:title>Matplotlib v3.7.1, https://matplotlib.org/</dc:title>
     </cc:Agent>
    </dc:creator>
   </cc:Work>
  </rdf:RDF>
 </metadata>
 <defs>
  <style type="text/css">*{stroke-linejoin: round; stroke-linecap: butt}</style>
 </defs>
 <g id="figure_1">
  <g id="patch_1">
   <path d="M 0 345.6 
L 460.8 345.6 
L 460.8 0 
L 0 0 
z
" style="fill: #ffffff"/>
  </g>
  <g id="axes_1">
   <g id="patch_2">
    <path d="M 57.6 307.584 
L 414.72 307.584 
L 414.72 41.472 
L 57.6 41.472 
z
" style="fill: #ffffff"/>
   </g>
   <g id="PolyCollection_1">
    <defs>
     <path id="md43976d888" d="M 73.832727 -50.154377 
L 73.832727 -50.112 
L 79.756435 -50.112 
L 79.962733 -50.112 
L 80.169031 -50.112 
L 80.758455 -50.112 
L 81.141581 -50.112 
L 84.029756 -56.701344 
L 104.689055 -233.709533 
L 107.429875 -215.431758 
L 109.5518 -183.403161 
L 124.110564 -145.096018 
L 127.49975 -149.2064 
L 127.882876 -148.627299 
L 129.47432 -148.627299 
L 133.629756 -148.690816 
L 152.815496 -148.690816 
L 153.021794 -148.690816 
L 153.228093 -148.690816 
L 153.640689 -148.690816 
L 153.846988 -148.690816 
L 154.053286 -148.690816 
L 154.259584 -148.690816 
L 154.465882 -148.690816 
L 154.672181 -148.690816 
L 154.878479 -148.690816 
L 155.055306 -148.690816 
L 155.674201 -148.690816 
L 155.880499 -148.690816 
L 156.293096 -148.690816 
L 158.090838 -148.690816 
L 158.857089 -148.690816 
L 159.063387 -148.690816 
L 159.269685 -148.690816 
L 159.475983 -148.690816 
L 160.684302 -148.690816 
L 160.8906 -148.690816 
L 161.096898 -148.690816 
L 161.273725 -148.690816 
L 163.100939 -148.690816 
L 163.719834 -148.690816 
L 163.926132 -148.690816 
L 164.13243 -148.690816 
L 168.936233 -148.690816 
L 170.144551 -148.690816 
L 170.35085 -148.690816 
L 174.565229 -148.690816 
L 174.771527 -148.690816 
L 180.017398 -148.690816 
L 180.223696 -148.690816 
L 180.842591 -148.690816 
L 181.048889 -148.690816 
L 181.255187 -148.690816 
L 181.461485 -148.690816 
L 182.08038 -148.690816 
L 183.111872 -148.690816 
L 183.31817 -148.690816 
L 183.524468 -148.690816 
L 183.730766 -148.690816 
L 183.907594 -148.690816 
L 184.113892 -148.690816 
L 184.32019 -148.690816 
L 192.012169 -148.690816 
L 192.395294 -148.690816 
L 194.605633 -148.690816 
L 202.26814 -148.690816 
L 202.474439 -148.690816 
L 202.680737 -148.690816 
L 204.095354 -148.690816 
L 204.301652 -148.690816 
L 204.50795 -148.690816 
L 204.714248 -148.690816 
L 204.920547 -148.690816 
L 205.303672 -148.690816 
L 205.50997 -148.690816 
L 205.716269 -148.690816 
L 205.893096 -148.690816 
L 206.305692 -148.690816 
L 206.51199 -148.690816 
L 206.688818 -148.690816 
L 206.895116 -148.690816 
L 207.101414 -148.690816 
L 208.132906 -148.690816 
L 208.339204 -148.690816 
L 208.928627 -148.690816 
L 209.134926 -148.690816 
L 209.341224 -148.690816 
L 211.610505 -148.690816 
L 212.759881 -148.690816 
L 216.650077 -148.690816 
L 216.856376 -148.690816 
L 217.062674 -148.690816 
L 218.241521 -148.690816 
L 218.447819 -148.690816 
L 220.098206 -148.690816 
L 220.304504 -148.690816 
L 220.510802 -148.690816 
L 220.893928 -148.690816 
L 221.277053 -148.690816 
L 221.483351 -148.690816 
L 221.689649 -148.690816 
L 221.895948 -148.690816 
L 236.042115 -148.690816 
L 236.248414 -148.690816 
L 236.454712 -148.690816 
L 237.66303 -148.690816 
L 238.723993 -148.690816 
L 239.107118 -148.690816 
L 239.313417 -148.690816 
L 239.519715 -148.690816 
L 239.90284 -148.690816 
L 240.109138 -148.690816 
L 241.788996 -148.690816 
L 257.526607 -167.039248 
L 257.732906 -165.556152 
L 258.116031 -165.16773 
L 259.08858 -161.735331 
L 262.241996 -160.287494 
L 262.448295 -156.833934 
L 270.582341 -158.47245 
L 270.994938 -160.110966 
L 274.030469 -164.609791 
L 274.236768 -164.609791 
L 274.826191 -164.609791 
L 282.223458 -163.239632 
L 282.429756 -162.992479 
L 282.636055 -162.992479 
L 283.078122 -162.992479 
L 288.382935 -166.679084 
L 288.825003 -167.696102 
L 289.031301 -167.696102 
L 289.2376 -167.696102 
L 289.443898 -167.696102 
L 289.856494 -167.696102 
L 291.683708 -167.674897 
L 291.890006 -167.674897 
L 292.302602 -170.02673 
L 294.748711 -171.926538 
L 296.546453 -170.973091 
L 296.752751 -169.864256 
L 296.959049 -168.133975 
L 297.165348 -165.605604 
L 297.754771 -163.755205 
L 297.96107 -163.755205 
L 298.167368 -163.755205 
L 298.373666 -163.755205 
L 299.581985 -166.276523 
L 299.788283 -166.276523 
L 299.994581 -166.276523 
L 300.200879 -166.276523 
L 300.613476 -166.276523 
L 300.819774 -166.276523 
L 301.409198 -166.276523 
L 301.615496 -166.276523 
L 302.028093 -166.276523 
L 302.234391 -166.276523 
L 302.646988 -165.768035 
L 302.853286 -164.729824 
L 305.505692 -164.645103 
L 305.888818 -164.546189 
L 306.095116 -163.119599 
L 307.539204 -158.952679 
L 308.953821 -169.193348 
L 309.18959 -169.193348 
L 309.808485 -169.193348 
L 310.839976 -169.193348 
L 317.883589 -169.193348 
L 318.856138 -169.193348 
L 319.239263 -169.193348 
L 319.65186 -169.193348 
L 323.512585 -169.193348 
L 323.718883 -169.193348 
L 324.986144 -169.193348 
L 326.783886 -169.193348 
L 327.167011 -169.193348 
L 327.37331 -169.193348 
L 330.467784 -171.361545 
L 331.499275 -178.706593 
L 332.294997 -184.483728 
L 332.501295 -185.769091 
L 339.515437 -180.055516 
L 339.721735 -182.350832 
L 340.311159 -190.01372 
L 340.517457 -192.478522 
L 340.723755 -194.922172 
L 340.930053 -197.132735 
L 341.136352 -199.428062 
L 341.961545 -208.461067 
L 342.993036 -218.42625 
L 343.199335 -220.368457 
L 344.407653 -231.838026 
L 344.613951 -233.759039 
L 345.026548 -237.643419 
L 345.232846 -239.606787 
L 345.439144 -241.683177 
L 345.645443 -243.731351 
L 346.234866 -248.844589 
L 346.647463 -251.994459 
L 346.853761 -253.611814 
L 347.678954 -259.735004 
L 348.916744 -260.872044 
L 349.123042 -260.872044 
L 353.573191 -272.949005 
L 353.779489 -273.754139 
L 361.884064 -292.032 
L 364.094403 -279.121658 
L 364.300701 -276.430823 
L 364.506999 -276.374317 
L 364.713298 -276.374317 
L 364.919596 -276.374317 
L 365.125894 -276.374317 
L 365.951087 -273.217393 
L 366.540511 -272.122677 
L 366.746809 -268.605546 
L 367.188877 -266.868169 
L 368.190897 -264.798833 
L 368.397195 -263.047348 
L 368.603494 -263.033198 
L 371.049602 -263.033198 
L 371.2559 -263.033198 
L 379.566774 -263.082607 
L 379.773072 -263.082607 
L 387.818705 -263.089704 
L 388.260772 -263.089704 
L 392.033084 -263.089704 
L 392.239382 -263.089704 
L 393.624528 -263.089704 
L 394.037124 -263.089704 
L 394.243422 -263.089704 
L 394.449721 -263.089704 
L 394.862317 -263.089704 
L 398.487273 -263.089704 
L 398.487273 -246.153754 
L 398.487273 -246.153754 
L 394.862317 -246.153754 
L 394.449721 -246.153754 
L 394.243422 -246.153754 
L 394.037124 -246.153754 
L 393.624528 -246.153754 
L 392.239382 -246.153754 
L 392.033084 -246.153754 
L 388.260772 -246.153754 
L 387.818705 -246.153754 
L 379.773072 -246.153754 
L 379.566774 -246.153754 
L 371.2559 -258.287178 
L 371.049602 -258.280167 
L 368.603494 -274.41095 
L 368.397195 -274.679338 
L 368.190897 -274.679338 
L 367.188877 -274.679338 
L 366.746809 -274.594574 
L 366.540511 -273.711773 
L 365.951087 -269.050517 
L 365.125894 -262.57412 
L 364.919596 -261.818448 
L 364.713298 -261.797244 
L 364.506999 -261.797244 
L 364.300701 -261.797244 
L 364.094403 -261.797244 
L 361.884064 -259.092344 
L 353.779489 -238.745147 
L 353.573191 -237.106673 
L 349.123042 -197.047971 
L 348.916744 -195.345895 
L 347.678954 -182.414392 
L 346.853761 -173.247213 
L 346.647463 -170.987231 
L 346.234866 -166.290673 
L 345.645443 -159.199874 
L 345.439144 -157.10228 
L 345.232846 -155.146009 
L 345.026548 -153.359126 
L 344.613951 -151.113262 
L 344.407653 -151.028498 
L 343.199335 -149.15698 
L 342.993036 -149.15698 
L 341.961545 -150.901379 
L 341.136352 -162.109646 
L 340.930053 -164.70862 
L 340.723755 -167.10285 
L 340.517457 -168.480032 
L 340.311159 -168.621301 
L 339.721735 -168.621301 
L 339.515437 -168.621301 
L 332.501295 -152.928349 
L 332.294997 -152.928349 
L 331.499275 -152.928349 
L 330.467784 -152.928349 
L 327.37331 -152.928349 
L 327.167011 -152.928349 
L 326.783886 -152.928349 
L 324.986144 -152.928349 
L 323.718883 -152.935403 
L 323.512585 -152.935403 
L 319.65186 -152.935403 
L 319.239263 -152.935403 
L 318.856138 -152.935403 
L 317.883589 -152.935403 
L 310.839976 -150.873164 
L 309.808485 -150.873164 
L 309.18959 -150.873164 
L 308.953821 -150.901379 
L 307.539204 -152.109075 
L 306.095116 -152.109075 
L 305.888818 -152.109075 
L 305.505692 -152.052602 
L 302.853286 -155.866379 
L 302.646988 -156.883386 
L 302.234391 -157.285915 
L 302.028093 -157.413077 
L 301.615496 -157.575466 
L 301.409198 -158.133448 
L 300.819774 -158.366482 
L 300.613476 -158.366482 
L 300.200879 -158.366482 
L 299.994581 -158.366482 
L 299.788283 -158.366482 
L 299.581985 -158.366482 
L 298.373666 -156.064112 
L 298.167368 -153.712322 
L 297.96107 -153.458041 
L 297.754771 -153.458041 
L 297.165348 -153.500439 
L 296.959049 -153.507493 
L 296.752751 -153.507493 
L 296.546453 -153.507493 
L 294.748711 -153.267351 
L 292.302602 -147.080558 
L 291.890006 -147.080558 
L 291.683708 -147.080558 
L 289.856494 -149.467692 
L 289.443898 -149.538306 
L 289.2376 -149.538306 
L 289.031301 -149.538306 
L 288.825003 -149.538306 
L 288.382935 -149.721931 
L 283.078122 -145.491494 
L 282.636055 -147.419603 
L 282.429756 -149.241702 
L 282.223458 -150.223407 
L 274.826191 -140.886744 
L 274.236768 -139.099904 
L 274.030469 -136.853997 
L 270.994938 -122.827809 
L 270.582341 -122.771346 
L 262.448295 -158.606623 
L 262.241996 -157.942716 
L 259.08858 -141.162186 
L 258.116031 -135.201416 
L 257.732906 -135.201416 
L 257.526607 -135.201416 
L 241.788996 -135.201416 
L 240.109138 -135.201416 
L 239.90284 -135.201416 
L 239.519715 -135.201416 
L 239.313417 -135.201416 
L 239.107118 -135.201416 
L 238.723993 -135.201416 
L 237.66303 -135.201416 
L 236.454712 -135.201416 
L 236.248414 -135.201416 
L 236.042115 -135.201416 
L 221.895948 -135.201416 
L 221.689649 -135.201416 
L 221.483351 -135.201416 
L 221.277053 -135.201416 
L 220.893928 -135.201416 
L 220.510802 -135.201416 
L 220.304504 -135.201416 
L 220.098206 -135.201416 
L 218.447819 -135.201416 
L 218.241521 -135.201416 
L 217.062674 -135.201416 
L 216.856376 -135.201416 
L 216.650077 -135.201416 
L 212.759881 -135.201416 
L 211.610505 -135.201416 
L 209.341224 -135.201416 
L 209.134926 -135.201416 
L 208.928627 -135.201416 
L 208.339204 -135.201416 
L 208.132906 -135.201416 
L 207.101414 -135.201416 
L 206.895116 -135.201416 
L 206.688818 -135.201416 
L 206.51199 -135.201416 
L 206.305692 -135.201416 
L 205.893096 -135.201416 
L 205.716269 -135.201416 
L 205.50997 -135.201416 
L 205.303672 -135.201416 
L 204.920547 -135.201416 
L 204.714248 -135.201416 
L 204.50795 -135.201416 
L 204.301652 -135.201416 
L 204.095354 -135.201416 
L 202.680737 -135.201416 
L 202.474439 -135.201416 
L 202.26814 -135.201416 
L 194.605633 -135.201416 
L 192.395294 -135.201416 
L 192.012169 -135.201416 
L 184.32019 -135.201416 
L 184.113892 -135.201416 
L 183.907594 -135.201416 
L 183.730766 -135.201416 
L 183.524468 -135.201416 
L 183.31817 -135.201416 
L 183.111872 -135.201416 
L 182.08038 -135.201416 
L 181.461485 -135.201416 
L 181.255187 -135.201416 
L 181.048889 -135.201416 
L 180.842591 -135.201416 
L 180.223696 -135.201416 
L 180.017398 -135.201416 
L 174.771527 -135.201416 
L 174.565229 -135.201416 
L 170.35085 -135.201416 
L 170.144551 -135.201416 
L 168.936233 -135.201416 
L 164.13243 -135.201416 
L 163.926132 -135.201416 
L 163.719834 -135.201416 
L 163.100939 -135.201416 
L 161.273725 -135.201416 
L 161.096898 -135.201416 
L 160.8906 -135.201416 
L 160.684302 -135.201416 
L 159.475983 -135.201416 
L 159.269685 -135.201416 
L 159.063387 -135.201416 
L 158.857089 -135.201416 
L 158.090838 -135.201416 
L 156.293096 -135.201416 
L 155.880499 -135.201416 
L 155.674201 -135.201416 
L 155.055306 -135.194319 
L 154.878479 -135.194319 
L 154.672181 -135.194319 
L 154.465882 -135.194319 
L 154.259584 -135.194319 
L 154.053286 -135.194319 
L 153.846988 -135.194319 
L 153.640689 -135.194319 
L 153.228093 -135.194319 
L 153.021794 -135.194319 
L 152.815496 -135.194319 
L 133.629756 -144.82763 
L 129.47432 -113.039164 
L 127.882876 -103.377606 
L 127.49975 -97.720526 
L 124.110564 -71.885787 
L 109.5518 -220.361403 
L 107.429875 -219.026545 
L 104.689055 -216.33571 
L 84.029756 -52.506209 
L 81.141581 -50.154377 
L 80.758455 -50.154377 
L 80.169031 -50.154377 
L 79.962733 -50.154377 
L 79.756435 -50.154377 
L 73.832727 -50.154377 
z
" style="stroke: #ff0000; stroke-opacity: 0.3"/>
    </defs>
    <g clip-path="url(#p1d7d7cb3b8)">
     <use xlink:href="#md43976d888" x="0" y="345.6" style="fill: #ff0000; fill-opacity: 0.3; stroke: #ff0000; stroke-opacity: 0.3"/>
    </g>
   </g>
   <g id="matplotlib.axis_1">
    <g id="xtick_1">
     <g id="line2d_1">
      <defs>
       <path id="m9df230304c" d="M 0 0 
L 0 3.5 
" style="stroke: #000000; stroke-width: 0.8"/>
      </defs>
      <g>
       <use xlink:href="#m9df230304c" x="73.832727" y="307.584" style="stroke: #000000; stroke-width: 0.8"/>
      </g>
     </g>
     <g id="text_1">
      <!-- 0 -->
      <g transform="translate(70.651477 322.182437) scale(0.1 -0.1)">
       <defs>
        <path id="DejaVuSans-30" d="M 2034 4250 
Q 1547 4250 1301 3770 
Q 1056 3291 1056 2328 
Q 1056 1369 1301 889 
Q 1547 409 2034 409 
Q 2525 409 2770 889 
Q 3016 1369 3016 2328 
Q 3016 3291 2770 3770 
Q 2525 4250 2034 4250 
z
M 2034 4750 
Q 2819 4750 3233 4129 
Q 3647 3509 3647 2328 
Q 3647 1150 3233 529 
Q 2819 -91 2034 -91 
Q 1250 -91 836 529 
Q 422 1150 422 2328 
Q 422 3509 836 4129 
Q 1250 4750 2034 4750 
z
" transform="scale(0.015625)"/>
       </defs>
       <use xlink:href="#DejaVuSans-30"/>
      </g>
     </g>
    </g>
    <g id="xtick_2">
     <g id="line2d_2">
      <g>
       <use xlink:href="#m9df230304c" x="132.775092" y="307.584" style="stroke: #000000; stroke-width: 0.8"/>
      </g>
     </g>
     <g id="text_2">
      <!-- 20 -->
      <g transform="translate(126.412592 322.182437) scale(0.1 -0.1)">
       <defs>
        <path id="DejaVuSans-32" d="M 1228 531 
L 3431 531 
L 3431 0 
L 469 0 
L 469 531 
Q 828 903 1448 1529 
Q 2069 2156 2228 2338 
Q 2531 2678 2651 2914 
Q 2772 3150 2772 3378 
Q 2772 3750 2511 3984 
Q 2250 4219 1831 4219 
Q 1534 4219 1204 4116 
Q 875 4013 500 3803 
L 500 4441 
Q 881 4594 1212 4672 
Q 1544 4750 1819 4750 
Q 2544 4750 2975 4387 
Q 3406 4025 3406 3419 
Q 3406 3131 3298 2873 
Q 3191 2616 2906 2266 
Q 2828 2175 2409 1742 
Q 1991 1309 1228 531 
z
" transform="scale(0.015625)"/>
       </defs>
       <use xlink:href="#DejaVuSans-32"/>
       <use xlink:href="#DejaVuSans-30" x="63.623047"/>
      </g>
     </g>
    </g>
    <g id="xtick_3">
     <g id="line2d_3">
      <g>
       <use xlink:href="#m9df230304c" x="191.717457" y="307.584" style="stroke: #000000; stroke-width: 0.8"/>
      </g>
     </g>
     <g id="text_3">
      <!-- 40 -->
      <g transform="translate(185.354957 322.182437) scale(0.1 -0.1)">
       <defs>
        <path id="DejaVuSans-34" d="M 2419 4116 
L 825 1625 
L 2419 1625 
L 2419 4116 
z
M 2253 4666 
L 3047 4666 
L 3047 1625 
L 3713 1625 
L 3713 1100 
L 3047 1100 
L 3047 0 
L 2419 0 
L 2419 1100 
L 313 1100 
L 313 1709 
L 2253 4666 
z
" transform="scale(0.015625)"/>
       </defs>
       <use xlink:href="#DejaVuSans-34"/>
       <use xlink:href="#DejaVuSans-30" x="63.623047"/>
      </g>
     </g>
    </g>
    <g id="xtick_4">
     <g id="line2d_4">
      <g>
       <use xlink:href="#m9df230304c" x="250.659822" y="307.584" style="stroke: #000000; stroke-width: 0.8"/>
      </g>
     </g>
     <g id="text_4">
      <!-- 60 -->
      <g transform="translate(244.297322 322.182437) scale(0.1 -0.1)">
       <defs>
        <path id="DejaVuSans-36" d="M 2113 2584 
Q 1688 2584 1439 2293 
Q 1191 2003 1191 1497 
Q 1191 994 1439 701 
Q 1688 409 2113 409 
Q 2538 409 2786 701 
Q 3034 994 3034 1497 
Q 3034 2003 2786 2293 
Q 2538 2584 2113 2584 
z
M 3366 4563 
L 3366 3988 
Q 3128 4100 2886 4159 
Q 2644 4219 2406 4219 
Q 1781 4219 1451 3797 
Q 1122 3375 1075 2522 
Q 1259 2794 1537 2939 
Q 1816 3084 2150 3084 
Q 2853 3084 3261 2657 
Q 3669 2231 3669 1497 
Q 3669 778 3244 343 
Q 2819 -91 2113 -91 
Q 1303 -91 875 529 
Q 447 1150 447 2328 
Q 447 3434 972 4092 
Q 1497 4750 2381 4750 
Q 2619 4750 2861 4703 
Q 3103 4656 3366 4563 
z
" transform="scale(0.015625)"/>
       </defs>
       <use xlink:href="#DejaVuSans-36"/>
       <use xlink:href="#DejaVuSans-30" x="63.623047"/>
      </g>
     </g>
    </g>
    <g id="xtick_5">
     <g id="line2d_5">
      <g>
       <use xlink:href="#m9df230304c" x="309.602187" y="307.584" style="stroke: #000000; stroke-width: 0.8"/>
      </g>
     </g>
     <g id="text_5">
      <!-- 80 -->
      <g transform="translate(303.239687 322.182437) scale(0.1 -0.1)">
       <defs>
        <path id="DejaVuSans-38" d="M 2034 2216 
Q 1584 2216 1326 1975 
Q 1069 1734 1069 1313 
Q 1069 891 1326 650 
Q 1584 409 2034 409 
Q 2484 409 2743 651 
Q 3003 894 3003 1313 
Q 3003 1734 2745 1975 
Q 2488 2216 2034 2216 
z
M 1403 2484 
Q 997 2584 770 2862 
Q 544 3141 544 3541 
Q 544 4100 942 4425 
Q 1341 4750 2034 4750 
Q 2731 4750 3128 4425 
Q 3525 4100 3525 3541 
Q 3525 3141 3298 2862 
Q 3072 2584 2669 2484 
Q 3125 2378 3379 2068 
Q 3634 1759 3634 1313 
Q 3634 634 3220 271 
Q 2806 -91 2034 -91 
Q 1263 -91 848 271 
Q 434 634 434 1313 
Q 434 1759 690 2068 
Q 947 2378 1403 2484 
z
M 1172 3481 
Q 1172 3119 1398 2916 
Q 1625 2713 2034 2713 
Q 2441 2713 2670 2916 
Q 2900 3119 2900 3481 
Q 2900 3844 2670 4047 
Q 2441 4250 2034 4250 
Q 1625 4250 1398 4047 
Q 1172 3844 1172 3481 
z
" transform="scale(0.015625)"/>
       </defs>
       <use xlink:href="#DejaVuSans-38"/>
       <use xlink:href="#DejaVuSans-30" x="63.623047"/>
      </g>
     </g>
    </g>
    <g id="xtick_6">
     <g id="line2d_6">
      <g>
       <use xlink:href="#m9df230304c" x="368.544551" y="307.584" style="stroke: #000000; stroke-width: 0.8"/>
      </g>
     </g>
     <g id="text_6">
      <!-- 100 -->
      <g transform="translate(359.000801 322.182437) scale(0.1 -0.1)">
       <defs>
        <path id="DejaVuSans-31" d="M 794 531 
L 1825 531 
L 1825 4091 
L 703 3866 
L 703 4441 
L 1819 4666 
L 2450 4666 
L 2450 531 
L 3481 531 
L 3481 0 
L 794 0 
L 794 531 
z
" transform="scale(0.015625)"/>
       </defs>
       <use xlink:href="#DejaVuSans-31"/>
       <use xlink:href="#DejaVuSans-30" x="63.623047"/>
       <use xlink:href="#DejaVuSans-30" x="127.246094"/>
      </g>
     </g>
    </g>
    <g id="text_7">
     <!-- Time (ms) -->
     <g transform="translate(210.960781 335.860562) scale(0.1 -0.1)">
      <defs>
       <path id="DejaVuSans-54" d="M -19 4666 
L 3928 4666 
L 3928 4134 
L 2272 4134 
L 2272 0 
L 1638 0 
L 1638 4134 
L -19 4134 
L -19 4666 
z
" transform="scale(0.015625)"/>
       <path id="DejaVuSans-69" d="M 603 3500 
L 1178 3500 
L 1178 0 
L 603 0 
L 603 3500 
z
M 603 4863 
L 1178 4863 
L 1178 4134 
L 603 4134 
L 603 4863 
z
" transform="scale(0.015625)"/>
       <path id="DejaVuSans-6d" d="M 3328 2828 
Q 3544 3216 3844 3400 
Q 4144 3584 4550 3584 
Q 5097 3584 5394 3201 
Q 5691 2819 5691 2113 
L 5691 0 
L 5113 0 
L 5113 2094 
Q 5113 2597 4934 2840 
Q 4756 3084 4391 3084 
Q 3944 3084 3684 2787 
Q 3425 2491 3425 1978 
L 3425 0 
L 2847 0 
L 2847 2094 
Q 2847 2600 2669 2842 
Q 2491 3084 2119 3084 
Q 1678 3084 1418 2786 
Q 1159 2488 1159 1978 
L 1159 0 
L 581 0 
L 581 3500 
L 1159 3500 
L 1159 2956 
Q 1356 3278 1631 3431 
Q 1906 3584 2284 3584 
Q 2666 3584 2933 3390 
Q 3200 3197 3328 2828 
z
" transform="scale(0.015625)"/>
       <path id="DejaVuSans-65" d="M 3597 1894 
L 3597 1613 
L 953 1613 
Q 991 1019 1311 708 
Q 1631 397 2203 397 
Q 2534 397 2845 478 
Q 3156 559 3463 722 
L 3463 178 
Q 3153 47 2828 -22 
Q 2503 -91 2169 -91 
Q 1331 -91 842 396 
Q 353 884 353 1716 
Q 353 2575 817 3079 
Q 1281 3584 2069 3584 
Q 2775 3584 3186 3129 
Q 3597 2675 3597 1894 
z
M 3022 2063 
Q 3016 2534 2758 2815 
Q 2500 3097 2075 3097 
Q 1594 3097 1305 2825 
Q 1016 2553 972 2059 
L 3022 2063 
z
" transform="scale(0.015625)"/>
       <path id="DejaVuSans-20" transform="scale(0.015625)"/>
       <path id="DejaVuSans-28" d="M 1984 4856 
Q 1566 4138 1362 3434 
Q 1159 2731 1159 2009 
Q 1159 1288 1364 580 
Q 1569 -128 1984 -844 
L 1484 -844 
Q 1016 -109 783 600 
Q 550 1309 550 2009 
Q 550 2706 781 3412 
Q 1013 4119 1484 4856 
L 1984 4856 
z
" transform="scale(0.015625)"/>
       <path id="DejaVuSans-73" d="M 2834 3397 
L 2834 2853 
Q 2591 2978 2328 3040 
Q 2066 3103 1784 3103 
Q 1356 3103 1142 2972 
Q 928 2841 928 2578 
Q 928 2378 1081 2264 
Q 1234 2150 1697 2047 
L 1894 2003 
Q 2506 1872 2764 1633 
Q 3022 1394 3022 966 
Q 3022 478 2636 193 
Q 2250 -91 1575 -91 
Q 1294 -91 989 -36 
Q 684 19 347 128 
L 347 722 
Q 666 556 975 473 
Q 1284 391 1588 391 
Q 1994 391 2212 530 
Q 2431 669 2431 922 
Q 2431 1156 2273 1281 
Q 2116 1406 1581 1522 
L 1381 1569 
Q 847 1681 609 1914 
Q 372 2147 372 2553 
Q 372 3047 722 3315 
Q 1072 3584 1716 3584 
Q 2034 3584 2315 3537 
Q 2597 3491 2834 3397 
z
" transform="scale(0.015625)"/>
       <path id="DejaVuSans-29" d="M 513 4856 
L 1013 4856 
Q 1481 4119 1714 3412 
Q 1947 2706 1947 2009 
Q 1947 1309 1714 600 
Q 1481 -109 1013 -844 
L 513 -844 
Q 928 -128 1133 580 
Q 1338 1288 1338 2009 
Q 1338 2731 1133 3434 
Q 928 4138 513 4856 
z
" transform="scale(0.015625)"/>
      </defs>
      <use xlink:href="#DejaVuSans-54"/>
      <use xlink:href="#DejaVuSans-69" x="57.958984"/>
      <use xlink:href="#DejaVuSans-6d" x="85.742188"/>
      <use xlink:href="#DejaVuSans-65" x="183.154297"/>
      <use xlink:href="#DejaVuSans-20" x="244.677734"/>
      <use xlink:href="#DejaVuSans-28" x="276.464844"/>
      <use xlink:href="#DejaVuSans-6d" x="315.478516"/>
      <use xlink:href="#DejaVuSans-73" x="412.890625"/>
      <use xlink:href="#DejaVuSans-29" x="464.990234"/>
     </g>
    </g>
   </g>
   <g id="matplotlib.axis_2">
    <g id="ytick_1">
     <g id="line2d_7">
      <defs>
       <path id="mce5ca3b4b8" d="M 0 0 
L -3.5 0 
" style="stroke: #000000; stroke-width: 0.8"/>
      </defs>
      <g>
       <use xlink:href="#mce5ca3b4b8" x="57.6" y="296.308995" style="stroke: #000000; stroke-width: 0.8"/>
      </g>
     </g>
     <g id="text_8">
      <!-- 30 -->
      <g transform="translate(37.875 300.108214) scale(0.1 -0.1)">
       <defs>
        <path id="DejaVuSans-33" d="M 2597 2516 
Q 3050 2419 3304 2112 
Q 3559 1806 3559 1356 
Q 3559 666 3084 287 
Q 2609 -91 1734 -91 
Q 1441 -91 1130 -33 
Q 819 25 488 141 
L 488 750 
Q 750 597 1062 519 
Q 1375 441 1716 441 
Q 2309 441 2620 675 
Q 2931 909 2931 1356 
Q 2931 1769 2642 2001 
Q 2353 2234 1838 2234 
L 1294 2234 
L 1294 2753 
L 1863 2753 
Q 2328 2753 2575 2939 
Q 2822 3125 2822 3475 
Q 2822 3834 2567 4026 
Q 2313 4219 1838 4219 
Q 1578 4219 1281 4162 
Q 984 4106 628 3988 
L 628 4550 
Q 988 4650 1302 4700 
Q 1616 4750 1894 4750 
Q 2613 4750 3031 4423 
Q 3450 4097 3450 3541 
Q 3450 3153 3228 2886 
Q 3006 2619 2597 2516 
z
" transform="scale(0.015625)"/>
       </defs>
       <use xlink:href="#DejaVuSans-33"/>
       <use xlink:href="#DejaVuSans-30" x="63.623047"/>
      </g>
     </g>
    </g>
    <g id="ytick_2">
     <g id="line2d_8">
      <g>
       <use xlink:href="#mce5ca3b4b8" x="57.6" y="242.870644" style="stroke: #000000; stroke-width: 0.8"/>
      </g>
     </g>
     <g id="text_9">
      <!-- 35 -->
      <g transform="translate(37.875 246.669863) scale(0.1 -0.1)">
       <defs>
        <path id="DejaVuSans-35" d="M 691 4666 
L 3169 4666 
L 3169 4134 
L 1269 4134 
L 1269 2991 
Q 1406 3038 1543 3061 
Q 1681 3084 1819 3084 
Q 2600 3084 3056 2656 
Q 3513 2228 3513 1497 
Q 3513 744 3044 326 
Q 2575 -91 1722 -91 
Q 1428 -91 1123 -41 
Q 819 9 494 109 
L 494 744 
Q 775 591 1075 516 
Q 1375 441 1709 441 
Q 2250 441 2565 725 
Q 2881 1009 2881 1497 
Q 2881 1984 2565 2268 
Q 2250 2553 1709 2553 
Q 1456 2553 1204 2497 
Q 953 2441 691 2322 
L 691 4666 
z
" transform="scale(0.015625)"/>
       </defs>
       <use xlink:href="#DejaVuSans-33"/>
       <use xlink:href="#DejaVuSans-35" x="63.623047"/>
      </g>
     </g>
    </g>
    <g id="ytick_3">
     <g id="line2d_9">
      <g>
       <use xlink:href="#mce5ca3b4b8" x="57.6" y="189.432293" style="stroke: #000000; stroke-width: 0.8"/>
      </g>
     </g>
     <g id="text_10">
      <!-- 40 -->
      <g transform="translate(37.875 193.231512) scale(0.1 -0.1)">
       <use xlink:href="#DejaVuSans-34"/>
       <use xlink:href="#DejaVuSans-30" x="63.623047"/>
      </g>
     </g>
    </g>
    <g id="ytick_4">
     <g id="line2d_10">
      <g>
       <use xlink:href="#mce5ca3b4b8" x="57.6" y="135.993942" style="stroke: #000000; stroke-width: 0.8"/>
      </g>
     </g>
     <g id="text_11">
      <!-- 45 -->
      <g transform="translate(37.875 139.793161) scale(0.1 -0.1)">
       <use xlink:href="#DejaVuSans-34"/>
       <use xlink:href="#DejaVuSans-35" x="63.623047"/>
      </g>
     </g>
    </g>
    <g id="ytick_5">
     <g id="line2d_11">
      <g>
       <use xlink:href="#mce5ca3b4b8" x="57.6" y="82.555591" style="stroke: #000000; stroke-width: 0.8"/>
      </g>
     </g>
     <g id="text_12">
      <!-- 50 -->
      <g transform="translate(37.875 86.35481) scale(0.1 -0.1)">
       <use xlink:href="#DejaVuSans-35"/>
       <use xlink:href="#DejaVuSans-30" x="63.623047"/>
      </g>
     </g>
    </g>
    <g id="text_13">
     <!-- Joint Position (degrees) -->
     <g transform="translate(31.795312 232.249875) rotate(-90) scale(0.1 -0.1)">
      <defs>
       <path id="DejaVuSans-4a" d="M 628 4666 
L 1259 4666 
L 1259 325 
Q 1259 -519 939 -900 
Q 619 -1281 -91 -1281 
L -331 -1281 
L -331 -750 
L -134 -750 
Q 284 -750 456 -515 
Q 628 -281 628 325 
L 628 4666 
z
" transform="scale(0.015625)"/>
       <path id="DejaVuSans-6f" d="M 1959 3097 
Q 1497 3097 1228 2736 
Q 959 2375 959 1747 
Q 959 1119 1226 758 
Q 1494 397 1959 397 
Q 2419 397 2687 759 
Q 2956 1122 2956 1747 
Q 2956 2369 2687 2733 
Q 2419 3097 1959 3097 
z
M 1959 3584 
Q 2709 3584 3137 3096 
Q 3566 2609 3566 1747 
Q 3566 888 3137 398 
Q 2709 -91 1959 -91 
Q 1206 -91 779 398 
Q 353 888 353 1747 
Q 353 2609 779 3096 
Q 1206 3584 1959 3584 
z
" transform="scale(0.015625)"/>
       <path id="DejaVuSans-6e" d="M 3513 2113 
L 3513 0 
L 2938 0 
L 2938 2094 
Q 2938 2591 2744 2837 
Q 2550 3084 2163 3084 
Q 1697 3084 1428 2787 
Q 1159 2491 1159 1978 
L 1159 0 
L 581 0 
L 581 3500 
L 1159 3500 
L 1159 2956 
Q 1366 3272 1645 3428 
Q 1925 3584 2291 3584 
Q 2894 3584 3203 3211 
Q 3513 2838 3513 2113 
z
" transform="scale(0.015625)"/>
       <path id="DejaVuSans-74" d="M 1172 4494 
L 1172 3500 
L 2356 3500 
L 2356 3053 
L 1172 3053 
L 1172 1153 
Q 1172 725 1289 603 
Q 1406 481 1766 481 
L 2356 481 
L 2356 0 
L 1766 0 
Q 1100 0 847 248 
Q 594 497 594 1153 
L 594 3053 
L 172 3053 
L 172 3500 
L 594 3500 
L 594 4494 
L 1172 4494 
z
" transform="scale(0.015625)"/>
       <path id="DejaVuSans-50" d="M 1259 4147 
L 1259 2394 
L 2053 2394 
Q 2494 2394 2734 2622 
Q 2975 2850 2975 3272 
Q 2975 3691 2734 3919 
Q 2494 4147 2053 4147 
L 1259 4147 
z
M 628 4666 
L 2053 4666 
Q 2838 4666 3239 4311 
Q 3641 3956 3641 3272 
Q 3641 2581 3239 2228 
Q 2838 1875 2053 1875 
L 1259 1875 
L 1259 0 
L 628 0 
L 628 4666 
z
" transform="scale(0.015625)"/>
       <path id="DejaVuSans-64" d="M 2906 2969 
L 2906 4863 
L 3481 4863 
L 3481 0 
L 2906 0 
L 2906 525 
Q 2725 213 2448 61 
Q 2172 -91 1784 -91 
Q 1150 -91 751 415 
Q 353 922 353 1747 
Q 353 2572 751 3078 
Q 1150 3584 1784 3584 
Q 2172 3584 2448 3432 
Q 2725 3281 2906 2969 
z
M 947 1747 
Q 947 1113 1208 752 
Q 1469 391 1925 391 
Q 2381 391 2643 752 
Q 2906 1113 2906 1747 
Q 2906 2381 2643 2742 
Q 2381 3103 1925 3103 
Q 1469 3103 1208 2742 
Q 947 2381 947 1747 
z
" transform="scale(0.015625)"/>
       <path id="DejaVuSans-67" d="M 2906 1791 
Q 2906 2416 2648 2759 
Q 2391 3103 1925 3103 
Q 1463 3103 1205 2759 
Q 947 2416 947 1791 
Q 947 1169 1205 825 
Q 1463 481 1925 481 
Q 2391 481 2648 825 
Q 2906 1169 2906 1791 
z
M 3481 434 
Q 3481 -459 3084 -895 
Q 2688 -1331 1869 -1331 
Q 1566 -1331 1297 -1286 
Q 1028 -1241 775 -1147 
L 775 -588 
Q 1028 -725 1275 -790 
Q 1522 -856 1778 -856 
Q 2344 -856 2625 -561 
Q 2906 -266 2906 331 
L 2906 616 
Q 2728 306 2450 153 
Q 2172 0 1784 0 
Q 1141 0 747 490 
Q 353 981 353 1791 
Q 353 2603 747 3093 
Q 1141 3584 1784 3584 
Q 2172 3584 2450 3431 
Q 2728 3278 2906 2969 
L 2906 3500 
L 3481 3500 
L 3481 434 
z
" transform="scale(0.015625)"/>
       <path id="DejaVuSans-72" d="M 2631 2963 
Q 2534 3019 2420 3045 
Q 2306 3072 2169 3072 
Q 1681 3072 1420 2755 
Q 1159 2438 1159 1844 
L 1159 0 
L 581 0 
L 581 3500 
L 1159 3500 
L 1159 2956 
Q 1341 3275 1631 3429 
Q 1922 3584 2338 3584 
Q 2397 3584 2469 3576 
Q 2541 3569 2628 3553 
L 2631 2963 
z
" transform="scale(0.015625)"/>
      </defs>
      <use xlink:href="#DejaVuSans-4a"/>
      <use xlink:href="#DejaVuSans-6f" x="29.492188"/>
      <use xlink:href="#DejaVuSans-69" x="90.673828"/>
      <use xlink:href="#DejaVuSans-6e" x="118.457031"/>
      <use xlink:href="#DejaVuSans-74" x="181.835938"/>
      <use xlink:href="#DejaVuSans-20" x="221.044922"/>
      <use xlink:href="#DejaVuSans-50" x="252.832031"/>
      <use xlink:href="#DejaVuSans-6f" x="309.509766"/>
      <use xlink:href="#DejaVuSans-73" x="370.691406"/>
      <use xlink:href="#DejaVuSans-69" x="422.791016"/>
      <use xlink:href="#DejaVuSans-74" x="450.574219"/>
      <use xlink:href="#DejaVuSans-69" x="489.783203"/>
      <use xlink:href="#DejaVuSans-6f" x="517.566406"/>
      <use xlink:href="#DejaVuSans-6e" x="578.748047"/>
      <use xlink:href="#DejaVuSans-20" x="642.126953"/>
      <use xlink:href="#DejaVuSans-28" x="673.914062"/>
      <use xlink:href="#DejaVuSans-64" x="712.927734"/>
      <use xlink:href="#DejaVuSans-65" x="776.404297"/>
      <use xlink:href="#DejaVuSans-67" x="837.927734"/>
      <use xlink:href="#DejaVuSans-72" x="901.404297"/>
      <use xlink:href="#DejaVuSans-65" x="940.267578"/>
      <use xlink:href="#DejaVuSans-65" x="1001.791016"/>
      <use xlink:href="#DejaVuSans-73" x="1063.314453"/>
      <use xlink:href="#DejaVuSans-29" x="1115.414062"/>
     </g>
    </g>
   </g>
   <g id="line2d_12">
    <path d="M 73.832727 295.488 
L 81.141581 295.488 
L 84.029756 288.898656 
L 104.689055 111.890467 
L 107.429875 130.168242 
L 109.5518 162.196839 
L 124.110564 200.503982 
L 127.49975 196.3936 
L 127.882876 196.972701 
L 241.788996 196.909184 
L 257.526607 178.560752 
L 257.732906 180.043848 
L 258.116031 180.43227 
L 259.08858 183.864669 
L 262.241996 185.312506 
L 262.448295 188.766066 
L 270.582341 187.12755 
L 270.994938 185.489034 
L 274.030469 180.990209 
L 274.826191 180.990209 
L 282.223458 182.360368 
L 282.429756 182.607521 
L 283.078122 182.607521 
L 288.382935 178.920916 
L 288.825003 177.903898 
L 291.890006 177.925103 
L 292.302602 175.57327 
L 294.748711 173.673462 
L 296.546453 174.626909 
L 296.752751 175.735744 
L 297.165348 179.994396 
L 297.754771 181.844795 
L 298.373666 181.844795 
L 299.581985 179.323477 
L 302.234391 179.323477 
L 302.646988 179.831965 
L 302.853286 180.870176 
L 305.888818 181.053811 
L 306.095116 182.480401 
L 307.539204 186.647321 
L 308.953821 176.406652 
L 327.37331 176.406652 
L 330.467784 174.238455 
L 332.501295 159.830909 
L 339.515437 165.544484 
L 340.311159 155.58628 
L 341.961545 137.138933 
L 346.234866 96.755411 
L 347.678954 85.864996 
L 348.916744 84.727956 
L 349.123042 84.727956 
L 353.779489 71.845861 
L 361.884064 53.568 
L 364.094403 66.478342 
L 364.300701 69.169177 
L 364.919596 69.225683 
L 365.125894 69.225683 
L 365.951087 72.382607 
L 366.540511 73.477323 
L 366.746809 76.994454 
L 367.188877 78.731831 
L 368.190897 80.801167 
L 368.397195 82.552652 
L 368.603494 82.566802 
L 398.487273 82.510296 
L 398.487273 82.510296 
" clip-path="url(#p1d7d7cb3b8)" style="fill: none; stroke: #1f77b4; stroke-width: 1.5; stroke-linecap: square"/>
   </g>
   <g id="line2d_13">
    <path d="M 73.832727 295.445623 
L 81.141581 295.445623 
L 84.029756 293.093791 
L 104.689055 129.26429 
L 107.429875 126.573455 
L 109.5518 125.238597 
L 124.110564 273.714213 
L 127.49975 247.879474 
L 127.882876 242.222394 
L 129.47432 232.560836 
L 133.629756 200.77237 
L 153.021794 210.405681 
L 258.116031 210.398584 
L 259.08858 204.437814 
L 262.448295 186.993377 
L 270.582341 222.828654 
L 270.994938 222.772191 
L 274.030469 208.746003 
L 274.236768 206.500096 
L 274.826191 204.713256 
L 282.223458 195.376593 
L 282.429756 196.358298 
L 282.636055 198.180397 
L 283.078122 200.108506 
L 288.382935 195.878069 
L 289.031301 196.061694 
L 289.856494 196.132308 
L 291.683708 198.519442 
L 292.302602 198.519442 
L 294.748711 192.332649 
L 297.165348 192.099561 
L 297.96107 192.141959 
L 298.167368 191.887678 
L 298.373666 189.535888 
L 299.581985 187.233518 
L 300.819774 187.233518 
L 301.409198 187.466552 
L 301.615496 188.024534 
L 302.234391 188.314085 
L 302.646988 188.716614 
L 302.853286 189.733621 
L 305.505692 193.547398 
L 306.095116 193.490925 
L 307.539204 193.490925 
L 308.953821 194.698621 
L 309.808485 194.726836 
L 310.839976 194.726836 
L 317.883589 192.664597 
L 332.501295 192.671651 
L 339.515437 176.978699 
L 340.311159 176.978699 
L 340.517457 177.119968 
L 340.723755 178.49715 
L 341.136352 183.490354 
L 341.961545 194.698621 
L 342.993036 196.44302 
L 343.199335 196.44302 
L 344.407653 194.571502 
L 344.613951 194.486738 
L 345.026548 192.240874 
L 345.645443 186.400126 
L 347.678954 163.185608 
L 349.123042 148.552029 
L 353.779489 106.854853 
L 361.884064 86.507656 
L 364.094403 83.802756 
L 364.919596 83.781552 
L 365.125894 83.02588 
L 366.746809 71.005426 
L 367.188877 70.920662 
L 368.397195 70.920662 
L 368.603494 71.18905 
L 371.049602 87.319833 
L 371.2559 87.312822 
L 379.566774 99.446246 
L 398.487273 99.446246 
L 398.487273 99.446246 
" clip-path="url(#p1d7d7cb3b8)" style="fill: none; stroke: #ff7f0e; stroke-width: 1.5; stroke-linecap: square"/>
   </g>
   <g id="patch_3">
    <path d="M 57.6 307.584 
L 57.6 41.472 
" style="fill: none; stroke: #000000; stroke-width: 0.8; stroke-linejoin: miter; stroke-linecap: square"/>
   </g>
   <g id="patch_4">
    <path d="M 414.72 307.584 
L 414.72 41.472 
" style="fill: none; stroke: #000000; stroke-width: 0.8; stroke-linejoin: miter; stroke-linecap: square"/>
   </g>
   <g id="patch_5">
    <path d="M 57.6 307.584 
L 414.72 307.584 
" style="fill: none; stroke: #000000; stroke-width: 0.8; stroke-linejoin: miter; stroke-linecap: square"/>
   </g>
   <g id="patch_6">
    <path d="M 57.6 41.472 
L 414.72 41.472 
" style="fill: none; stroke: #000000; stroke-width: 0.8; stroke-linejoin: miter; stroke-linecap: square"/>
   </g>
   <g id="text_14">
    <!-- Overlay of joint position 1 -->
    <g transform="translate(158.678438 35.472) scale(0.12 -0.12)">
     <defs>
      <path id="DejaVuSans-4f" d="M 2522 4238 
Q 1834 4238 1429 3725 
Q 1025 3213 1025 2328 
Q 1025 1447 1429 934 
Q 1834 422 2522 422 
Q 3209 422 3611 934 
Q 4013 1447 4013 2328 
Q 4013 3213 3611 3725 
Q 3209 4238 2522 4238 
z
M 2522 4750 
Q 3503 4750 4090 4092 
Q 4678 3434 4678 2328 
Q 4678 1225 4090 567 
Q 3503 -91 2522 -91 
Q 1538 -91 948 565 
Q 359 1222 359 2328 
Q 359 3434 948 4092 
Q 1538 4750 2522 4750 
z
" transform="scale(0.015625)"/>
      <path id="DejaVuSans-76" d="M 191 3500 
L 800 3500 
L 1894 563 
L 2988 3500 
L 3597 3500 
L 2284 0 
L 1503 0 
L 191 3500 
z
" transform="scale(0.015625)"/>
      <path id="DejaVuSans-6c" d="M 603 4863 
L 1178 4863 
L 1178 0 
L 603 0 
L 603 4863 
z
" transform="scale(0.015625)"/>
      <path id="DejaVuSans-61" d="M 2194 1759 
Q 1497 1759 1228 1600 
Q 959 1441 959 1056 
Q 959 750 1161 570 
Q 1363 391 1709 391 
Q 2188 391 2477 730 
Q 2766 1069 2766 1631 
L 2766 1759 
L 2194 1759 
z
M 3341 1997 
L 3341 0 
L 2766 0 
L 2766 531 
Q 2569 213 2275 61 
Q 1981 -91 1556 -91 
Q 1019 -91 701 211 
Q 384 513 384 1019 
Q 384 1609 779 1909 
Q 1175 2209 1959 2209 
L 2766 2209 
L 2766 2266 
Q 2766 2663 2505 2880 
Q 2244 3097 1772 3097 
Q 1472 3097 1187 3025 
Q 903 2953 641 2809 
L 641 3341 
Q 956 3463 1253 3523 
Q 1550 3584 1831 3584 
Q 2591 3584 2966 3190 
Q 3341 2797 3341 1997 
z
" transform="scale(0.015625)"/>
      <path id="DejaVuSans-79" d="M 2059 -325 
Q 1816 -950 1584 -1140 
Q 1353 -1331 966 -1331 
L 506 -1331 
L 506 -850 
L 844 -850 
Q 1081 -850 1212 -737 
Q 1344 -625 1503 -206 
L 1606 56 
L 191 3500 
L 800 3500 
L 1894 763 
L 2988 3500 
L 3597 3500 
L 2059 -325 
z
" transform="scale(0.015625)"/>
      <path id="DejaVuSans-66" d="M 2375 4863 
L 2375 4384 
L 1825 4384 
Q 1516 4384 1395 4259 
Q 1275 4134 1275 3809 
L 1275 3500 
L 2222 3500 
L 2222 3053 
L 1275 3053 
L 1275 0 
L 697 0 
L 697 3053 
L 147 3053 
L 147 3500 
L 697 3500 
L 697 3744 
Q 697 4328 969 4595 
Q 1241 4863 1831 4863 
L 2375 4863 
z
" transform="scale(0.015625)"/>
      <path id="DejaVuSans-6a" d="M 603 3500 
L 1178 3500 
L 1178 -63 
Q 1178 -731 923 -1031 
Q 669 -1331 103 -1331 
L -116 -1331 
L -116 -844 
L 38 -844 
Q 366 -844 484 -692 
Q 603 -541 603 -63 
L 603 3500 
z
M 603 4863 
L 1178 4863 
L 1178 4134 
L 603 4134 
L 603 4863 
z
" transform="scale(0.015625)"/>
      <path id="DejaVuSans-70" d="M 1159 525 
L 1159 -1331 
L 581 -1331 
L 581 3500 
L 1159 3500 
L 1159 2969 
Q 1341 3281 1617 3432 
Q 1894 3584 2278 3584 
Q 2916 3584 3314 3078 
Q 3713 2572 3713 1747 
Q 3713 922 3314 415 
Q 2916 -91 2278 -91 
Q 1894 -91 1617 61 
Q 1341 213 1159 525 
z
M 3116 1747 
Q 3116 2381 2855 2742 
Q 2594 3103 2138 3103 
Q 1681 3103 1420 2742 
Q 1159 2381 1159 1747 
Q 1159 1113 1420 752 
Q 1681 391 2138 391 
Q 2594 391 2855 752 
Q 3116 1113 3116 1747 
z
" transform="scale(0.015625)"/>
     </defs>
     <use xlink:href="#DejaVuSans-4f"/>
     <use xlink:href="#DejaVuSans-76" x="78.710938"/>
     <use xlink:href="#DejaVuSans-65" x="137.890625"/>
     <use xlink:href="#DejaVuSans-72" x="199.414062"/>
     <use xlink:href="#DejaVuSans-6c" x="240.527344"/>
     <use xlink:href="#DejaVuSans-61" x="268.310547"/>
     <use xlink:href="#DejaVuSans-79" x="329.589844"/>
     <use xlink:href="#DejaVuSans-20" x="388.769531"/>
     <use xlink:href="#DejaVuSans-6f" x="420.556641"/>
     <use xlink:href="#DejaVuSans-66" x="481.738281"/>
     <use xlink:href="#DejaVuSans-20" x="516.943359"/>
     <use xlink:href="#DejaVuSans-6a" x="548.730469"/>
     <use xlink:href="#DejaVuSans-6f" x="576.513672"/>
     <use xlink:href="#DejaVuSans-69" x="637.695312"/>
     <use xlink:href="#DejaVuSans-6e" x="665.478516"/>
     <use xlink:href="#DejaVuSans-74" x="728.857422"/>
     <use xlink:href="#DejaVuSans-20" x="768.066406"/>
     <use xlink:href="#DejaVuSans-70" x="799.853516"/>
     <use xlink:href="#DejaVuSans-6f" x="863.330078"/>
     <use xlink:href="#DejaVuSans-73" x="924.511719"/>
     <use xlink:href="#DejaVuSans-69" x="976.611328"/>
     <use xlink:href="#DejaVuSans-74" x="1004.394531"/>
     <use xlink:href="#DejaVuSans-69" x="1043.603516"/>
     <use xlink:href="#DejaVuSans-6f" x="1071.386719"/>
     <use xlink:href="#DejaVuSans-6e" x="1132.568359"/>
     <use xlink:href="#DejaVuSans-20" x="1195.947266"/>
     <use xlink:href="#DejaVuSans-31" x="1227.734375"/>
    </g>
   </g>
   <g id="legend_1">
    <g id="patch_7">
     <path d="M 64.6 78.82825 
L 112.83125 78.82825 
Q 114.83125 78.82825 114.83125 76.82825 
L 114.83125 48.472 
Q 114.83125 46.472 112.83125 46.472 
L 64.6 46.472 
Q 62.6 46.472 62.6 48.472 
L 62.6 76.82825 
Q 62.6 78.82825 64.6 78.82825 
z
" style="fill: #ffffff; opacity: 0.8; stroke: #cccccc; stroke-linejoin: miter"/>
    </g>
    <g id="line2d_14">
     <path d="M 66.6 54.570437 
L 76.6 54.570437 
L 86.6 54.570437 
" style="fill: none; stroke: #1f77b4; stroke-width: 1.5; stroke-linecap: square"/>
    </g>
    <g id="text_15">
     <!-- df1 -->
     <g transform="translate(94.6 58.070437) scale(0.1 -0.1)">
      <use xlink:href="#DejaVuSans-64"/>
      <use xlink:href="#DejaVuSans-66" x="63.476562"/>
      <use xlink:href="#DejaVuSans-31" x="98.681641"/>
     </g>
    </g>
    <g id="line2d_15">
     <path d="M 66.6 69.248562 
L 76.6 69.248562 
L 86.6 69.248562 
" style="fill: none; stroke: #ff7f0e; stroke-width: 1.5; stroke-linecap: square"/>
    </g>
    <g id="text_16">
     <!-- df2 -->
     <g transform="translate(94.6 72.748562) scale(0.1 -0.1)">
      <use xlink:href="#DejaVuSans-64"/>
      <use xlink:href="#DejaVuSans-66" x="63.476562"/>
      <use xlink:href="#DejaVuSans-32" x="98.681641"/>
     </g>
    </g>
   </g>
  </g>
 </g>
 <defs>
  <clipPath id="p1d7d7cb3b8">
   <rect x="57.6" y="41.472" width="357.12" height="266.112"/>
  </clipPath>
 </defs>
</svg>
