<?xml version="1.0" encoding="utf-8" standalone="no"?>
<!DOCTYPE svg PUBLIC "-//W3C//DTD SVG 1.1//EN"
  "http://www.w3.org/Graphics/SVG/1.1/DTD/svg11.dtd">
<svg xmlns:xlink="http://www.w3.org/1999/xlink" width="460.8pt" height="345.6pt" viewBox="0 0 460.8 345.6" xmlns="http://www.w3.org/2000/svg" version="1.1">
 <metadata>
  <rdf:RDF xmlns:dc="http://purl.org/dc/elements/1.1/" xmlns:cc="http://creativecommons.org/ns#" xmlns:rdf="http://www.w3.org/1999/02/22-rdf-syntax-ns#">
   <cc:Work>
    <dc:type rdf:resource="http://purl.org/dc/dcmitype/StillImage"/>
    <dc:date>2023-11-12T23:05:34.715264</dc:date>
    <dc:format>image/svg+xml</dc:format>
    <dc:creator>
     <cc:Agent>
      <dc:title>Matplotlib v3.7.1, https://matplotlib.org/</dc:title>
     </cc:Agent>
    </dc:creator>
   </cc:Work>
  </rdf:RDF>
 </metadata>
 <defs>
  <style type="text/css">*{stroke-linejoin: round; stroke-linecap: butt}</style>
 </defs>
 <g id="figure_1">
  <g id="patch_1">
   <path d="M 0 345.6 
L 460.8 345.6 
L 460.8 0 
L 0 0 
z
" style="fill: #ffffff"/>
  </g>
  <g id="axes_1">
   <g id="patch_2">
    <path d="M 57.6 307.584 
L 414.72 307.584 
L 414.72 41.472 
L 57.6 41.472 
z
" style="fill: #ffffff"/>
   </g>
   <g id="PolyCollection_1">
    <defs>
     <path id="m7ce1608297" d="M 73.832727 -172.424608 
L 73.832727 -170.890619 
L 79.756435 -170.890619 
L 79.962733 -170.890619 
L 80.169031 -170.890619 
L 80.758455 -170.890619 
L 81.141581 -170.890619 
L 84.029756 -163.09843 
L 104.689055 -155.805827 
L 107.429875 -166.318952 
L 109.5518 -188.10038 
L 124.110564 -50.112 
L 127.49975 -159.972611 
L 127.882876 -179.028602 
L 129.47432 -179.108397 
L 133.629756 -179.142332 
L 152.815496 -179.142332 
L 153.021794 -179.142332 
L 153.228093 -179.142332 
L 153.640689 -179.142332 
L 153.846988 -179.142332 
L 154.053286 -179.142332 
L 154.259584 -179.142332 
L 154.465882 -179.142332 
L 154.672181 -179.142332 
L 154.878479 -179.142332 
L 155.055306 -179.142332 
L 155.674201 -179.142332 
L 155.880499 -179.142332 
L 156.293096 -179.142332 
L 158.090838 -179.142332 
L 158.857089 -179.142332 
L 159.063387 -179.142332 
L 159.269685 -179.142332 
L 159.475983 -179.142332 
L 160.684302 -179.142332 
L 160.8906 -179.142332 
L 161.096898 -179.142332 
L 161.273725 -179.142332 
L 163.100939 -179.142332 
L 163.719834 -179.142332 
L 163.926132 -179.142332 
L 164.13243 -179.142332 
L 168.936233 -179.142332 
L 170.144551 -179.142332 
L 170.35085 -179.142332 
L 174.565229 -179.142332 
L 174.771527 -179.142332 
L 180.017398 -179.142332 
L 180.223696 -179.142332 
L 180.842591 -179.142332 
L 181.048889 -179.142332 
L 181.255187 -179.142332 
L 181.461485 -179.142332 
L 182.08038 -179.142332 
L 183.111872 -179.142332 
L 183.31817 -179.142332 
L 183.524468 -179.142332 
L 183.730766 -179.142332 
L 183.907594 -179.142332 
L 184.113892 -179.142332 
L 184.32019 -179.142332 
L 192.012169 -179.142332 
L 192.395294 -179.142332 
L 194.605633 -179.142332 
L 202.26814 -179.142332 
L 202.474439 -179.142332 
L 202.680737 -179.142332 
L 204.095354 -179.142332 
L 204.301652 -179.142332 
L 204.50795 -179.142332 
L 204.714248 -179.142332 
L 204.920547 -179.142332 
L 205.303672 -179.142332 
L 205.50997 -179.142332 
L 205.716269 -179.142332 
L 205.893096 -179.142332 
L 206.305692 -179.142332 
L 206.51199 -179.142332 
L 206.688818 -179.142332 
L 206.895116 -179.142332 
L 207.101414 -179.142332 
L 208.132906 -179.142332 
L 208.339204 -179.142332 
L 208.928627 -179.142332 
L 209.134926 -179.142332 
L 209.341224 -179.142332 
L 211.610505 -179.142332 
L 212.759881 -179.142332 
L 216.650077 -179.142332 
L 216.856376 -179.142332 
L 217.062674 -179.142332 
L 218.241521 -179.142332 
L 218.447819 -179.142332 
L 220.098206 -179.142332 
L 220.304504 -179.142332 
L 220.510802 -179.142332 
L 220.893928 -179.142332 
L 221.277053 -179.142332 
L 221.483351 -179.142332 
L 221.689649 -179.142332 
L 221.895948 -179.142332 
L 236.042115 -179.142332 
L 236.248414 -179.142332 
L 236.454712 -179.142332 
L 237.66303 -179.142332 
L 238.723993 -179.142332 
L 239.107118 -179.142332 
L 239.313417 -179.142332 
L 239.519715 -179.142332 
L 239.90284 -179.142332 
L 240.109138 -179.142332 
L 241.788996 -179.142332 
L 257.526607 -126.462488 
L 257.732906 -116.515949 
L 258.116031 -116.240517 
L 259.08858 -160.80677 
L 262.241996 -188.894045 
L 262.448295 -191.441678 
L 270.582341 -145.870835 
L 270.994938 -148.636439 
L 274.030469 -151.459939 
L 274.236768 -151.459939 
L 274.826191 -151.500053 
L 282.223458 -129.948143 
L 282.429756 -119.973037 
L 282.636055 -119.973037 
L 283.078122 -119.973037 
L 288.382935 -78.913092 
L 288.825003 -89.52466 
L 289.031301 -94.021085 
L 289.2376 -99.199885 
L 289.443898 -103.616082 
L 289.856494 -112.889732 
L 291.683708 -153.695331 
L 291.890006 -155.582488 
L 292.302602 -153.847114 
L 294.748711 -155.015035 
L 296.546453 -224.731389 
L 296.752751 -225.549015 
L 296.959049 -226.785617 
L 297.165348 -228.329906 
L 297.754771 -229.654597 
L 297.96107 -229.654597 
L 298.167368 -229.654597 
L 298.373666 -229.654597 
L 299.581985 -226.630093 
L 299.788283 -226.589979 
L 299.994581 -226.589979 
L 300.200879 -226.549865 
L 300.613476 -226.549865 
L 300.819774 -226.549865 
L 301.409198 -232.210903 
L 301.615496 -236.586986 
L 302.028093 -246.021092 
L 302.234391 -248.108821 
L 302.646988 -248.483943 
L 302.853286 -249.249908 
L 305.505692 -249.312356 
L 305.888818 -249.385104 
L 306.095116 -250.438102 
L 307.539204 -253.511828 
L 308.953821 -244.231131 
L 309.18959 -244.231131 
L 309.808485 -226.08416 
L 310.839976 -222.792083 
L 317.883589 -196.134555 
L 318.856138 -196.415788 
L 319.239263 -196.415788 
L 319.65186 -196.415788 
L 323.512585 -196.455902 
L 323.718883 -196.455902 
L 324.986144 -196.455902 
L 326.783886 -196.455902 
L 327.167011 -196.455902 
L 327.37331 -196.455902 
L 330.467784 -197.947284 
L 331.499275 -204.733635 
L 332.294997 -209.183766 
L 332.501295 -207.994325 
L 339.515437 -160.861358 
L 339.721735 -159.167779 
L 340.311159 -153.51498 
L 340.517457 -151.696504 
L 340.723755 -149.853201 
L 340.930053 -148.222883 
L 341.136352 -146.52925 
L 341.961545 -139.865301 
L 342.993036 -130.908012 
L 343.199335 -129.475392 
L 344.407653 -120.973887 
L 344.613951 -119.556554 
L 345.026548 -116.691314 
L 345.232846 -115.242973 
L 345.439144 -113.710664 
L 345.645443 -112.199876 
L 346.234866 -108.427621 
L 346.647463 -106.103706 
L 346.853761 -104.910958 
L 347.678954 -100.393446 
L 348.916744 -99.554734 
L 349.123042 -99.554734 
L 353.573191 -92.531763 
L 353.779489 -98.96332 
L 361.884064 -114.505576 
L 364.094403 -124.029832 
L 364.300701 -126.014998 
L 364.506999 -126.056793 
L 364.713298 -126.056793 
L 364.919596 -126.056793 
L 365.125894 -126.056793 
L 365.951087 -128.38564 
L 366.540511 -129.193346 
L 366.746809 -131.78814 
L 367.188877 -133.069789 
L 368.190897 -134.596298 
L 368.397195 -135.888355 
L 368.603494 -135.898655 
L 371.049602 -135.898655 
L 371.2559 -135.898655 
L 379.566774 -135.862715 
L 379.773072 -135.862715 
L 387.818705 -135.856915 
L 388.260772 -135.856915 
L 392.033084 -135.856915 
L 392.239382 -135.856915 
L 393.624528 -135.856915 
L 394.037124 -135.856915 
L 394.243422 -135.856915 
L 394.449721 -135.856915 
L 394.862317 -135.856915 
L 398.487273 -135.856915 
L 398.487273 -171.636743 
L 398.487273 -171.636743 
L 394.862317 -171.636743 
L 394.449721 -171.636743 
L 394.243422 -171.636743 
L 394.037124 -171.636743 
L 393.624528 -171.636743 
L 392.239382 -171.636743 
L 392.033084 -171.636743 
L 388.260772 -171.636743 
L 387.818705 -171.636743 
L 379.773072 -171.636743 
L 379.566774 -171.636743 
L 371.2559 -162.685688 
L 371.049602 -162.690621 
L 368.603494 -150.830904 
L 368.397195 -150.633206 
L 368.190897 -150.633206 
L 367.188877 -150.552978 
L 366.746809 -150.534764 
L 366.540511 -149.4996 
L 365.951087 -142.620932 
L 365.125894 -141.858328 
L 364.919596 -142.416241 
L 364.713298 -142.431528 
L 364.506999 -142.431528 
L 364.300701 -142.431528 
L 364.094403 -142.431528 
L 361.884064 -199.348463 
L 353.779489 -137.075737 
L 353.573191 -138.284584 
L 349.123042 -167.877281 
L 348.916744 -169.534107 
L 347.678954 -180.479436 
L 346.853761 -187.322489 
L 346.647463 -188.989994 
L 346.234866 -192.454562 
L 345.645443 -201.901083 
L 345.439144 -204.733635 
L 345.232846 -206.216723 
L 345.026548 -207.5348 
L 344.613951 -209.151892 
L 344.407653 -209.21434 
L 343.199335 -210.594865 
L 342.993036 -210.594865 
L 341.961545 -212.961388 
L 341.136352 -223.360784 
L 340.930053 -226.863785 
L 340.723755 -227.626823 
L 340.517457 -229.902763 
L 340.311159 -231.163759 
L 339.721735 -231.243554 
L 339.515437 -231.283668 
L 332.501295 -224.553965 
L 332.294997 -224.553965 
L 331.499275 -224.553965 
L 330.467784 -224.553965 
L 327.37331 -224.553965 
L 327.167011 -224.553965 
L 326.783886 -224.553965 
L 324.986144 -224.513851 
L 323.718883 -224.307859 
L 323.512585 -224.307859 
L 319.65186 -224.307859 
L 319.239263 -224.307859 
L 318.856138 -224.307859 
L 317.883589 -224.307859 
L 310.839976 -292.032 
L 309.808485 -292.032 
L 309.18959 -292.032 
L 308.953821 -292.011292 
L 307.539204 -274.780444 
L 306.095116 -268.91878 
L 305.888818 -268.91878 
L 305.505692 -269.000689 
L 302.853286 -267.672691 
L 302.646988 -266.922447 
L 302.234391 -260.282079 
L 302.028093 -255.450646 
L 301.615496 -247.622897 
L 301.409198 -236.773083 
L 300.819774 -194.325999 
L 300.613476 -191.515727 
L 300.200879 -191.515727 
L 299.994581 -191.515727 
L 299.788283 -191.515727 
L 299.581985 -191.515727 
L 298.373666 -192.692375 
L 298.167368 -194.387634 
L 297.96107 -194.454636 
L 297.754771 -191.924729 
L 297.165348 -178.605072 
L 296.959049 -174.143394 
L 296.752751 -169.486946 
L 296.546453 -164.749022 
L 294.748711 -123.574481 
L 292.302602 -107.703884 
L 291.890006 -107.703884 
L 291.683708 -107.703884 
L 289.856494 -161.064856 
L 289.443898 -161.013141 
L 289.2376 -161.013141 
L 289.031301 -161.013141 
L 288.825003 -161.013141 
L 288.382935 -171.436118 
L 283.078122 -199.166919 
L 282.636055 -197.704484 
L 282.429756 -196.320273 
L 282.223458 -195.596102 
L 274.826191 -257.967271 
L 274.236768 -266.391421 
L 274.030469 -268.048193 
L 270.994938 -263.742473 
L 270.582341 -264.747443 
L 262.448295 -245.456946 
L 262.241996 -244.862225 
L 259.08858 -226.891052 
L 258.116031 -225.266101 
L 257.732906 -225.266101 
L 257.526607 -225.266101 
L 241.788996 -225.266101 
L 240.109138 -225.266101 
L 239.90284 -225.266101 
L 239.519715 -225.266101 
L 239.313417 -225.266101 
L 239.107118 -225.266101 
L 238.723993 -225.266101 
L 237.66303 -225.266101 
L 236.454712 -225.266101 
L 236.248414 -225.266101 
L 236.042115 -225.266101 
L 221.895948 -225.266101 
L 221.689649 -225.266101 
L 221.483351 -225.266101 
L 221.277053 -225.266101 
L 220.893928 -225.266101 
L 220.510802 -225.266101 
L 220.304504 -225.266101 
L 220.098206 -225.266101 
L 218.447819 -225.266101 
L 218.241521 -225.266101 
L 217.062674 -225.266101 
L 216.856376 -225.266101 
L 216.650077 -225.266101 
L 212.759881 -225.266101 
L 211.610505 -225.266101 
L 209.341224 -225.266101 
L 209.134926 -225.266101 
L 208.928627 -225.266101 
L 208.339204 -225.266101 
L 208.132906 -225.266101 
L 207.101414 -225.266101 
L 206.895116 -225.266101 
L 206.688818 -225.266101 
L 206.51199 -225.266101 
L 206.305692 -225.266101 
L 205.893096 -225.266101 
L 205.716269 -225.266101 
L 205.50997 -225.266101 
L 205.303672 -225.266101 
L 204.920547 -225.266101 
L 204.714248 -225.266101 
L 204.50795 -225.266101 
L 204.301652 -225.266101 
L 204.095354 -225.266101 
L 202.680737 -225.266101 
L 202.474439 -225.266101 
L 202.26814 -225.266101 
L 194.605633 -225.266101 
L 192.395294 -225.266101 
L 192.012169 -225.266101 
L 184.32019 -225.266101 
L 184.113892 -225.266101 
L 183.907594 -225.266101 
L 183.730766 -225.266101 
L 183.524468 -225.266101 
L 183.31817 -225.266101 
L 183.111872 -225.266101 
L 182.08038 -225.266101 
L 181.461485 -225.266101 
L 181.255187 -225.266101 
L 181.048889 -225.266101 
L 180.842591 -225.266101 
L 180.223696 -225.266101 
L 180.017398 -225.266101 
L 174.771527 -225.266101 
L 174.565229 -225.266101 
L 170.35085 -225.266101 
L 170.144551 -225.266101 
L 168.936233 -225.266101 
L 164.13243 -225.266101 
L 163.926132 -225.266101 
L 163.719834 -225.266101 
L 163.100939 -225.266101 
L 161.273725 -225.266101 
L 161.096898 -225.266101 
L 160.8906 -225.266101 
L 160.684302 -225.266101 
L 159.475983 -225.266101 
L 159.269685 -225.266101 
L 159.063387 -225.266101 
L 158.857089 -225.266101 
L 158.090838 -225.266101 
L 156.293096 -225.266101 
L 155.880499 -225.266101 
L 155.674201 -225.266101 
L 155.055306 -225.271522 
L 154.878479 -225.271522 
L 154.672181 -225.271522 
L 154.465882 -225.271522 
L 154.259584 -225.271522 
L 154.053286 -225.271522 
L 153.846988 -225.271522 
L 153.640689 -225.271522 
L 153.228093 -225.271522 
L 153.021794 -225.271522 
L 152.815496 -225.271522 
L 133.629756 -197.328983 
L 129.47432 -106.079312 
L 127.882876 -114.773149 
L 127.49975 -119.26746 
L 124.110564 -236.64694 
L 109.5518 -150.878879 
L 107.429875 -158.648299 
L 104.689055 -162.721248 
L 84.029756 -170.809957 
L 81.141581 -172.424608 
L 80.758455 -172.424608 
L 80.169031 -172.424608 
L 79.962733 -172.424608 
L 79.756435 -172.424608 
L 73.832727 -172.424608 
z
" style="stroke: #ff0000; stroke-opacity: 0.3"/>
    </defs>
    <g clip-path="url(#p9828ca9716)">
     <use xlink:href="#m7ce1608297" x="0" y="345.6" style="fill: #ff0000; fill-opacity: 0.3; stroke: #ff0000; stroke-opacity: 0.3"/>
    </g>
   </g>
   <g id="matplotlib.axis_1">
    <g id="xtick_1">
     <g id="line2d_1">
      <defs>
       <path id="mee3af50f31" d="M 0 0 
L 0 3.5 
" style="stroke: #000000; stroke-width: 0.8"/>
      </defs>
      <g>
       <use xlink:href="#mee3af50f31" x="73.832727" y="307.584" style="stroke: #000000; stroke-width: 0.8"/>
      </g>
     </g>
     <g id="text_1">
      <!-- 0 -->
      <g transform="translate(70.651477 322.182437) scale(0.1 -0.1)">
       <defs>
        <path id="DejaVuSans-30" d="M 2034 4250 
Q 1547 4250 1301 3770 
Q 1056 3291 1056 2328 
Q 1056 1369 1301 889 
Q 1547 409 2034 409 
Q 2525 409 2770 889 
Q 3016 1369 3016 2328 
Q 3016 3291 2770 3770 
Q 2525 4250 2034 4250 
z
M 2034 4750 
Q 2819 4750 3233 4129 
Q 3647 3509 3647 2328 
Q 3647 1150 3233 529 
Q 2819 -91 2034 -91 
Q 1250 -91 836 529 
Q 422 1150 422 2328 
Q 422 3509 836 4129 
Q 1250 4750 2034 4750 
z
" transform="scale(0.015625)"/>
       </defs>
       <use xlink:href="#DejaVuSans-30"/>
      </g>
     </g>
    </g>
    <g id="xtick_2">
     <g id="line2d_2">
      <g>
       <use xlink:href="#mee3af50f31" x="132.775092" y="307.584" style="stroke: #000000; stroke-width: 0.8"/>
      </g>
     </g>
     <g id="text_2">
      <!-- 20 -->
      <g transform="translate(126.412592 322.182437) scale(0.1 -0.1)">
       <defs>
        <path id="DejaVuSans-32" d="M 1228 531 
L 3431 531 
L 3431 0 
L 469 0 
L 469 531 
Q 828 903 1448 1529 
Q 2069 2156 2228 2338 
Q 2531 2678 2651 2914 
Q 2772 3150 2772 3378 
Q 2772 3750 2511 3984 
Q 2250 4219 1831 4219 
Q 1534 4219 1204 4116 
Q 875 4013 500 3803 
L 500 4441 
Q 881 4594 1212 4672 
Q 1544 4750 1819 4750 
Q 2544 4750 2975 4387 
Q 3406 4025 3406 3419 
Q 3406 3131 3298 2873 
Q 3191 2616 2906 2266 
Q 2828 2175 2409 1742 
Q 1991 1309 1228 531 
z
" transform="scale(0.015625)"/>
       </defs>
       <use xlink:href="#DejaVuSans-32"/>
       <use xlink:href="#DejaVuSans-30" x="63.623047"/>
      </g>
     </g>
    </g>
    <g id="xtick_3">
     <g id="line2d_3">
      <g>
       <use xlink:href="#mee3af50f31" x="191.717457" y="307.584" style="stroke: #000000; stroke-width: 0.8"/>
      </g>
     </g>
     <g id="text_3">
      <!-- 40 -->
      <g transform="translate(185.354957 322.182437) scale(0.1 -0.1)">
       <defs>
        <path id="DejaVuSans-34" d="M 2419 4116 
L 825 1625 
L 2419 1625 
L 2419 4116 
z
M 2253 4666 
L 3047 4666 
L 3047 1625 
L 3713 1625 
L 3713 1100 
L 3047 1100 
L 3047 0 
L 2419 0 
L 2419 1100 
L 313 1100 
L 313 1709 
L 2253 4666 
z
" transform="scale(0.015625)"/>
       </defs>
       <use xlink:href="#DejaVuSans-34"/>
       <use xlink:href="#DejaVuSans-30" x="63.623047"/>
      </g>
     </g>
    </g>
    <g id="xtick_4">
     <g id="line2d_4">
      <g>
       <use xlink:href="#mee3af50f31" x="250.659822" y="307.584" style="stroke: #000000; stroke-width: 0.8"/>
      </g>
     </g>
     <g id="text_4">
      <!-- 60 -->
      <g transform="translate(244.297322 322.182437) scale(0.1 -0.1)">
       <defs>
        <path id="DejaVuSans-36" d="M 2113 2584 
Q 1688 2584 1439 2293 
Q 1191 2003 1191 1497 
Q 1191 994 1439 701 
Q 1688 409 2113 409 
Q 2538 409 2786 701 
Q 3034 994 3034 1497 
Q 3034 2003 2786 2293 
Q 2538 2584 2113 2584 
z
M 3366 4563 
L 3366 3988 
Q 3128 4100 2886 4159 
Q 2644 4219 2406 4219 
Q 1781 4219 1451 3797 
Q 1122 3375 1075 2522 
Q 1259 2794 1537 2939 
Q 1816 3084 2150 3084 
Q 2853 3084 3261 2657 
Q 3669 2231 3669 1497 
Q 3669 778 3244 343 
Q 2819 -91 2113 -91 
Q 1303 -91 875 529 
Q 447 1150 447 2328 
Q 447 3434 972 4092 
Q 1497 4750 2381 4750 
Q 2619 4750 2861 4703 
Q 3103 4656 3366 4563 
z
" transform="scale(0.015625)"/>
       </defs>
       <use xlink:href="#DejaVuSans-36"/>
       <use xlink:href="#DejaVuSans-30" x="63.623047"/>
      </g>
     </g>
    </g>
    <g id="xtick_5">
     <g id="line2d_5">
      <g>
       <use xlink:href="#mee3af50f31" x="309.602187" y="307.584" style="stroke: #000000; stroke-width: 0.8"/>
      </g>
     </g>
     <g id="text_5">
      <!-- 80 -->
      <g transform="translate(303.239687 322.182437) scale(0.1 -0.1)">
       <defs>
        <path id="DejaVuSans-38" d="M 2034 2216 
Q 1584 2216 1326 1975 
Q 1069 1734 1069 1313 
Q 1069 891 1326 650 
Q 1584 409 2034 409 
Q 2484 409 2743 651 
Q 3003 894 3003 1313 
Q 3003 1734 2745 1975 
Q 2488 2216 2034 2216 
z
M 1403 2484 
Q 997 2584 770 2862 
Q 544 3141 544 3541 
Q 544 4100 942 4425 
Q 1341 4750 2034 4750 
Q 2731 4750 3128 4425 
Q 3525 4100 3525 3541 
Q 3525 3141 3298 2862 
Q 3072 2584 2669 2484 
Q 3125 2378 3379 2068 
Q 3634 1759 3634 1313 
Q 3634 634 3220 271 
Q 2806 -91 2034 -91 
Q 1263 -91 848 271 
Q 434 634 434 1313 
Q 434 1759 690 2068 
Q 947 2378 1403 2484 
z
M 1172 3481 
Q 1172 3119 1398 2916 
Q 1625 2713 2034 2713 
Q 2441 2713 2670 2916 
Q 2900 3119 2900 3481 
Q 2900 3844 2670 4047 
Q 2441 4250 2034 4250 
Q 1625 4250 1398 4047 
Q 1172 3844 1172 3481 
z
" transform="scale(0.015625)"/>
       </defs>
       <use xlink:href="#DejaVuSans-38"/>
       <use xlink:href="#DejaVuSans-30" x="63.623047"/>
      </g>
     </g>
    </g>
    <g id="xtick_6">
     <g id="line2d_6">
      <g>
       <use xlink:href="#mee3af50f31" x="368.544551" y="307.584" style="stroke: #000000; stroke-width: 0.8"/>
      </g>
     </g>
     <g id="text_6">
      <!-- 100 -->
      <g transform="translate(359.000801 322.182437) scale(0.1 -0.1)">
       <defs>
        <path id="DejaVuSans-31" d="M 794 531 
L 1825 531 
L 1825 4091 
L 703 3866 
L 703 4441 
L 1819 4666 
L 2450 4666 
L 2450 531 
L 3481 531 
L 3481 0 
L 794 0 
L 794 531 
z
" transform="scale(0.015625)"/>
       </defs>
       <use xlink:href="#DejaVuSans-31"/>
       <use xlink:href="#DejaVuSans-30" x="63.623047"/>
       <use xlink:href="#DejaVuSans-30" x="127.246094"/>
      </g>
     </g>
    </g>
    <g id="text_7">
     <!-- Time (ms) -->
     <g transform="translate(210.960781 335.860562) scale(0.1 -0.1)">
      <defs>
       <path id="DejaVuSans-54" d="M -19 4666 
L 3928 4666 
L 3928 4134 
L 2272 4134 
L 2272 0 
L 1638 0 
L 1638 4134 
L -19 4134 
L -19 4666 
z
" transform="scale(0.015625)"/>
       <path id="DejaVuSans-69" d="M 603 3500 
L 1178 3500 
L 1178 0 
L 603 0 
L 603 3500 
z
M 603 4863 
L 1178 4863 
L 1178 4134 
L 603 4134 
L 603 4863 
z
" transform="scale(0.015625)"/>
       <path id="DejaVuSans-6d" d="M 3328 2828 
Q 3544 3216 3844 3400 
Q 4144 3584 4550 3584 
Q 5097 3584 5394 3201 
Q 5691 2819 5691 2113 
L 5691 0 
L 5113 0 
L 5113 2094 
Q 5113 2597 4934 2840 
Q 4756 3084 4391 3084 
Q 3944 3084 3684 2787 
Q 3425 2491 3425 1978 
L 3425 0 
L 2847 0 
L 2847 2094 
Q 2847 2600 2669 2842 
Q 2491 3084 2119 3084 
Q 1678 3084 1418 2786 
Q 1159 2488 1159 1978 
L 1159 0 
L 581 0 
L 581 3500 
L 1159 3500 
L 1159 2956 
Q 1356 3278 1631 3431 
Q 1906 3584 2284 3584 
Q 2666 3584 2933 3390 
Q 3200 3197 3328 2828 
z
" transform="scale(0.015625)"/>
       <path id="DejaVuSans-65" d="M 3597 1894 
L 3597 1613 
L 953 1613 
Q 991 1019 1311 708 
Q 1631 397 2203 397 
Q 2534 397 2845 478 
Q 3156 559 3463 722 
L 3463 178 
Q 3153 47 2828 -22 
Q 2503 -91 2169 -91 
Q 1331 -91 842 396 
Q 353 884 353 1716 
Q 353 2575 817 3079 
Q 1281 3584 2069 3584 
Q 2775 3584 3186 3129 
Q 3597 2675 3597 1894 
z
M 3022 2063 
Q 3016 2534 2758 2815 
Q 2500 3097 2075 3097 
Q 1594 3097 1305 2825 
Q 1016 2553 972 2059 
L 3022 2063 
z
" transform="scale(0.015625)"/>
       <path id="DejaVuSans-20" transform="scale(0.015625)"/>
       <path id="DejaVuSans-28" d="M 1984 4856 
Q 1566 4138 1362 3434 
Q 1159 2731 1159 2009 
Q 1159 1288 1364 580 
Q 1569 -128 1984 -844 
L 1484 -844 
Q 1016 -109 783 600 
Q 550 1309 550 2009 
Q 550 2706 781 3412 
Q 1013 4119 1484 4856 
L 1984 4856 
z
" transform="scale(0.015625)"/>
       <path id="DejaVuSans-73" d="M 2834 3397 
L 2834 2853 
Q 2591 2978 2328 3040 
Q 2066 3103 1784 3103 
Q 1356 3103 1142 2972 
Q 928 2841 928 2578 
Q 928 2378 1081 2264 
Q 1234 2150 1697 2047 
L 1894 2003 
Q 2506 1872 2764 1633 
Q 3022 1394 3022 966 
Q 3022 478 2636 193 
Q 2250 -91 1575 -91 
Q 1294 -91 989 -36 
Q 684 19 347 128 
L 347 722 
Q 666 556 975 473 
Q 1284 391 1588 391 
Q 1994 391 2212 530 
Q 2431 669 2431 922 
Q 2431 1156 2273 1281 
Q 2116 1406 1581 1522 
L 1381 1569 
Q 847 1681 609 1914 
Q 372 2147 372 2553 
Q 372 3047 722 3315 
Q 1072 3584 1716 3584 
Q 2034 3584 2315 3537 
Q 2597 3491 2834 3397 
z
" transform="scale(0.015625)"/>
       <path id="DejaVuSans-29" d="M 513 4856 
L 1013 4856 
Q 1481 4119 1714 3412 
Q 1947 2706 1947 2009 
Q 1947 1309 1714 600 
Q 1481 -109 1013 -844 
L 513 -844 
Q 928 -128 1133 580 
Q 1338 1288 1338 2009 
Q 1338 2731 1133 3434 
Q 928 4138 513 4856 
z
" transform="scale(0.015625)"/>
      </defs>
      <use xlink:href="#DejaVuSans-54"/>
      <use xlink:href="#DejaVuSans-69" x="57.958984"/>
      <use xlink:href="#DejaVuSans-6d" x="85.742188"/>
      <use xlink:href="#DejaVuSans-65" x="183.154297"/>
      <use xlink:href="#DejaVuSans-20" x="244.677734"/>
      <use xlink:href="#DejaVuSans-28" x="276.464844"/>
      <use xlink:href="#DejaVuSans-6d" x="315.478516"/>
      <use xlink:href="#DejaVuSans-73" x="412.890625"/>
      <use xlink:href="#DejaVuSans-29" x="464.990234"/>
     </g>
    </g>
   </g>
   <g id="matplotlib.axis_2">
    <g id="ytick_1">
     <g id="line2d_7">
      <defs>
       <path id="m636f45dee0" d="M 0 0 
L -3.5 0 
" style="stroke: #000000; stroke-width: 0.8"/>
      </defs>
      <g>
       <use xlink:href="#m636f45dee0" x="57.6" y="264.209584" style="stroke: #000000; stroke-width: 0.8"/>
      </g>
     </g>
     <g id="text_8">
      <!-- 89 -->
      <g transform="translate(37.875 268.008802) scale(0.1 -0.1)">
       <defs>
        <path id="DejaVuSans-39" d="M 703 97 
L 703 672 
Q 941 559 1184 500 
Q 1428 441 1663 441 
Q 2288 441 2617 861 
Q 2947 1281 2994 2138 
Q 2813 1869 2534 1725 
Q 2256 1581 1919 1581 
Q 1219 1581 811 2004 
Q 403 2428 403 3163 
Q 403 3881 828 4315 
Q 1253 4750 1959 4750 
Q 2769 4750 3195 4129 
Q 3622 3509 3622 2328 
Q 3622 1225 3098 567 
Q 2575 -91 1691 -91 
Q 1453 -91 1209 -44 
Q 966 3 703 97 
z
M 1959 2075 
Q 2384 2075 2632 2365 
Q 2881 2656 2881 3163 
Q 2881 3666 2632 3958 
Q 2384 4250 1959 4250 
Q 1534 4250 1286 3958 
Q 1038 3666 1038 3163 
Q 1038 2656 1286 2365 
Q 1534 2075 1959 2075 
z
" transform="scale(0.015625)"/>
       </defs>
       <use xlink:href="#DejaVuSans-38"/>
       <use xlink:href="#DejaVuSans-39" x="63.623047"/>
      </g>
     </g>
    </g>
    <g id="ytick_2">
     <g id="line2d_8">
      <g>
       <use xlink:href="#m636f45dee0" x="57.6" y="210.001172" style="stroke: #000000; stroke-width: 0.8"/>
      </g>
     </g>
     <g id="text_9">
      <!-- 90 -->
      <g transform="translate(37.875 213.80039) scale(0.1 -0.1)">
       <use xlink:href="#DejaVuSans-39"/>
       <use xlink:href="#DejaVuSans-30" x="63.623047"/>
      </g>
     </g>
    </g>
    <g id="ytick_3">
     <g id="line2d_9">
      <g>
       <use xlink:href="#m636f45dee0" x="57.6" y="155.79276" style="stroke: #000000; stroke-width: 0.8"/>
      </g>
     </g>
     <g id="text_10">
      <!-- 91 -->
      <g transform="translate(37.875 159.591978) scale(0.1 -0.1)">
       <use xlink:href="#DejaVuSans-39"/>
       <use xlink:href="#DejaVuSans-31" x="63.623047"/>
      </g>
     </g>
    </g>
    <g id="ytick_4">
     <g id="line2d_10">
      <g>
       <use xlink:href="#m636f45dee0" x="57.6" y="101.584348" style="stroke: #000000; stroke-width: 0.8"/>
      </g>
     </g>
     <g id="text_11">
      <!-- 92 -->
      <g transform="translate(37.875 105.383566) scale(0.1 -0.1)">
       <use xlink:href="#DejaVuSans-39"/>
       <use xlink:href="#DejaVuSans-32" x="63.623047"/>
      </g>
     </g>
    </g>
    <g id="ytick_5">
     <g id="line2d_11">
      <g>
       <use xlink:href="#m636f45dee0" x="57.6" y="47.375936" style="stroke: #000000; stroke-width: 0.8"/>
      </g>
     </g>
     <g id="text_12">
      <!-- 93 -->
      <g transform="translate(37.875 51.175154) scale(0.1 -0.1)">
       <defs>
        <path id="DejaVuSans-33" d="M 2597 2516 
Q 3050 2419 3304 2112 
Q 3559 1806 3559 1356 
Q 3559 666 3084 287 
Q 2609 -91 1734 -91 
Q 1441 -91 1130 -33 
Q 819 25 488 141 
L 488 750 
Q 750 597 1062 519 
Q 1375 441 1716 441 
Q 2309 441 2620 675 
Q 2931 909 2931 1356 
Q 2931 1769 2642 2001 
Q 2353 2234 1838 2234 
L 1294 2234 
L 1294 2753 
L 1863 2753 
Q 2328 2753 2575 2939 
Q 2822 3125 2822 3475 
Q 2822 3834 2567 4026 
Q 2313 4219 1838 4219 
Q 1578 4219 1281 4162 
Q 984 4106 628 3988 
L 628 4550 
Q 988 4650 1302 4700 
Q 1616 4750 1894 4750 
Q 2613 4750 3031 4423 
Q 3450 4097 3450 3541 
Q 3450 3153 3228 2886 
Q 3006 2619 2597 2516 
z
" transform="scale(0.015625)"/>
       </defs>
       <use xlink:href="#DejaVuSans-39"/>
       <use xlink:href="#DejaVuSans-33" x="63.623047"/>
      </g>
     </g>
    </g>
    <g id="text_13">
     <!-- Joint Position (degrees) -->
     <g transform="translate(31.795312 232.249875) rotate(-90) scale(0.1 -0.1)">
      <defs>
       <path id="DejaVuSans-4a" d="M 628 4666 
L 1259 4666 
L 1259 325 
Q 1259 -519 939 -900 
Q 619 -1281 -91 -1281 
L -331 -1281 
L -331 -750 
L -134 -750 
Q 284 -750 456 -515 
Q 628 -281 628 325 
L 628 4666 
z
" transform="scale(0.015625)"/>
       <path id="DejaVuSans-6f" d="M 1959 3097 
Q 1497 3097 1228 2736 
Q 959 2375 959 1747 
Q 959 1119 1226 758 
Q 1494 397 1959 397 
Q 2419 397 2687 759 
Q 2956 1122 2956 1747 
Q 2956 2369 2687 2733 
Q 2419 3097 1959 3097 
z
M 1959 3584 
Q 2709 3584 3137 3096 
Q 3566 2609 3566 1747 
Q 3566 888 3137 398 
Q 2709 -91 1959 -91 
Q 1206 -91 779 398 
Q 353 888 353 1747 
Q 353 2609 779 3096 
Q 1206 3584 1959 3584 
z
" transform="scale(0.015625)"/>
       <path id="DejaVuSans-6e" d="M 3513 2113 
L 3513 0 
L 2938 0 
L 2938 2094 
Q 2938 2591 2744 2837 
Q 2550 3084 2163 3084 
Q 1697 3084 1428 2787 
Q 1159 2491 1159 1978 
L 1159 0 
L 581 0 
L 581 3500 
L 1159 3500 
L 1159 2956 
Q 1366 3272 1645 3428 
Q 1925 3584 2291 3584 
Q 2894 3584 3203 3211 
Q 3513 2838 3513 2113 
z
" transform="scale(0.015625)"/>
       <path id="DejaVuSans-74" d="M 1172 4494 
L 1172 3500 
L 2356 3500 
L 2356 3053 
L 1172 3053 
L 1172 1153 
Q 1172 725 1289 603 
Q 1406 481 1766 481 
L 2356 481 
L 2356 0 
L 1766 0 
Q 1100 0 847 248 
Q 594 497 594 1153 
L 594 3053 
L 172 3053 
L 172 3500 
L 594 3500 
L 594 4494 
L 1172 4494 
z
" transform="scale(0.015625)"/>
       <path id="DejaVuSans-50" d="M 1259 4147 
L 1259 2394 
L 2053 2394 
Q 2494 2394 2734 2622 
Q 2975 2850 2975 3272 
Q 2975 3691 2734 3919 
Q 2494 4147 2053 4147 
L 1259 4147 
z
M 628 4666 
L 2053 4666 
Q 2838 4666 3239 4311 
Q 3641 3956 3641 3272 
Q 3641 2581 3239 2228 
Q 2838 1875 2053 1875 
L 1259 1875 
L 1259 0 
L 628 0 
L 628 4666 
z
" transform="scale(0.015625)"/>
       <path id="DejaVuSans-64" d="M 2906 2969 
L 2906 4863 
L 3481 4863 
L 3481 0 
L 2906 0 
L 2906 525 
Q 2725 213 2448 61 
Q 2172 -91 1784 -91 
Q 1150 -91 751 415 
Q 353 922 353 1747 
Q 353 2572 751 3078 
Q 1150 3584 1784 3584 
Q 2172 3584 2448 3432 
Q 2725 3281 2906 2969 
z
M 947 1747 
Q 947 1113 1208 752 
Q 1469 391 1925 391 
Q 2381 391 2643 752 
Q 2906 1113 2906 1747 
Q 2906 2381 2643 2742 
Q 2381 3103 1925 3103 
Q 1469 3103 1208 2742 
Q 947 2381 947 1747 
z
" transform="scale(0.015625)"/>
       <path id="DejaVuSans-67" d="M 2906 1791 
Q 2906 2416 2648 2759 
Q 2391 3103 1925 3103 
Q 1463 3103 1205 2759 
Q 947 2416 947 1791 
Q 947 1169 1205 825 
Q 1463 481 1925 481 
Q 2391 481 2648 825 
Q 2906 1169 2906 1791 
z
M 3481 434 
Q 3481 -459 3084 -895 
Q 2688 -1331 1869 -1331 
Q 1566 -1331 1297 -1286 
Q 1028 -1241 775 -1147 
L 775 -588 
Q 1028 -725 1275 -790 
Q 1522 -856 1778 -856 
Q 2344 -856 2625 -561 
Q 2906 -266 2906 331 
L 2906 616 
Q 2728 306 2450 153 
Q 2172 0 1784 0 
Q 1141 0 747 490 
Q 353 981 353 1791 
Q 353 2603 747 3093 
Q 1141 3584 1784 3584 
Q 2172 3584 2450 3431 
Q 2728 3278 2906 2969 
L 2906 3500 
L 3481 3500 
L 3481 434 
z
" transform="scale(0.015625)"/>
       <path id="DejaVuSans-72" d="M 2631 2963 
Q 2534 3019 2420 3045 
Q 2306 3072 2169 3072 
Q 1681 3072 1420 2755 
Q 1159 2438 1159 1844 
L 1159 0 
L 581 0 
L 581 3500 
L 1159 3500 
L 1159 2956 
Q 1341 3275 1631 3429 
Q 1922 3584 2338 3584 
Q 2397 3584 2469 3576 
Q 2541 3569 2628 3553 
L 2631 2963 
z
" transform="scale(0.015625)"/>
      </defs>
      <use xlink:href="#DejaVuSans-4a"/>
      <use xlink:href="#DejaVuSans-6f" x="29.492188"/>
      <use xlink:href="#DejaVuSans-69" x="90.673828"/>
      <use xlink:href="#DejaVuSans-6e" x="118.457031"/>
      <use xlink:href="#DejaVuSans-74" x="181.835938"/>
      <use xlink:href="#DejaVuSans-20" x="221.044922"/>
      <use xlink:href="#DejaVuSans-50" x="252.832031"/>
      <use xlink:href="#DejaVuSans-6f" x="309.509766"/>
      <use xlink:href="#DejaVuSans-73" x="370.691406"/>
      <use xlink:href="#DejaVuSans-69" x="422.791016"/>
      <use xlink:href="#DejaVuSans-74" x="450.574219"/>
      <use xlink:href="#DejaVuSans-69" x="489.783203"/>
      <use xlink:href="#DejaVuSans-6f" x="517.566406"/>
      <use xlink:href="#DejaVuSans-6e" x="578.748047"/>
      <use xlink:href="#DejaVuSans-20" x="642.126953"/>
      <use xlink:href="#DejaVuSans-28" x="673.914062"/>
      <use xlink:href="#DejaVuSans-64" x="712.927734"/>
      <use xlink:href="#DejaVuSans-65" x="776.404297"/>
      <use xlink:href="#DejaVuSans-67" x="837.927734"/>
      <use xlink:href="#DejaVuSans-72" x="901.404297"/>
      <use xlink:href="#DejaVuSans-65" x="940.267578"/>
      <use xlink:href="#DejaVuSans-65" x="1001.791016"/>
      <use xlink:href="#DejaVuSans-73" x="1063.314453"/>
      <use xlink:href="#DejaVuSans-29" x="1115.414062"/>
     </g>
    </g>
   </g>
   <g id="line2d_12">
    <path d="M 73.832727 174.709381 
L 81.141581 174.709381 
L 84.029756 182.50157 
L 104.689055 189.794173 
L 107.429875 179.281048 
L 109.5518 157.49962 
L 124.110564 295.488 
L 127.49975 185.627389 
L 127.882876 166.571398 
L 129.47432 166.491603 
L 133.629756 166.457668 
L 241.788996 166.457668 
L 257.526607 219.137512 
L 257.732906 229.084051 
L 258.116031 229.359483 
L 259.08858 184.79323 
L 262.448295 154.158322 
L 270.582341 199.729165 
L 270.994938 196.963561 
L 274.030469 194.140061 
L 274.826191 194.099947 
L 282.223458 215.651857 
L 282.429756 225.626963 
L 283.078122 225.626963 
L 288.382935 266.686908 
L 289.856494 232.710268 
L 291.683708 191.904669 
L 291.890006 190.017512 
L 292.302602 191.752886 
L 294.748711 190.584965 
L 296.546453 120.868611 
L 296.959049 118.814383 
L 297.165348 117.270094 
L 297.754771 115.945403 
L 298.373666 115.945403 
L 299.581985 118.969907 
L 300.200879 119.050135 
L 300.819774 119.050135 
L 301.409198 113.389097 
L 302.234391 97.491179 
L 302.646988 97.116057 
L 302.853286 96.350092 
L 305.888818 96.214896 
L 306.095116 95.161898 
L 307.539204 92.088172 
L 308.953821 101.368869 
L 309.18959 101.368869 
L 309.808485 119.51584 
L 310.839976 122.807917 
L 317.883589 149.465445 
L 319.239263 149.184212 
L 327.37331 149.144098 
L 330.467784 147.652716 
L 331.499275 140.866365 
L 332.294997 136.416234 
L 332.501295 137.605675 
L 339.721735 186.432221 
L 341.136352 199.07075 
L 344.407653 224.626113 
L 346.853761 240.689042 
L 347.678954 245.206554 
L 348.916744 246.045266 
L 349.123042 246.045266 
L 353.573191 253.068237 
L 353.779489 246.63668 
L 361.884064 231.094424 
L 364.094403 221.570168 
L 364.300701 219.585002 
L 364.919596 219.543207 
L 365.125894 219.543207 
L 365.951087 217.21436 
L 366.540511 216.406654 
L 366.746809 213.81186 
L 367.188877 212.530211 
L 368.190897 211.003702 
L 368.397195 209.711645 
L 368.603494 209.701345 
L 398.487273 209.743085 
L 398.487273 209.743085 
" clip-path="url(#p9828ca9716)" style="fill: none; stroke: #1f77b4; stroke-width: 1.5; stroke-linecap: square"/>
   </g>
   <g id="line2d_13">
    <path d="M 73.832727 173.175392 
L 81.141581 173.175392 
L 84.029756 174.790043 
L 104.689055 182.878752 
L 107.429875 186.951701 
L 109.5518 194.721121 
L 124.110564 108.95306 
L 127.49975 226.33254 
L 127.882876 230.826851 
L 129.47432 239.520688 
L 133.629756 148.271017 
L 152.815496 120.328478 
L 258.116031 120.333899 
L 259.08858 118.708948 
L 262.448295 100.143054 
L 270.582341 80.852557 
L 270.994938 81.857527 
L 274.030469 77.551807 
L 274.236768 79.208579 
L 274.826191 87.632729 
L 282.223458 150.003898 
L 282.429756 149.279727 
L 282.636055 147.895516 
L 283.078122 146.433081 
L 288.382935 174.163882 
L 288.825003 184.586859 
L 289.856494 184.535144 
L 291.683708 237.896116 
L 292.302602 237.896116 
L 294.748711 222.025519 
L 297.754771 153.675271 
L 297.96107 151.145364 
L 298.167368 151.212366 
L 298.373666 152.907625 
L 299.581985 154.084273 
L 300.613476 154.084273 
L 300.819774 151.274001 
L 301.615496 97.977103 
L 302.646988 78.677553 
L 302.853286 77.927309 
L 305.505692 76.599311 
L 306.095116 76.68122 
L 307.539204 70.819556 
L 308.953821 53.588708 
L 309.808485 53.568 
L 310.839976 53.568 
L 317.883589 121.292141 
L 323.718883 121.292141 
L 324.986144 121.086149 
L 331.499275 121.046035 
L 332.501295 121.046035 
L 339.515437 114.316332 
L 340.311159 114.436241 
L 340.517457 115.697237 
L 340.723755 117.973177 
L 340.930053 118.736215 
L 341.136352 122.239216 
L 341.961545 132.638612 
L 342.993036 135.005135 
L 343.199335 135.005135 
L 344.407653 136.38566 
L 344.613951 136.448108 
L 345.026548 138.0652 
L 345.439144 140.866365 
L 346.647463 156.610006 
L 347.678954 165.120564 
L 349.123042 177.722719 
L 353.779489 208.524263 
L 361.884064 146.251537 
L 364.094403 203.168472 
L 364.919596 203.183759 
L 365.125894 203.741672 
L 365.951087 202.979068 
L 366.540511 196.1004 
L 366.746809 195.065236 
L 368.397195 194.966794 
L 368.603494 194.769096 
L 371.049602 182.909379 
L 371.2559 182.914312 
L 379.566774 173.963257 
L 398.487273 173.963257 
L 398.487273 173.963257 
" clip-path="url(#p9828ca9716)" style="fill: none; stroke: #ff7f0e; stroke-width: 1.5; stroke-linecap: square"/>
   </g>
   <g id="patch_3">
    <path d="M 57.6 307.584 
L 57.6 41.472 
" style="fill: none; stroke: #000000; stroke-width: 0.8; stroke-linejoin: miter; stroke-linecap: square"/>
   </g>
   <g id="patch_4">
    <path d="M 414.72 307.584 
L 414.72 41.472 
" style="fill: none; stroke: #000000; stroke-width: 0.8; stroke-linejoin: miter; stroke-linecap: square"/>
   </g>
   <g id="patch_5">
    <path d="M 57.6 307.584 
L 414.72 307.584 
" style="fill: none; stroke: #000000; stroke-width: 0.8; stroke-linejoin: miter; stroke-linecap: square"/>
   </g>
   <g id="patch_6">
    <path d="M 57.6 41.472 
L 414.72 41.472 
" style="fill: none; stroke: #000000; stroke-width: 0.8; stroke-linejoin: miter; stroke-linecap: square"/>
   </g>
   <g id="text_14">
    <!-- Overlay of joint position 2 -->
    <g transform="translate(158.678438 35.472) scale(0.12 -0.12)">
     <defs>
      <path id="DejaVuSans-4f" d="M 2522 4238 
Q 1834 4238 1429 3725 
Q 1025 3213 1025 2328 
Q 1025 1447 1429 934 
Q 1834 422 2522 422 
Q 3209 422 3611 934 
Q 4013 1447 4013 2328 
Q 4013 3213 3611 3725 
Q 3209 4238 2522 4238 
z
M 2522 4750 
Q 3503 4750 4090 4092 
Q 4678 3434 4678 2328 
Q 4678 1225 4090 567 
Q 3503 -91 2522 -91 
Q 1538 -91 948 565 
Q 359 1222 359 2328 
Q 359 3434 948 4092 
Q 1538 4750 2522 4750 
z
" transform="scale(0.015625)"/>
      <path id="DejaVuSans-76" d="M 191 3500 
L 800 3500 
L 1894 563 
L 2988 3500 
L 3597 3500 
L 2284 0 
L 1503 0 
L 191 3500 
z
" transform="scale(0.015625)"/>
      <path id="DejaVuSans-6c" d="M 603 4863 
L 1178 4863 
L 1178 0 
L 603 0 
L 603 4863 
z
" transform="scale(0.015625)"/>
      <path id="DejaVuSans-61" d="M 2194 1759 
Q 1497 1759 1228 1600 
Q 959 1441 959 1056 
Q 959 750 1161 570 
Q 1363 391 1709 391 
Q 2188 391 2477 730 
Q 2766 1069 2766 1631 
L 2766 1759 
L 2194 1759 
z
M 3341 1997 
L 3341 0 
L 2766 0 
L 2766 531 
Q 2569 213 2275 61 
Q 1981 -91 1556 -91 
Q 1019 -91 701 211 
Q 384 513 384 1019 
Q 384 1609 779 1909 
Q 1175 2209 1959 2209 
L 2766 2209 
L 2766 2266 
Q 2766 2663 2505 2880 
Q 2244 3097 1772 3097 
Q 1472 3097 1187 3025 
Q 903 2953 641 2809 
L 641 3341 
Q 956 3463 1253 3523 
Q 1550 3584 1831 3584 
Q 2591 3584 2966 3190 
Q 3341 2797 3341 1997 
z
" transform="scale(0.015625)"/>
      <path id="DejaVuSans-79" d="M 2059 -325 
Q 1816 -950 1584 -1140 
Q 1353 -1331 966 -1331 
L 506 -1331 
L 506 -850 
L 844 -850 
Q 1081 -850 1212 -737 
Q 1344 -625 1503 -206 
L 1606 56 
L 191 3500 
L 800 3500 
L 1894 763 
L 2988 3500 
L 3597 3500 
L 2059 -325 
z
" transform="scale(0.015625)"/>
      <path id="DejaVuSans-66" d="M 2375 4863 
L 2375 4384 
L 1825 4384 
Q 1516 4384 1395 4259 
Q 1275 4134 1275 3809 
L 1275 3500 
L 2222 3500 
L 2222 3053 
L 1275 3053 
L 1275 0 
L 697 0 
L 697 3053 
L 147 3053 
L 147 3500 
L 697 3500 
L 697 3744 
Q 697 4328 969 4595 
Q 1241 4863 1831 4863 
L 2375 4863 
z
" transform="scale(0.015625)"/>
      <path id="DejaVuSans-6a" d="M 603 3500 
L 1178 3500 
L 1178 -63 
Q 1178 -731 923 -1031 
Q 669 -1331 103 -1331 
L -116 -1331 
L -116 -844 
L 38 -844 
Q 366 -844 484 -692 
Q 603 -541 603 -63 
L 603 3500 
z
M 603 4863 
L 1178 4863 
L 1178 4134 
L 603 4134 
L 603 4863 
z
" transform="scale(0.015625)"/>
      <path id="DejaVuSans-70" d="M 1159 525 
L 1159 -1331 
L 581 -1331 
L 581 3500 
L 1159 3500 
L 1159 2969 
Q 1341 3281 1617 3432 
Q 1894 3584 2278 3584 
Q 2916 3584 3314 3078 
Q 3713 2572 3713 1747 
Q 3713 922 3314 415 
Q 2916 -91 2278 -91 
Q 1894 -91 1617 61 
Q 1341 213 1159 525 
z
M 3116 1747 
Q 3116 2381 2855 2742 
Q 2594 3103 2138 3103 
Q 1681 3103 1420 2742 
Q 1159 2381 1159 1747 
Q 1159 1113 1420 752 
Q 1681 391 2138 391 
Q 2594 391 2855 752 
Q 3116 1113 3116 1747 
z
" transform="scale(0.015625)"/>
     </defs>
     <use xlink:href="#DejaVuSans-4f"/>
     <use xlink:href="#DejaVuSans-76" x="78.710938"/>
     <use xlink:href="#DejaVuSans-65" x="137.890625"/>
     <use xlink:href="#DejaVuSans-72" x="199.414062"/>
     <use xlink:href="#DejaVuSans-6c" x="240.527344"/>
     <use xlink:href="#DejaVuSans-61" x="268.310547"/>
     <use xlink:href="#DejaVuSans-79" x="329.589844"/>
     <use xlink:href="#DejaVuSans-20" x="388.769531"/>
     <use xlink:href="#DejaVuSans-6f" x="420.556641"/>
     <use xlink:href="#DejaVuSans-66" x="481.738281"/>
     <use xlink:href="#DejaVuSans-20" x="516.943359"/>
     <use xlink:href="#DejaVuSans-6a" x="548.730469"/>
     <use xlink:href="#DejaVuSans-6f" x="576.513672"/>
     <use xlink:href="#DejaVuSans-69" x="637.695312"/>
     <use xlink:href="#DejaVuSans-6e" x="665.478516"/>
     <use xlink:href="#DejaVuSans-74" x="728.857422"/>
     <use xlink:href="#DejaVuSans-20" x="768.066406"/>
     <use xlink:href="#DejaVuSans-70" x="799.853516"/>
     <use xlink:href="#DejaVuSans-6f" x="863.330078"/>
     <use xlink:href="#DejaVuSans-73" x="924.511719"/>
     <use xlink:href="#DejaVuSans-69" x="976.611328"/>
     <use xlink:href="#DejaVuSans-74" x="1004.394531"/>
     <use xlink:href="#DejaVuSans-69" x="1043.603516"/>
     <use xlink:href="#DejaVuSans-6f" x="1071.386719"/>
     <use xlink:href="#DejaVuSans-6e" x="1132.568359"/>
     <use xlink:href="#DejaVuSans-20" x="1195.947266"/>
     <use xlink:href="#DejaVuSans-32" x="1227.734375"/>
    </g>
   </g>
   <g id="legend_1">
    <g id="patch_7">
     <path d="M 359.48875 78.82825 
L 407.72 78.82825 
Q 409.72 78.82825 409.72 76.82825 
L 409.72 48.472 
Q 409.72 46.472 407.72 46.472 
L 359.48875 46.472 
Q 357.48875 46.472 357.48875 48.472 
L 357.48875 76.82825 
Q 357.48875 78.82825 359.48875 78.82825 
z
" style="fill: #ffffff; opacity: 0.8; stroke: #cccccc; stroke-linejoin: miter"/>
    </g>
    <g id="line2d_14">
     <path d="M 361.48875 54.570437 
L 371.48875 54.570437 
L 381.48875 54.570437 
" style="fill: none; stroke: #1f77b4; stroke-width: 1.5; stroke-linecap: square"/>
    </g>
    <g id="text_15">
     <!-- df1 -->
     <g transform="translate(389.48875 58.070437) scale(0.1 -0.1)">
      <use xlink:href="#DejaVuSans-64"/>
      <use xlink:href="#DejaVuSans-66" x="63.476562"/>
      <use xlink:href="#DejaVuSans-31" x="98.681641"/>
     </g>
    </g>
    <g id="line2d_15">
     <path d="M 361.48875 69.248562 
L 371.48875 69.248562 
L 381.48875 69.248562 
" style="fill: none; stroke: #ff7f0e; stroke-width: 1.5; stroke-linecap: square"/>
    </g>
    <g id="text_16">
     <!-- df2 -->
     <g transform="translate(389.48875 72.748562) scale(0.1 -0.1)">
      <use xlink:href="#DejaVuSans-64"/>
      <use xlink:href="#DejaVuSans-66" x="63.476562"/>
      <use xlink:href="#DejaVuSans-32" x="98.681641"/>
     </g>
    </g>
   </g>
  </g>
 </g>
 <defs>
  <clipPath id="p9828ca9716">
   <rect x="57.6" y="41.472" width="357.12" height="266.112"/>
  </clipPath>
 </defs>
</svg>
