<?xml version="1.0" encoding="utf-8" standalone="no"?>
<!DOCTYPE svg PUBLIC "-//W3C//DTD SVG 1.1//EN"
  "http://www.w3.org/Graphics/SVG/1.1/DTD/svg11.dtd">
<svg xmlns:xlink="http://www.w3.org/1999/xlink" width="460.8pt" height="345.6pt" viewBox="0 0 460.8 345.6" xmlns="http://www.w3.org/2000/svg" version="1.1">
 <metadata>
  <rdf:RDF xmlns:dc="http://purl.org/dc/elements/1.1/" xmlns:cc="http://creativecommons.org/ns#" xmlns:rdf="http://www.w3.org/1999/02/22-rdf-syntax-ns#">
   <cc:Work>
    <dc:type rdf:resource="http://purl.org/dc/dcmitype/StillImage"/>
    <dc:date>2024-05-17T15:20:50.793280</dc:date>
    <dc:format>image/svg+xml</dc:format>
    <dc:creator>
     <cc:Agent>
      <dc:title>Matplotlib v3.5.2, https://matplotlib.org/</dc:title>
     </cc:Agent>
    </dc:creator>
   </cc:Work>
  </rdf:RDF>
 </metadata>
 <defs>
  <style type="text/css">*{stroke-linejoin: round; stroke-linecap: butt}</style>
 </defs>
 <g id="figure_1">
  <g id="patch_1">
   <path d="M 0 345.6 
L 460.8 345.6 
L 460.8 0 
L 0 0 
z
" style="fill: #ffffff"/>
  </g>
  <g id="axes_1">
   <g id="patch_2">
    <path d="M 57.6 307.584 
L 414.72 307.584 
L 414.72 41.472 
L 57.6 41.472 
z
" style="fill: #ffffff"/>
   </g>
   <g id="PolyCollection_1">
    <defs>
     <path id="m75b9640984" d="M 73.832727 -101.123927 
L 73.832727 -100.366049 
L 84.83548 -100.366049 
L 84.982183 -100.366049 
L 85.128886 -100.366049 
L 85.27559 -100.366049 
L 85.422293 -100.366049 
L 85.568996 -100.366049 
L 87.109382 -100.366049 
L 87.256085 -100.366049 
L 87.402788 -100.366049 
L 87.549492 -100.366049 
L 87.696195 -100.366049 
L 87.842899 -100.366049 
L 87.989602 -100.366049 
L 88.136305 -100.366049 
L 88.943174 -100.366049 
L 89.089877 -100.366049 
L 89.236581 -100.366049 
L 89.383284 -100.366049 
L 89.529987 -100.366049 
L 89.676691 -100.366049 
L 89.823394 -100.366049 
L 89.970097 -100.366049 
L 90.116801 -100.366049 
L 91.070373 -100.366049 
L 91.217076 -100.366049 
L 91.363779 -100.366049 
L 91.510483 -100.366049 
L 91.657186 -100.366049 
L 91.803889 -100.366049 
L 91.950593 -100.366049 
L 92.097296 -100.366049 
L 92.244 -100.366049 
L 92.390703 -100.366049 
L 93.197571 -100.366049 
L 93.344275 -100.366049 
L 93.490978 -100.366049 
L 93.637681 -100.366049 
L 93.784385 -100.366049 
L 93.931088 -100.366049 
L 94.077792 -100.366049 
L 94.224495 -100.366049 
L 94.371198 -100.366049 
L 94.517902 -100.366049 
L 95.32477 -100.366049 
L 95.471474 -100.366049 
L 95.618177 -100.366049 
L 95.76488 -100.366049 
L 95.911584 -100.366049 
L 96.058287 -100.366049 
L 96.20499 -100.366049 
L 96.351694 -100.366049 
L 96.498397 -100.366049 
L 96.6451 -100.366049 
L 96.791804 -100.366049 
L 96.938507 -100.366049 
L 97.305266 -100.366049 
L 97.451969 -100.366049 
L 97.598672 -100.366049 
L 97.745376 -100.366049 
L 97.892079 -100.366049 
L 98.038782 -100.366049 
L 98.185486 -100.366049 
L 98.332189 -100.366049 
L 98.478892 -100.366049 
L 98.625596 -100.366049 
L 98.772299 -100.366049 
L 98.919003 -100.366049 
L 99.285761 -100.366049 
L 99.432464 -100.366049 
L 99.579168 -100.366049 
L 99.725871 -100.366049 
L 99.872574 -100.366049 
L 100.019278 -100.366049 
L 100.165981 -100.366049 
L 100.312685 -100.366049 
L 100.459388 -100.366049 
L 100.606091 -100.366049 
L 100.752795 -100.366049 
L 100.899498 -100.366049 
L 101.046201 -100.366049 
L 101.266256 -100.366049 
L 101.41296 -100.366049 
L 101.559663 -100.366049 
L 101.706367 -100.366049 
L 101.85307 -100.366049 
L 101.999773 -100.366049 
L 102.146477 -100.366049 
L 102.29318 -100.366049 
L 102.439883 -100.366049 
L 102.586587 -100.366049 
L 102.73329 -100.366049 
L 102.879993 -100.366049 
L 103.026697 -100.366049 
L 103.393455 -100.366049 
L 103.540159 -100.366049 
L 103.686862 -100.366049 
L 103.833565 -100.366049 
L 103.980269 -100.366049 
L 104.126972 -100.366049 
L 104.273675 -100.366049 
L 104.420379 -100.366049 
L 104.567082 -100.366049 
L 104.713785 -100.366049 
L 104.860489 -100.366049 
L 105.007192 -100.366049 
L 105.667357 -100.366049 
L 105.814061 -100.366049 
L 105.960764 -100.366049 
L 106.107467 -100.366049 
L 106.840984 -100.365648 
L 107.501149 -100.348013 
L 123.858575 -98.31645 
L 124.95885 -98.138903 
L 128.259675 -97.457574 
L 137.355284 -95.033645 
L 139.335779 -94.606411 
L 141.022868 -93.983596 
L 141.609682 -93.669784 
L 141.903088 -93.508269 
L 142.709957 -93.038552 
L 143.003364 -92.883049 
L 143.29677 -92.725541 
L 144.837156 -91.783704 
L 145.130562 -91.620986 
L 145.423969 -91.458269 
L 147.331113 -90.170957 
L 147.551168 -90.007038 
L 148.06463 -89.688416 
L 149.38496 -88.700088 
L 149.605015 -88.543382 
L 149.82507 -88.374653 
L 150.851994 -87.536217 
L 151.072049 -87.365083 
L 151.292104 -87.20477 
L 152.832489 -85.843715 
L 153.052544 -85.662561 
L 153.932764 -84.83695 
L 154.152819 -84.662209 
L 154.519578 -84.313529 
L 155.546501 -83.270294 
L 155.766556 -83.097958 
L 155.91326 -82.911193 
L 156.133315 -82.731643 
L 156.500073 -82.379756 
L 156.866832 -82.029874 
L 157.23359 -81.692816 
L 157.600348 -81.348144 
L 157.967107 -80.981428 
L 158.333865 -80.626736 
L 158.700624 -80.265231 
L 158.847327 -80.08568 
L 159.067382 -79.90613 
L 159.214085 -79.732992 
L 159.43414 -79.545026 
L 159.580844 -79.363872 
L 159.800899 -79.18833 
L 159.947602 -79.007978 
L 160.314361 -78.646472 
L 160.681119 -78.287372 
L 161.047877 -77.933081 
L 161.414636 -77.573178 
L 161.781394 -77.210871 
L 162.148153 -76.844557 
L 162.514911 -76.478643 
L 162.881669 -76.11353 
L 163.248428 -75.756835 
L 163.615186 -75.400539 
L 163.981945 -75.023003 
L 164.348703 -74.661097 
L 164.715462 -74.290774 
L 165.08222 -73.926864 
L 165.448978 -73.565359 
L 165.815737 -73.194636 
L 166.182495 -72.832329 
L 166.549254 -72.455193 
L 173.517663 -65.318869 
L 175.864917 -65.061968 
L 176.231676 -65.023894 
L 180.045963 -64.620307 
L 188.701462 -63.700913 
L 189.361627 -63.57667 
L 193.249266 -62.563494 
L 193.469321 -62.555077 
L 194.129486 -62.549065 
L 194.349541 -62.548665 
L 195.009706 -62.548665 
L 195.669871 -62.548665 
L 196.330037 -62.548665 
L 196.990202 -62.547863 
L 197.35696 -62.547863 
L 197.503663 -62.547863 
L 197.650367 -62.547863 
L 197.870422 -62.547863 
L 198.017125 -62.547863 
L 198.163829 -62.547863 
L 198.310532 -62.547462 
L 198.530587 -62.547462 
L 198.67729 -62.547462 
L 198.823994 -62.547462 
L 199.190752 -62.547462 
L 199.337456 -62.547462 
L 199.484159 -62.547462 
L 199.704214 -62.547462 
L 199.850917 -62.547462 
L 199.997621 -62.547462 
L 200.217676 -62.547462 
L 200.364379 -62.547462 
L 201.317951 -62.547062 
L 201.684709 -62.547062 
L 201.831413 -62.547062 
L 202.198171 -62.547062 
L 203.151743 -62.547062 
L 204.105315 -62.547062 
L 204.252018 -62.547062 
L 204.472073 -62.547062 
L 204.838832 -62.547062 
L 205.20559 -62.547062 
L 205.572349 -62.547062 
L 205.939107 -62.547062 
L 206.305865 -62.547062 
L 206.672624 -62.547062 
L 207.259437 -62.547062 
L 207.406141 -62.547062 
L 207.626196 -62.547062 
L 207.772899 -62.547062 
L 207.992954 -62.547062 
L 208.359712 -62.547062 
L 208.799823 -62.547062 
L 209.753394 -62.546661 
L 209.900098 -62.546661 
L 210.85367 -62.546661 
L 211.220428 -62.546661 
L 211.367131 -62.546661 
L 211.73389 -62.546661 
L 212.980868 -62.546661 
L 213.127572 -62.546661 
L 213.274275 -62.546661 
L 214.154495 -62.546661 
L 214.301199 -62.546661 
L 214.447902 -62.546661 
L 214.594605 -62.546661 
L 214.961364 -62.546661 
L 215.108067 -62.546661 
L 222.443235 -62.546661 
L 224.130324 -62.54626 
L 224.277027 -62.54626 
L 225.964116 -62.54626 
L 227.357798 -62.54626 
L 227.504501 -62.54626 
L 227.651205 -62.54626 
L 227.797908 -62.54626 
L 246.575939 -62.51059 
L 246.722642 -62.499769 
L 247.236104 -62.45889 
L 247.749566 -62.417609 
L 247.896269 -62.403982 
L 248.263028 -62.374725 
L 248.409731 -62.358694 
L 248.923193 -62.307795 
L 249.583358 -62.216416 
L 250.09682 -62.102594 
L 251.123743 -61.735879 
L 251.490502 -61.550317 
L 252.150667 -61.240112 
L 252.810832 -60.924696 
L 253.470997 -60.606075 
L 253.691052 -60.50107 
L 253.837755 -60.400073 
L 256.258361 -59.148431 
L 256.478416 -59.034208 
L 256.918526 -58.814178 
L 257.138581 -58.70717 
L 257.358636 -58.605371 
L 257.798746 -58.344462 
L 258.238856 -58.14367 
L 258.458911 -58.089965 
L 258.899021 -58.013817 
L 259.339132 -57.996583 
L 259.779242 -57.993778 
L 260.439407 -57.991774 
L 260.879517 -57.990972 
L 261.02622 -57.990972 
L 261.172924 -57.990572 
L 262.273199 -57.989369 
L 262.566606 -57.988968 
L 262.860012 -57.987766 
L 264.400398 -57.869135 
L 264.693804 -57.814227 
L 266.087486 -57.479174 
L 266.380893 -57.36936 
L 266.6743 -57.263954 
L 267.627872 -56.986212 
L 269.094905 -56.83151 
L 269.608367 -56.802654 
L 270.048477 -56.786222 
L 270.488587 -56.782214 
L 270.708642 -56.781412 
L 271.295456 -56.778607 
L 272.175676 -56.777405 
L 272.395731 -56.776202 
L 274.302875 -56.527717 
L 274.52293 -56.473211 
L 274.742985 -56.412292 
L 275.109743 -56.31891 
L 275.549853 -56.257991 
L 276.72348 -56.18585 
L 276.943535 -56.143768 
L 277.383645 -56.033153 
L 278.190514 -55.789076 
L 278.630624 -55.515342 
L 279.290789 -55.210347 
L 279.437493 -55.087307 
L 279.584196 -54.971882 
L 279.730899 -54.83762 
L 279.877603 -54.721393 
L 280.244361 -54.565088 
L 280.684471 -54.395157 
L 280.831174 -54.307385 
L 280.977878 -54.214805 
L 281.124581 -54.145069 
L 281.271285 -54.091765 
L 281.417988 -54.052087 
L 281.564691 -54.022029 
L 281.784746 -53.987561 
L 281.93145 -53.95109 
L 282.078153 -53.911012 
L 282.224856 -53.872537 
L 282.37156 -53.834062 
L 282.518263 -53.801599 
L 282.664967 -53.767933 
L 283.031725 -53.682967 
L 283.178428 -53.646095 
L 283.325132 -53.616838 
L 283.471835 -53.598001 
L 283.618538 -53.584375 
L 283.765242 -53.575958 
L 284.865517 -53.517444 
L 285.01222 -53.514639 
L 285.158924 -53.512635 
L 286.552606 -53.330279 
L 286.699309 -53.264551 
L 289.486673 -52.719087 
L 289.633376 -52.708265 
L 290.440245 -52.74153 
L 290.586948 -52.759566 
L 290.733652 -52.784414 
L 290.880355 -52.808461 
L 291.027058 -52.828099 
L 291.173762 -52.840924 
L 291.687223 -52.855753 
L 291.833927 -52.856154 
L 291.98063 -52.856555 
L 292.127334 -52.856555 
L 292.274037 -52.856956 
L 294.988049 -52.858158 
L 311.638881 -52.858959 
L 311.785584 -52.858959 
L 311.932288 -52.858959 
L 313.472673 -52.858959 
L 315.159762 -52.858959 
L 316.626795 -52.858959 
L 316.773499 -52.858959 
L 316.920202 -52.858959 
L 318.313884 -52.858959 
L 318.460587 -52.858959 
L 318.607291 -52.858959 
L 318.753994 -52.858959 
L 319.854269 -52.858959 
L 320.000973 -52.858959 
L 320.147676 -52.858959 
L 320.294379 -52.858959 
L 320.441083 -52.858959 
L 320.587786 -52.858959 
L 321.394655 -52.858959 
L 321.541358 -52.858959 
L 321.688061 -52.858959 
L 321.834765 -52.858959 
L 322.93504 -52.858959 
L 341.859774 -52.948334 
L 342.666643 -52.950739 
L 342.813346 -52.954346 
L 342.960049 -52.959556 
L 343.620214 -52.99242 
L 343.766918 -53.005245 
L 343.913621 -53.026086 
L 344.353731 -53.128285 
L 344.647138 -53.213652 
L 344.940545 -53.309038 
L 345.1606 -53.40763 
L 345.454006 -53.504218 
L 345.747413 -53.596799 
L 346.260875 -53.728656 
L 347.36115 -53.769937 
L 347.947964 -53.844482 
L 348.168019 -53.907004 
L 348.461425 -53.991168 
L 350.661976 -54.090162 
L 351.322141 -53.952693 
L 351.615548 -53.940269 
L 352.275713 -53.944277 
L 352.422416 -53.943876 
L 352.56912 -53.943075 
L 352.715823 -53.943075 
L 352.862526 -53.943075 
L 353.229285 -53.942674 
L 353.375988 -53.942674 
L 353.522692 -53.942273 
L 353.669395 -53.942273 
L 353.816098 -53.942273 
L 353.962802 -53.941472 
L 354.109505 -53.937464 
L 354.476263 -53.886164 
L 354.622967 -53.832459 
L 355.20978 -53.474961 
L 355.503187 -53.259341 
L 355.796594 -53.036506 
L 355.943297 -52.925088 
L 356.163352 -52.81287 
L 356.310055 -52.697444 
L 356.456759 -52.588832 
L 356.603462 -52.480221 
L 356.750166 -52.375616 
L 356.896869 -52.25458 
L 357.043572 -52.141961 
L 357.410331 -51.907503 
L 357.557034 -51.800494 
L 357.703737 -51.683466 
L 357.850441 -51.572049 
L 357.997144 -51.462234 
L 358.143848 -51.34721 
L 358.290551 -51.236594 
L 358.950716 -50.782508 
L 359.097419 -50.673496 
L 359.244123 -50.560074 
L 359.390826 -50.447454 
L 359.537529 -50.327621 
L 359.684233 -50.21941 
L 359.830936 -50.112 
L 378.462263 -50.454669 
L 378.975725 -50.536829 
L 379.489187 -50.872684 
L 379.63589 -51.014962 
L 380.882869 -52.164805 
L 381.029572 -52.33634 
L 381.176276 -52.506672 
L 381.322979 -52.670191 
L 381.836441 -53.190005 
L 382.569958 -53.882957 
L 382.716661 -54.050484 
L 382.863364 -54.211198 
L 383.376826 -54.661276 
L 383.52353 -54.661276 
L 384.770508 -54.661276 
L 387.411169 -54.662478 
L 387.557872 -54.662879 
L 388.951554 -54.667288 
L 389.098257 -54.668089 
L 390.345236 -54.668891 
L 390.491939 -54.669292 
L 390.638643 -54.669292 
L 390.785346 -54.669292 
L 390.932049 -54.669292 
L 392.179028 -54.669692 
L 392.325731 -54.669692 
L 392.472435 -54.670093 
L 392.619138 -54.670093 
L 392.765842 -54.670093 
L 392.912545 -54.670093 
L 394.159523 -54.670895 
L 394.306227 -54.671295 
L 394.45293 -54.671295 
L 398.193866 -54.676105 
L 398.340569 -54.676105 
L 398.487273 -54.676105 
L 398.487273 -55.476066 
L 398.487273 -55.476066 
L 398.340569 -55.476066 
L 398.193866 -55.476066 
L 394.45293 -55.474062 
L 394.306227 -55.474062 
L 394.159523 -55.473661 
L 392.912545 -55.473661 
L 392.765842 -55.47326 
L 392.619138 -55.47326 
L 392.472435 -55.472859 
L 392.325731 -55.472859 
L 392.179028 -55.472058 
L 390.932049 -55.467248 
L 390.785346 -55.467248 
L 390.638643 -55.467248 
L 390.491939 -55.466848 
L 390.345236 -55.466848 
L 389.098257 -55.466447 
L 388.951554 -55.466447 
L 387.557872 -55.465645 
L 387.411169 -55.465645 
L 384.770508 -55.460435 
L 383.52353 -54.888519 
L 383.376826 -54.720992 
L 382.863364 -54.661276 
L 382.716661 -54.661276 
L 382.569958 -54.661276 
L 381.836441 -54.661276 
L 381.322979 -54.661276 
L 381.176276 -54.660474 
L 381.029572 -54.65807 
L 380.882869 -54.650455 
L 379.63589 -53.923837 
L 379.489187 -53.753906 
L 378.975725 -53.241305 
L 378.462263 -52.736721 
L 359.830936 -53.718637 
L 359.684233 -53.823642 
L 359.537529 -53.934257 
L 359.390826 -54.04848 
L 359.244123 -54.156291 
L 359.097419 -54.262498 
L 358.950716 -54.363495 
L 358.290551 -54.667688 
L 358.143848 -54.702957 
L 357.997144 -54.719389 
L 357.850441 -54.723798 
L 357.703737 -54.724599 
L 357.557034 -54.724599 
L 357.410331 -54.725 
L 357.043572 -54.725 
L 356.896869 -54.725 
L 356.750166 -54.725401 
L 356.603462 -54.725401 
L 356.456759 -54.726203 
L 356.310055 -54.726603 
L 356.163352 -54.726603 
L 355.943297 -54.725401 
L 355.796594 -54.723798 
L 355.503187 -54.722996 
L 355.20978 -54.735821 
L 354.622967 -54.836418 
L 354.476263 -54.876496 
L 354.109505 -54.94543 
L 353.962802 -54.961862 
L 353.816098 -54.971481 
L 353.669395 -54.980298 
L 353.522692 -54.995127 
L 353.375988 -55.014766 
L 353.229285 -55.036007 
L 352.862526 -55.05805 
L 352.715823 -55.05805 
L 352.56912 -55.057649 
L 352.422416 -55.057649 
L 352.275713 -55.056046 
L 351.615548 -55.010357 
L 351.322141 -54.945831 
L 350.661976 -54.750249 
L 348.461425 -54.275323 
L 348.168019 -54.261696 
L 347.947964 -54.24807 
L 347.36115 -54.124629 
L 346.260875 -53.789976 
L 345.747413 -53.727454 
L 345.454006 -53.725851 
L 345.1606 -53.723045 
L 344.940545 -53.721041 
L 344.647138 -53.711823 
L 344.353731 -53.696594 
L 343.913621 -53.672547 
L 343.766918 -53.665333 
L 343.620214 -53.659722 
L 342.960049 -53.642889 
L 342.813346 -53.642889 
L 342.666643 -53.642889 
L 341.859774 -53.642889 
L 322.93504 -53.642889 
L 321.834765 -53.642889 
L 321.688061 -53.642889 
L 321.541358 -53.642889 
L 321.394655 -53.642889 
L 320.587786 -53.642889 
L 320.441083 -53.642889 
L 320.294379 -53.642889 
L 320.147676 -53.642889 
L 320.000973 -53.642889 
L 319.854269 -53.642889 
L 318.753994 -53.642889 
L 318.607291 -53.642889 
L 318.460587 -53.642889 
L 318.313884 -53.642889 
L 316.920202 -53.642889 
L 316.773499 -53.642889 
L 316.626795 -53.642889 
L 315.159762 -53.642889 
L 313.472673 -53.642889 
L 311.932288 -53.642889 
L 311.785584 -53.642889 
L 311.638881 -53.642889 
L 294.988049 -53.623651 
L 292.274037 -53.789174 
L 292.127334 -53.820035 
L 291.98063 -53.83326 
L 291.833927 -53.839272 
L 291.687223 -53.84328 
L 291.173762 -53.87414 
L 291.027058 -53.894981 
L 290.880355 -53.923837 
L 290.733652 -53.959106 
L 290.586948 -53.998383 
L 290.440245 -54.054091 
L 289.633376 -54.286946 
L 289.486673 -54.293759 
L 286.699309 -54.466095 
L 286.552606 -54.506975 
L 285.158924 -54.833211 
L 285.01222 -54.871686 
L 284.865517 -54.927395 
L 283.765242 -55.421158 
L 283.618538 -55.510533 
L 283.471835 -55.629966 
L 283.325132 -55.758617 
L 283.178428 -55.88326 
L 283.031725 -55.996681 
L 282.664967 -56.161804 
L 282.518263 -56.229536 
L 282.37156 -56.298871 
L 282.224856 -56.369008 
L 282.078153 -56.463993 
L 281.93145 -56.570601 
L 281.784746 -56.668392 
L 281.564691 -56.742537 
L 281.417988 -56.779008 
L 281.271285 -56.797043 
L 281.124581 -56.815078 
L 280.977878 -56.843133 
L 280.831174 -56.880406 
L 280.684471 -56.918881 
L 280.244361 -57.001041 
L 279.877603 -57.025889 
L 279.730899 -57.027893 
L 279.584196 -57.029897 
L 279.437493 -57.033905 
L 279.290789 -57.041119 
L 278.630624 -57.133299 
L 278.190514 -57.244316 
L 277.383645 -57.437092 
L 276.943535 -57.485586 
L 276.72348 -57.505625 
L 275.549853 -57.561334 
L 275.109743 -57.561334 
L 274.742985 -57.562937 
L 274.52293 -57.563739 
L 274.302875 -57.56454 
L 272.395731 -57.623856 
L 272.175676 -57.627864 
L 271.295456 -57.727659 
L 270.708642 -57.911217 
L 270.488587 -57.957707 
L 270.048477 -58.105997 
L 269.608367 -58.274726 
L 269.094905 -58.423015 
L 267.627872 -58.703563 
L 266.6743 -58.770493 
L 266.380893 -58.77891 
L 266.087486 -58.780112 
L 264.693804 -58.780914 
L 264.400398 -58.781314 
L 262.860012 -58.78933 
L 262.566606 -58.796945 
L 262.273199 -58.820992 
L 261.172924 -59.217766 
L 261.02622 -59.302331 
L 260.879517 -59.393709 
L 260.439407 -59.612536 
L 259.779242 -59.949193 
L 259.339132 -60.193269 
L 258.899021 -60.42452 
L 258.458911 -60.657375 
L 258.238856 -60.773201 
L 257.798746 -60.994432 
L 257.358636 -61.200434 
L 257.138581 -61.302634 
L 256.918526 -61.407638 
L 256.478416 -61.622458 
L 256.258361 -61.724256 
L 253.837755 -62.813982 
L 253.691052 -62.866084 
L 253.470997 -62.914178 
L 252.810832 -63.058059 
L 252.150667 -63.137413 
L 251.490502 -63.193523 
L 251.123743 -63.21757 
L 250.09682 -63.298528 
L 249.583358 -63.33059 
L 248.923193 -63.341411 
L 248.409731 -63.341411 
L 248.263028 -63.341411 
L 247.896269 -63.341411 
L 247.749566 -63.341411 
L 247.236104 -63.341411 
L 246.722642 -63.341411 
L 246.575939 -63.341411 
L 227.797908 -63.341812 
L 227.651205 -63.341812 
L 227.504501 -63.341812 
L 227.357798 -63.341812 
L 225.964116 -63.341812 
L 224.277027 -63.341812 
L 224.130324 -63.341812 
L 222.443235 -63.341812 
L 215.108067 -63.342213 
L 214.961364 -63.342213 
L 214.594605 -63.342213 
L 214.447902 -63.342213 
L 214.301199 -63.342213 
L 214.154495 -63.342213 
L 213.274275 -63.342213 
L 213.127572 -63.342213 
L 212.980868 -63.342213 
L 211.73389 -63.342213 
L 211.367131 -63.342213 
L 211.220428 -63.342213 
L 210.85367 -63.342213 
L 209.900098 -63.342213 
L 209.753394 -63.342213 
L 208.799823 -63.342213 
L 208.359712 -63.342213 
L 207.992954 -63.342213 
L 207.772899 -63.342213 
L 207.626196 -63.342213 
L 207.406141 -63.342213 
L 207.259437 -63.342213 
L 206.672624 -63.342213 
L 206.305865 -63.342213 
L 205.939107 -63.342213 
L 205.572349 -63.342213 
L 205.20559 -63.342213 
L 204.838832 -63.342213 
L 204.472073 -63.342213 
L 204.252018 -63.342614 
L 204.105315 -63.342614 
L 203.151743 -63.342614 
L 202.198171 -63.343014 
L 201.831413 -63.343014 
L 201.684709 -63.343014 
L 201.317951 -63.343014 
L 200.364379 -63.343415 
L 200.217676 -63.343415 
L 199.997621 -63.343415 
L 199.850917 -63.343816 
L 199.704214 -63.343816 
L 199.484159 -63.343816 
L 199.337456 -63.344217 
L 199.190752 -63.344217 
L 198.823994 -63.345018 
L 198.67729 -63.345419 
L 198.530587 -63.345419 
L 198.310532 -63.346221 
L 198.163829 -63.346221 
L 198.017125 -63.346622 
L 197.870422 -63.347423 
L 197.650367 -63.348225 
L 197.503663 -63.349828 
L 197.35696 -63.351431 
L 196.990202 -63.355038 
L 196.330037 -63.382291 
L 195.669871 -63.487697 
L 195.009706 -63.620756 
L 194.349541 -63.782672 
L 194.129486 -63.854813 
L 193.469321 -64.098488 
L 193.249266 -64.188664 
L 189.361627 -64.83232 
L 188.701462 -64.914881 
L 180.045963 -65.738488 
L 176.231676 -66.378938 
L 175.864917 -66.746054 
L 173.517663 -69.169582 
L 166.549254 -76.200099 
L 166.182495 -76.560002 
L 165.815737 -76.919503 
L 165.448978 -77.286218 
L 165.08222 -77.649327 
L 164.715462 -78.008027 
L 164.348703 -78.367127 
L 163.981945 -78.729835 
L 163.615186 -79.088134 
L 163.248428 -79.458457 
L 162.881669 -79.81395 
L 162.514911 -80.182269 
L 162.148153 -80.540167 
L 161.781394 -80.908085 
L 161.414636 -81.257567 
L 161.047877 -81.60264 
L 160.681119 -81.944106 
L 160.314361 -82.299199 
L 159.947602 -82.649483 
L 159.800899 -82.829033 
L 159.580844 -83.000568 
L 159.43414 -83.179316 
L 159.214085 -83.362874 
L 159.067382 -83.532806 
L 158.847327 -83.709551 
L 158.700624 -83.87828 
L 158.333865 -84.232972 
L 157.967107 -84.578446 
L 157.600348 -84.929932 
L 157.23359 -85.267791 
L 156.866832 -85.608055 
L 156.500073 -85.946315 
L 156.133315 -86.284174 
L 155.91326 -86.451701 
L 155.766556 -86.626442 
L 155.546501 -86.79998 
L 154.519578 -87.630801 
L 154.152819 -87.962248 
L 153.932764 -88.134584 
L 153.052544 -88.809902 
L 152.832489 -88.972619 
L 151.292104 -90.134486 
L 151.072049 -90.295601 
L 150.851994 -90.460723 
L 149.82507 -91.118807 
L 149.605015 -91.27431 
L 149.38496 -91.432218 
L 148.06463 -92.247008 
L 147.551168 -92.563626 
L 147.331113 -92.713919 
L 145.423969 -93.825688 
L 145.130562 -93.988405 
L 144.837156 -94.146314 
L 143.29677 -94.92343 
L 143.003364 -95.070917 
L 142.709957 -95.211993 
L 141.903088 -95.396753 
L 141.609682 -95.447252 
L 141.022868 -95.573498 
L 139.335779 -95.949832 
L 137.355284 -96.509725 
L 128.259675 -98.744084 
L 124.95885 -99.297965 
L 123.858575 -99.461083 
L 107.501149 -101.123927 
L 106.840984 -101.123927 
L 106.107467 -101.123927 
L 105.960764 -101.123927 
L 105.814061 -101.123927 
L 105.667357 -101.123927 
L 105.007192 -101.123927 
L 104.860489 -101.123927 
L 104.713785 -101.123927 
L 104.567082 -101.123927 
L 104.420379 -101.123927 
L 104.273675 -101.123927 
L 104.126972 -101.123927 
L 103.980269 -101.123927 
L 103.833565 -101.123927 
L 103.686862 -101.123927 
L 103.540159 -101.123927 
L 103.393455 -101.123927 
L 103.026697 -101.123927 
L 102.879993 -101.123927 
L 102.73329 -101.123927 
L 102.586587 -101.123927 
L 102.439883 -101.123927 
L 102.29318 -101.123927 
L 102.146477 -101.123927 
L 101.999773 -101.123927 
L 101.85307 -101.123927 
L 101.706367 -101.123927 
L 101.559663 -101.123927 
L 101.41296 -101.123927 
L 101.266256 -101.123927 
L 101.046201 -101.123927 
L 100.899498 -101.123927 
L 100.752795 -101.123927 
L 100.606091 -101.123927 
L 100.459388 -101.123927 
L 100.312685 -101.123927 
L 100.165981 -101.123927 
L 100.019278 -101.123927 
L 99.872574 -101.123927 
L 99.725871 -101.123927 
L 99.579168 -101.123927 
L 99.432464 -101.123927 
L 99.285761 -101.123927 
L 98.919003 -101.123927 
L 98.772299 -101.123927 
L 98.625596 -101.123927 
L 98.478892 -101.123927 
L 98.332189 -101.123927 
L 98.185486 -101.123927 
L 98.038782 -101.123927 
L 97.892079 -101.123927 
L 97.745376 -101.123927 
L 97.598672 -101.123927 
L 97.451969 -101.123927 
L 97.305266 -101.123927 
L 96.938507 -101.123927 
L 96.791804 -101.123927 
L 96.6451 -101.123927 
L 96.498397 -101.123927 
L 96.351694 -101.123927 
L 96.20499 -101.123927 
L 96.058287 -101.123927 
L 95.911584 -101.123927 
L 95.76488 -101.123927 
L 95.618177 -101.123927 
L 95.471474 -101.123927 
L 95.32477 -101.123927 
L 94.517902 -101.123927 
L 94.371198 -101.123927 
L 94.224495 -101.123927 
L 94.077792 -101.123927 
L 93.931088 -101.123927 
L 93.784385 -101.123927 
L 93.637681 -101.123927 
L 93.490978 -101.123927 
L 93.344275 -101.123927 
L 93.197571 -101.123927 
L 92.390703 -101.123927 
L 92.244 -101.123927 
L 92.097296 -101.123927 
L 91.950593 -101.123927 
L 91.803889 -101.123927 
L 91.657186 -101.123927 
L 91.510483 -101.123927 
L 91.363779 -101.123927 
L 91.217076 -101.123927 
L 91.070373 -101.123927 
L 90.116801 -101.123927 
L 89.970097 -101.123927 
L 89.823394 -101.123927 
L 89.676691 -101.123927 
L 89.529987 -101.123927 
L 89.383284 -101.123927 
L 89.236581 -101.123927 
L 89.089877 -101.123927 
L 88.943174 -101.123927 
L 88.136305 -101.123927 
L 87.989602 -101.123927 
L 87.842899 -101.123927 
L 87.696195 -101.123927 
L 87.549492 -101.123927 
L 87.402788 -101.123927 
L 87.256085 -101.123927 
L 87.109382 -101.123927 
L 85.568996 -101.123927 
L 85.422293 -101.123927 
L 85.27559 -101.123927 
L 85.128886 -101.123927 
L 84.982183 -101.123927 
L 84.83548 -101.123927 
L 73.832727 -101.123927 
z
" style="stroke: #ff0000; stroke-opacity: 0.3"/>
    </defs>
    <g clip-path="url(#pcf3db37895)">
     <use xlink:href="#m75b9640984" x="0" y="345.6" style="fill: #ff0000; fill-opacity: 0.3; stroke: #ff0000; stroke-opacity: 0.3"/>
    </g>
   </g>
   <g id="PolyCollection_2">
    <defs>
     <path id="m9a6ff4a659" d="M 73.832727 -151.753108 
L 73.832727 -150.28304 
L 84.83548 -150.28304 
L 84.982183 -150.28304 
L 85.128886 -150.28304 
L 85.27559 -150.28304 
L 85.422293 -150.28304 
L 85.568996 -150.28304 
L 87.109382 -150.28304 
L 87.256085 -150.28304 
L 87.402788 -150.28304 
L 87.549492 -150.28304 
L 87.696195 -150.28304 
L 87.842899 -150.28304 
L 87.989602 -150.28304 
L 88.136305 -150.28304 
L 88.943174 -150.28304 
L 89.089877 -150.28304 
L 89.236581 -150.28304 
L 89.383284 -150.28304 
L 89.529987 -150.28304 
L 89.676691 -150.28304 
L 89.823394 -150.28304 
L 89.970097 -150.28304 
L 90.116801 -150.28304 
L 91.070373 -150.28304 
L 91.217076 -150.28304 
L 91.363779 -150.28304 
L 91.510483 -150.28304 
L 91.657186 -150.28304 
L 91.803889 -150.28304 
L 91.950593 -150.28304 
L 92.097296 -150.28304 
L 92.244 -150.28304 
L 92.390703 -150.28304 
L 93.197571 -150.28304 
L 93.344275 -150.28304 
L 93.490978 -150.28304 
L 93.637681 -150.28304 
L 93.784385 -150.28304 
L 93.931088 -150.28304 
L 94.077792 -150.28304 
L 94.224495 -150.28304 
L 94.371198 -150.28304 
L 94.517902 -150.28304 
L 95.32477 -150.28304 
L 95.471474 -150.28304 
L 95.618177 -150.28304 
L 95.76488 -150.28304 
L 95.911584 -150.28304 
L 96.058287 -150.28304 
L 96.20499 -150.28304 
L 96.351694 -150.28304 
L 96.498397 -150.28304 
L 96.6451 -150.28304 
L 96.791804 -150.28304 
L 96.938507 -150.28304 
L 97.305266 -150.28304 
L 97.451969 -150.28304 
L 97.598672 -150.28304 
L 97.745376 -150.28304 
L 97.892079 -150.28304 
L 98.038782 -150.28304 
L 98.185486 -150.28304 
L 98.332189 -150.28304 
L 98.478892 -150.28304 
L 98.625596 -150.28304 
L 98.772299 -150.28304 
L 98.919003 -150.28304 
L 99.285761 -150.28304 
L 99.432464 -150.28304 
L 99.579168 -150.28304 
L 99.725871 -150.28304 
L 99.872574 -150.28304 
L 100.019278 -150.28304 
L 100.165981 -150.28304 
L 100.312685 -150.28304 
L 100.459388 -150.28304 
L 100.606091 -150.28304 
L 100.752795 -150.28304 
L 100.899498 -150.28304 
L 101.046201 -150.28304 
L 101.266256 -150.28304 
L 101.41296 -150.28304 
L 101.559663 -150.28304 
L 101.706367 -150.28304 
L 101.85307 -150.28304 
L 101.999773 -150.28304 
L 102.146477 -150.28304 
L 102.29318 -150.28304 
L 102.439883 -150.28304 
L 102.586587 -150.28304 
L 102.73329 -150.28304 
L 102.879993 -150.28304 
L 103.026697 -150.28304 
L 103.393455 -150.28304 
L 103.540159 -150.28304 
L 103.686862 -150.28304 
L 103.833565 -150.28304 
L 103.980269 -150.28304 
L 104.126972 -150.28304 
L 104.273675 -150.28304 
L 104.420379 -150.28304 
L 104.567082 -150.28304 
L 104.713785 -150.28304 
L 104.860489 -150.28304 
L 105.007192 -150.28304 
L 105.667357 -150.28304 
L 105.814061 -150.28304 
L 105.960764 -150.28304 
L 106.107467 -150.28304 
L 106.840984 -150.28304 
L 107.501149 -150.28304 
L 123.858575 -217.686147 
L 124.95885 -222.627788 
L 128.259675 -235.999878 
L 137.355284 -276.894065 
L 139.335779 -284.594689 
L 141.022868 -285.579411 
L 141.609682 -282.847681 
L 141.903088 -281.507065 
L 142.709957 -277.629099 
L 143.003364 -276.390282 
L 143.29677 -275.169901 
L 144.837156 -268.338172 
L 145.130562 -267.159472 
L 145.423969 -265.985181 
L 147.331113 -257.022494 
L 147.551168 -256.010119 
L 148.06463 -254.161312 
L 149.38496 -248.180042 
L 149.605015 -247.227784 
L 149.82507 -246.141665 
L 150.851994 -241.228079 
L 151.072049 -240.303475 
L 151.292104 -239.471451 
L 152.832489 -232.639722 
L 153.052544 -231.784454 
L 153.932764 -227.587465 
L 154.152819 -226.722978 
L 154.519578 -225.003624 
L 155.546501 -220.409059 
L 155.766556 -219.674025 
L 155.91326 -218.89731 
L 156.133315 -218.162276 
L 156.500073 -216.835688 
L 156.866832 -215.426138 
L 157.23359 -214.006969 
L 157.600348 -212.661944 
L 157.967107 -211.205904 
L 158.333865 -209.754271 
L 158.700624 -208.325884 
L 158.847327 -207.637341 
L 159.067382 -206.958016 
L 159.214085 -206.315161 
L 159.43414 -205.640645 
L 159.580844 -205.002601 
L 159.800899 -204.39261 
L 159.947602 -203.749756 
L 160.314361 -202.497313 
L 160.681119 -201.318613 
L 161.047877 -200.172377 
L 161.414636 -199.039767 
L 161.781394 -197.930402 
L 162.148153 -196.760921 
L 162.514911 -195.637529 
L 162.881669 -194.547001 
L 163.248428 -193.442045 
L 163.615186 -192.268155 
L 163.981945 -191.084646 
L 164.348703 -190.007745 
L 164.715462 -188.902789 
L 165.08222 -187.761362 
L 165.448978 -186.762613 
L 165.815737 -185.778293 
L 166.182495 -184.784354 
L 166.549254 -183.76276 
L 173.517663 -167.187221 
L 175.864917 -164.78333 
L 176.231676 -165.661844 
L 180.045963 -167.2794 
L 188.701462 -193.553062 
L 189.361627 -195.600657 
L 193.249266 -209.99955 
L 193.469321 -210.974652 
L 194.129486 -213.554085 
L 194.349541 -214.418171 
L 195.009706 -217.113029 
L 195.669871 -220.099255 
L 196.330037 -222.590516 
L 196.990202 -220.579793 
L 197.35696 -219.65078 
L 197.503663 -219.197896 
L 197.650367 -218.740203 
L 197.870422 -218.268884 
L 198.017125 -217.852872 
L 198.163829 -217.371934 
L 198.310532 -216.923459 
L 198.530587 -216.470575 
L 198.67729 -215.957574 
L 198.823994 -215.453791 
L 199.190752 -214.51997 
L 199.337456 -214.071495 
L 199.484159 -213.641856 
L 199.704214 -213.211817 
L 199.850917 -212.73128 
L 199.997621 -212.255151 
L 200.217676 -211.764994 
L 200.364379 -211.298083 
L 201.317951 -209.047292 
L 201.684709 -208.15956 
L 201.831413 -207.674213 
L 202.198171 -206.768446 
L 203.151743 -204.706823 
L 204.105315 -202.765436 
L 204.252018 -202.728564 
L 204.472073 -202.79309 
L 204.838832 -203.588241 
L 205.20559 -205.367713 
L 205.572349 -207.115122 
L 205.939107 -206.250636 
L 206.305865 -205.413803 
L 206.672624 -204.609834 
L 207.259437 -203.245973 
L 207.406141 -203.061213 
L 207.626196 -203.042777 
L 207.772899 -203.116521 
L 207.992954 -203.412298 
L 208.359712 -204.924047 
L 208.799823 -207.055005 
L 209.753394 -210.942189 
L 209.900098 -211.709686 
L 210.85367 -215.694261 
L 211.220428 -217.302599 
L 211.367131 -218.070096 
L 211.73389 -218.314974 
L 212.980868 -217.030067 
L 213.127572 -217.030067 
L 213.274275 -217.030067 
L 214.154495 -216.479793 
L 214.301199 -216.415267 
L 214.447902 -216.410458 
L 214.594605 -216.410458 
L 214.961364 -216.410458 
L 215.108067 -216.327496 
L 222.443235 -213.923606 
L 224.130324 -213.923606 
L 224.277027 -213.923606 
L 225.964116 -213.923606 
L 227.357798 -213.443068 
L 227.504501 -213.350488 
L 227.651205 -213.318024 
L 227.797908 -213.318024 
L 246.575939 -214.043841 
L 246.722642 -214.04865 
L 247.236104 -214.214974 
L 247.749566 -215.245786 
L 247.896269 -215.740351 
L 248.263028 -216.646118 
L 248.409731 -217.030067 
L 248.923193 -218.162276 
L 249.583358 -220.080819 
L 250.09682 -221.62904 
L 251.123743 -224.365579 
L 251.490502 -225.322245 
L 252.150667 -227.143799 
L 252.810832 -228.877181 
L 253.470997 -230.730397 
L 253.691052 -231.183681 
L 253.837755 -231.608911 
L 256.258361 -235.338989 
L 256.478416 -235.778246 
L 256.918526 -236.767376 
L 257.138581 -237.298812 
L 257.358636 -237.83065 
L 257.798746 -238.921578 
L 258.238856 -239.919926 
L 258.458911 -240.37281 
L 258.899021 -240.335938 
L 259.339132 -240.331129 
L 259.779242 -240.206485 
L 260.439407 -238.949232 
L 260.879517 -237.987757 
L 261.02622 -237.816623 
L 261.172924 -237.752097 
L 262.273199 -235.459223 
L 262.566606 -235.033994 
L 262.860012 -234.511775 
L 264.400398 -231.400905 
L 264.693804 -230.744424 
L 266.087486 -229.524043 
L 266.380893 -229.524043 
L 266.6743 -229.524043 
L 267.627872 -229.524043 
L 269.094905 -229.524043 
L 269.608367 -229.528853 
L 270.048477 -229.741267 
L 270.488587 -230.15287 
L 270.708642 -230.15287 
L 271.295456 -230.15287 
L 272.175676 -230.15287 
L 272.395731 -230.15287 
L 274.302875 -232.107885 
L 274.52293 -232.764365 
L 274.742985 -232.856946 
L 275.109743 -231.308325 
L 275.549853 -230.481111 
L 276.72348 -230.610563 
L 276.943535 -230.610563 
L 277.383645 -230.610563 
L 278.190514 -230.610563 
L 278.630624 -230.610563 
L 279.290789 -230.610563 
L 279.437493 -230.610563 
L 279.584196 -230.610563 
L 279.730899 -230.610563 
L 279.877603 -230.610563 
L 280.244361 -230.610563 
L 280.684471 -230.610563 
L 280.831174 -230.610563 
L 280.977878 -230.610563 
L 281.124581 -230.610563 
L 281.271285 -230.610563 
L 281.417988 -230.610563 
L 281.564691 -230.610563 
L 281.784746 -230.610563 
L 281.93145 -230.610563 
L 282.078153 -230.610563 
L 282.224856 -230.610563 
L 282.37156 -230.610563 
L 282.518263 -230.610563 
L 282.664967 -230.610563 
L 283.031725 -230.610563 
L 283.178428 -230.610563 
L 283.325132 -230.610563 
L 283.471835 -230.610563 
L 283.618538 -230.610563 
L 283.765242 -230.610563 
L 284.865517 -230.610563 
L 285.01222 -230.610563 
L 285.158924 -230.610563 
L 286.552606 -230.610563 
L 286.699309 -230.610563 
L 289.486673 -230.610563 
L 289.633376 -230.610563 
L 290.440245 -230.490329 
L 290.586948 -230.273105 
L 290.733652 -230.027826 
L 290.880355 -229.801384 
L 291.027058 -229.667523 
L 291.173762 -229.639869 
L 291.687223 -229.639869 
L 291.833927 -229.639869 
L 291.98063 -229.639869 
L 292.127334 -229.639869 
L 292.274037 -229.639869 
L 294.988049 -229.639869 
L 311.638881 -229.639869 
L 311.785584 -229.639869 
L 311.932288 -229.639869 
L 313.472673 -229.639869 
L 315.159762 -229.639869 
L 316.626795 -229.639869 
L 316.773499 -229.639869 
L 316.920202 -229.639869 
L 318.313884 -229.639869 
L 318.460587 -229.639869 
L 318.607291 -229.639869 
L 318.753994 -229.639869 
L 319.854269 -229.639869 
L 320.000973 -229.639869 
L 320.147676 -229.639869 
L 320.294379 -229.639869 
L 320.441083 -229.639869 
L 320.587786 -229.639869 
L 321.394655 -229.639869 
L 321.541358 -229.639869 
L 321.688061 -229.639869 
L 321.834765 -229.639869 
L 322.93504 -229.639869 
L 341.859774 -229.644278 
L 342.666643 -230.610563 
L 342.813346 -230.610563 
L 342.960049 -230.610563 
L 343.620214 -230.610563 
L 343.766918 -230.610563 
L 343.913621 -230.610563 
L 344.353731 -230.610563 
L 344.647138 -230.610563 
L 344.940545 -230.610563 
L 345.1606 -230.610563 
L 345.454006 -230.610563 
L 345.747413 -230.619781 
L 346.260875 -231.206526 
L 347.36115 -234.784306 
L 347.947964 -235.181882 
L 348.168019 -235.181882 
L 348.461425 -235.181882 
L 350.661976 -235.181882 
L 351.322141 -235.181882 
L 351.615548 -235.181882 
L 352.275713 -235.181882 
L 352.422416 -235.181882 
L 352.56912 -235.181882 
L 352.715823 -235.181882 
L 352.862526 -235.181882 
L 353.229285 -235.181882 
L 353.375988 -235.181882 
L 353.522692 -235.181882 
L 353.669395 -235.181882 
L 353.816098 -235.181882 
L 353.962802 -235.181882 
L 354.109505 -235.181882 
L 354.476263 -235.181882 
L 354.622967 -235.181882 
L 355.20978 -235.181882 
L 355.503187 -235.181882 
L 355.796594 -235.181882 
L 355.943297 -235.181882 
L 356.163352 -235.181882 
L 356.310055 -235.181882 
L 356.456759 -235.181882 
L 356.603462 -235.181882 
L 356.750166 -235.181882 
L 356.896869 -235.181882 
L 357.043572 -235.181882 
L 357.410331 -235.181882 
L 357.557034 -235.181882 
L 357.703737 -235.181882 
L 357.850441 -235.181882 
L 357.997144 -235.181882 
L 358.143848 -235.181882 
L 358.290551 -235.181882 
L 358.950716 -235.181882 
L 359.097419 -235.181882 
L 359.244123 -235.181882 
L 359.390826 -235.181882 
L 359.537529 -235.181882 
L 359.684233 -235.181882 
L 359.830936 -235.181882 
L 378.462263 -235.181882 
L 378.975725 -235.181882 
L 379.489187 -235.181882 
L 379.63589 -235.181882 
L 380.882869 -235.181882 
L 381.029572 -235.181882 
L 381.176276 -235.181882 
L 381.322979 -235.181882 
L 381.836441 -235.181882 
L 382.569958 -235.181882 
L 382.716661 -235.181882 
L 382.863364 -235.181882 
L 383.376826 -235.181882 
L 383.52353 -235.181882 
L 384.770508 -235.181882 
L 387.411169 -235.181882 
L 387.557872 -235.181882 
L 388.951554 -235.181882 
L 389.098257 -235.181882 
L 390.345236 -235.181882 
L 390.491939 -235.181882 
L 390.638643 -235.181882 
L 390.785346 -235.181882 
L 390.932049 -235.181882 
L 392.179028 -235.181882 
L 392.325731 -235.181882 
L 392.472435 -235.181882 
L 392.619138 -235.181882 
L 392.765842 -235.181882 
L 392.912545 -235.181882 
L 394.159523 -235.181882 
L 394.306227 -235.181882 
L 394.45293 -235.181882 
L 398.193866 -235.181882 
L 398.340569 -235.181882 
L 398.487273 -235.181882 
L 398.487273 -236.097268 
L 398.487273 -236.097268 
L 398.340569 -236.097268 
L 398.193866 -236.097268 
L 394.45293 -236.097268 
L 394.306227 -236.097268 
L 394.159523 -236.097268 
L 392.912545 -236.097268 
L 392.765842 -236.097268 
L 392.619138 -236.097268 
L 392.472435 -236.097268 
L 392.325731 -236.097268 
L 392.179028 -236.097268 
L 390.932049 -236.097268 
L 390.785346 -236.097268 
L 390.638643 -236.097268 
L 390.491939 -236.097268 
L 390.345236 -236.097268 
L 389.098257 -236.097268 
L 388.951554 -236.097268 
L 387.557872 -236.097268 
L 387.411169 -236.097268 
L 384.770508 -236.097268 
L 383.52353 -236.097268 
L 383.376826 -236.097268 
L 382.863364 -236.097268 
L 382.716661 -236.097268 
L 382.569958 -236.097268 
L 381.836441 -236.097268 
L 381.322979 -236.097268 
L 381.176276 -236.097268 
L 381.029572 -236.097268 
L 380.882869 -236.097268 
L 379.63589 -236.097268 
L 379.489187 -236.097268 
L 378.975725 -236.097268 
L 378.462263 -236.097268 
L 359.830936 -236.097268 
L 359.684233 -236.097268 
L 359.537529 -236.097268 
L 359.390826 -236.097268 
L 359.244123 -236.097268 
L 359.097419 -236.097268 
L 358.950716 -236.097268 
L 358.290551 -236.097268 
L 358.143848 -236.097268 
L 357.997144 -236.097268 
L 357.850441 -236.097268 
L 357.703737 -236.097268 
L 357.557034 -236.097268 
L 357.410331 -236.097268 
L 357.043572 -236.097268 
L 356.896869 -236.097268 
L 356.750166 -236.097268 
L 356.603462 -236.097268 
L 356.456759 -236.097268 
L 356.310055 -236.097268 
L 356.163352 -236.097268 
L 355.943297 -236.097268 
L 355.796594 -236.097268 
L 355.503187 -236.097268 
L 355.20978 -236.097268 
L 354.622967 -236.097268 
L 354.476263 -236.097268 
L 354.109505 -236.097268 
L 353.962802 -236.097268 
L 353.816098 -236.097268 
L 353.669395 -236.097268 
L 353.522692 -236.097268 
L 353.375988 -236.097268 
L 353.229285 -236.092459 
L 352.862526 -236.092459 
L 352.715823 -236.08805 
L 352.56912 -236.08805 
L 352.422416 -236.055587 
L 352.275713 -236.037151 
L 351.615548 -236.037151 
L 351.322141 -236.037151 
L 350.661976 -236.037151 
L 348.461425 -236.037151 
L 348.168019 -236.037151 
L 347.947964 -236.018715 
L 347.36115 -235.181882 
L 346.260875 -235.181882 
L 345.747413 -235.181882 
L 345.454006 -235.181882 
L 345.1606 -235.181882 
L 344.940545 -235.181882 
L 344.647138 -235.181882 
L 344.353731 -235.181882 
L 343.913621 -234.793524 
L 343.766918 -234.298959 
L 343.620214 -233.850484 
L 342.960049 -232.080231 
L 342.813346 -231.52114 
L 342.666643 -230.943212 
L 341.859774 -230.610563 
L 322.93504 -230.610563 
L 321.834765 -230.610563 
L 321.688061 -230.610563 
L 321.541358 -230.610563 
L 321.394655 -230.610563 
L 320.587786 -230.610563 
L 320.441083 -230.610563 
L 320.294379 -230.610563 
L 320.147676 -230.610563 
L 320.000973 -230.610563 
L 319.854269 -230.610563 
L 318.753994 -230.610563 
L 318.607291 -230.610563 
L 318.460587 -230.610563 
L 318.313884 -230.610563 
L 316.920202 -230.610563 
L 316.773499 -230.610563 
L 316.626795 -230.610563 
L 315.159762 -230.610563 
L 313.472673 -230.610563 
L 311.932288 -230.610563 
L 311.785584 -230.610563 
L 311.638881 -230.610563 
L 294.988049 -230.614972 
L 292.274037 -231.400905 
L 292.127334 -231.400905 
L 291.98063 -231.400905 
L 291.833927 -231.400905 
L 291.687223 -231.400905 
L 291.173762 -231.400905 
L 291.027058 -231.400905 
L 290.880355 -231.400905 
L 290.733652 -231.400905 
L 290.586948 -231.400905 
L 290.440245 -231.400905 
L 289.633376 -231.400905 
L 289.486673 -231.400905 
L 286.699309 -231.400905 
L 286.552606 -231.400905 
L 285.158924 -231.400905 
L 285.01222 -231.400905 
L 284.865517 -231.400905 
L 283.765242 -231.400905 
L 283.618538 -231.400905 
L 283.471835 -231.400905 
L 283.325132 -231.400905 
L 283.178428 -231.400905 
L 283.031725 -231.400905 
L 282.664967 -231.400905 
L 282.518263 -231.400905 
L 282.37156 -231.400905 
L 282.224856 -231.400905 
L 282.078153 -231.400905 
L 281.93145 -231.400905 
L 281.784746 -231.400905 
L 281.564691 -231.400905 
L 281.417988 -231.400905 
L 281.271285 -231.400905 
L 281.124581 -231.400905 
L 280.977878 -231.400905 
L 280.831174 -231.400905 
L 280.684471 -231.400905 
L 280.244361 -231.396096 
L 279.877603 -231.317543 
L 279.730899 -231.313134 
L 279.584196 -231.313134 
L 279.437493 -231.313134 
L 279.290789 -231.313134 
L 278.630624 -232.759957 
L 278.190514 -234.414385 
L 277.383645 -237.862713 
L 276.943535 -238.468294 
L 276.72348 -238.482321 
L 275.549853 -235.791872 
L 275.109743 -234.590328 
L 274.742985 -233.406819 
L 274.52293 -233.795177 
L 274.302875 -234.67329 
L 272.395731 -236.240347 
L 272.175676 -235.593485 
L 271.295456 -233.171159 
L 270.708642 -231.386878 
L 270.488587 -230.735206 
L 270.048477 -230.15287 
L 269.608367 -230.15287 
L 269.094905 -230.184933 
L 267.627872 -232.542733 
L 266.6743 -234.603955 
L 266.380893 -235.223563 
L 266.087486 -235.755 
L 264.693804 -238.546847 
L 264.400398 -238.778099 
L 262.860012 -241.195615 
L 262.566606 -241.264951 
L 262.273199 -241.357531 
L 261.172924 -241.417248 
L 261.02622 -241.417248 
L 260.879517 -241.417248 
L 260.439407 -241.417248 
L 259.779242 -241.394403 
L 259.339132 -241.380376 
L 258.899021 -241.038509 
L 258.458911 -240.400464 
L 258.238856 -240.400464 
L 257.798746 -240.400464 
L 257.358636 -240.400464 
L 257.138581 -240.400464 
L 256.918526 -240.400464 
L 256.478416 -240.354374 
L 256.258361 -240.349565 
L 253.837755 -236.841119 
L 253.691052 -236.351364 
L 253.470997 -235.875235 
L 252.810832 -234.493339 
L 252.150667 -233.078578 
L 251.490502 -231.641374 
L 251.123743 -231.266643 
L 250.09682 -229.995764 
L 249.583358 -228.64593 
L 248.923193 -226.884894 
L 248.409731 -225.521033 
L 248.263028 -225.044904 
L 247.896269 -224.083829 
L 247.749566 -223.612109 
L 247.236104 -222.262275 
L 246.722642 -220.811044 
L 246.575939 -220.330105 
L 227.797908 -214.478288 
L 227.651205 -214.478288 
L 227.504501 -214.478288 
L 227.357798 -214.478288 
L 225.964116 -214.478288 
L 224.277027 -214.395326 
L 224.130324 -214.395326 
L 222.443235 -214.404544 
L 215.108067 -218.929773 
L 214.961364 -219.331758 
L 214.594605 -220.247144 
L 214.447902 -220.774172 
L 214.301199 -221.287173 
L 214.154495 -221.638258 
L 213.274275 -222.308766 
L 213.127572 -222.308766 
L 212.980868 -222.313175 
L 211.73389 -219.835541 
L 211.367131 -219.091689 
L 211.220428 -219.590663 
L 210.85367 -220.528893 
L 209.900098 -221.518023 
L 209.753394 -221.518023 
L 208.799823 -221.143693 
L 208.359712 -219.012735 
L 207.992954 -217.395179 
L 207.772899 -216.576782 
L 207.626196 -215.814094 
L 207.406141 -215.014534 
L 207.259437 -214.247438 
L 206.672624 -212.000654 
L 206.305865 -210.480087 
L 205.939107 -209.05651 
L 205.572349 -207.424526 
L 205.20559 -208.053353 
L 204.838832 -208.954711 
L 204.472073 -209.80998 
L 204.252018 -210.286109 
L 204.105315 -210.734183 
L 203.151743 -213.174945 
L 202.198171 -215.92992 
L 201.831413 -216.863342 
L 201.684709 -217.335062 
L 201.317951 -218.278102 
L 200.364379 -221.042295 
L 200.217676 -221.458307 
L 199.997621 -221.952872 
L 199.850917 -222.507554 
L 199.704214 -223.015745 
L 199.484159 -223.501092 
L 199.337456 -223.968003 
L 199.190752 -224.45816 
L 198.823994 -225.567524 
L 198.67729 -226.173105 
L 198.530587 -226.732196 
L 198.310532 -227.286878 
L 198.163829 -227.721326 
L 198.017125 -227.980231 
L 197.870422 -228.132929 
L 197.650367 -228.155774 
L 197.503663 -228.118902 
L 197.35696 -227.758599 
L 196.990202 -226.482509 
L 196.330037 -223.362422 
L 195.669871 -224.513467 
L 195.009706 -226.722978 
L 194.349541 -227.642773 
L 194.129486 -227.605901 
L 193.469321 -224.929479 
L 193.249266 -223.931131 
L 189.361627 -207.087468 
L 188.701462 -204.013471 
L 180.045963 -175.553544 
L 176.231676 -167.293428 
L 175.864917 -168.051306 
L 173.517663 -173.528793 
L 166.549254 -192.120266 
L 166.182495 -193.335838 
L 165.815737 -194.45442 
L 165.448978 -195.549758 
L 165.08222 -196.677558 
L 164.715462 -197.851849 
L 164.348703 -199.002895 
L 163.981945 -200.176785 
L 163.615186 -201.341858 
L 163.248428 -202.575866 
L 162.881669 -203.837928 
L 162.514911 -205.155298 
L 162.148153 -206.426178 
L 161.781394 -207.840538 
L 161.414636 -209.236461 
L 161.047877 -210.688093 
L 160.681119 -212.167379 
L 160.314361 -213.572521 
L 159.947602 -214.991289 
L 159.800899 -215.763596 
L 159.580844 -216.44733 
L 159.43414 -217.149901 
L 159.214085 -217.852872 
L 159.067382 -218.532198 
L 158.847327 -219.262422 
L 158.700624 -219.974211 
L 158.333865 -221.518023 
L 157.967107 -223.034181 
L 157.600348 -224.652138 
L 157.23359 -226.376302 
L 156.866832 -228.095656 
L 156.500073 -229.852284 
L 156.133315 -231.52114 
L 155.91326 -232.343945 
L 155.766556 -233.203622 
L 155.546501 -234.10939 
L 154.519578 -238.371305 
L 154.152819 -240.113905 
L 153.932764 -241.033699 
L 153.052544 -244.976592 
L 152.832489 -246.016621 
L 151.292104 -253.139719 
L 151.072049 -254.105603 
L 150.851994 -255.053453 
L 149.82507 -259.107362 
L 149.605015 -260.211917 
L 149.38496 -261.335309 
L 148.06463 -267.325797 
L 147.551168 -269.641515 
L 147.331113 -270.750879 
L 145.423969 -279.2699 
L 145.130562 -280.675042 
L 144.837156 -282.020066 
L 143.29677 -288.828951 
L 143.003364 -290.215656 
L 142.709957 -291.371111 
L 141.903088 -292.032 
L 141.609682 -291.361893 
L 141.022868 -289.646947 
L 139.335779 -289.965969 
L 137.355284 -284.414738 
L 128.259675 -245.623855 
L 124.95885 -230.970866 
L 123.858575 -226.699733 
L 107.501149 -156.823801 
L 106.840984 -153.920937 
L 106.107467 -151.753108 
L 105.960764 -151.753108 
L 105.814061 -151.753108 
L 105.667357 -151.753108 
L 105.007192 -151.753108 
L 104.860489 -151.753108 
L 104.713785 -151.753108 
L 104.567082 -151.753108 
L 104.420379 -151.753108 
L 104.273675 -151.753108 
L 104.126972 -151.753108 
L 103.980269 -151.753108 
L 103.833565 -151.753108 
L 103.686862 -151.753108 
L 103.540159 -151.753108 
L 103.393455 -151.753108 
L 103.026697 -151.753108 
L 102.879993 -151.753108 
L 102.73329 -151.753108 
L 102.586587 -151.753108 
L 102.439883 -151.753108 
L 102.29318 -151.753108 
L 102.146477 -151.753108 
L 101.999773 -151.753108 
L 101.85307 -151.753108 
L 101.706367 -151.753108 
L 101.559663 -151.753108 
L 101.41296 -151.753108 
L 101.266256 -151.753108 
L 101.046201 -151.753108 
L 100.899498 -151.753108 
L 100.752795 -151.753108 
L 100.606091 -151.753108 
L 100.459388 -151.753108 
L 100.312685 -151.753108 
L 100.165981 -151.753108 
L 100.019278 -151.753108 
L 99.872574 -151.753108 
L 99.725871 -151.753108 
L 99.579168 -151.753108 
L 99.432464 -151.753108 
L 99.285761 -151.753108 
L 98.919003 -151.753108 
L 98.772299 -151.753108 
L 98.625596 -151.753108 
L 98.478892 -151.753108 
L 98.332189 -151.753108 
L 98.185486 -151.753108 
L 98.038782 -151.753108 
L 97.892079 -151.753108 
L 97.745376 -151.753108 
L 97.598672 -151.753108 
L 97.451969 -151.753108 
L 97.305266 -151.753108 
L 96.938507 -151.753108 
L 96.791804 -151.753108 
L 96.6451 -151.753108 
L 96.498397 -151.753108 
L 96.351694 -151.753108 
L 96.20499 -151.753108 
L 96.058287 -151.753108 
L 95.911584 -151.753108 
L 95.76488 -151.753108 
L 95.618177 -151.753108 
L 95.471474 -151.753108 
L 95.32477 -151.753108 
L 94.517902 -151.753108 
L 94.371198 -151.753108 
L 94.224495 -151.753108 
L 94.077792 -151.753108 
L 93.931088 -151.753108 
L 93.784385 -151.753108 
L 93.637681 -151.753108 
L 93.490978 -151.753108 
L 93.344275 -151.753108 
L 93.197571 -151.753108 
L 92.390703 -151.753108 
L 92.244 -151.753108 
L 92.097296 -151.753108 
L 91.950593 -151.753108 
L 91.803889 -151.753108 
L 91.657186 -151.753108 
L 91.510483 -151.753108 
L 91.363779 -151.753108 
L 91.217076 -151.753108 
L 91.070373 -151.753108 
L 90.116801 -151.753108 
L 89.970097 -151.753108 
L 89.823394 -151.753108 
L 89.676691 -151.753108 
L 89.529987 -151.753108 
L 89.383284 -151.753108 
L 89.236581 -151.753108 
L 89.089877 -151.753108 
L 88.943174 -151.753108 
L 88.136305 -151.753108 
L 87.989602 -151.753108 
L 87.842899 -151.753108 
L 87.696195 -151.753108 
L 87.549492 -151.753108 
L 87.402788 -151.753108 
L 87.256085 -151.753108 
L 87.109382 -151.753108 
L 85.568996 -151.753108 
L 85.422293 -151.753108 
L 85.27559 -151.753108 
L 85.128886 -151.753108 
L 84.982183 -151.753108 
L 84.83548 -151.753108 
L 73.832727 -151.753108 
z
" style="stroke: #0000ff; stroke-opacity: 0.3"/>
    </defs>
    <g clip-path="url(#pcf3db37895)">
     <use xlink:href="#m9a6ff4a659" x="0" y="345.6" style="fill: #0000ff; fill-opacity: 0.3; stroke: #0000ff; stroke-opacity: 0.3"/>
    </g>
   </g>
   <g id="matplotlib.axis_1">
    <g id="xtick_1">
     <g id="line2d_1">
      <defs>
       <path id="mf3b124cb6f" d="M 0 0 
L 0 3.5 
" style="stroke: #000000; stroke-width: 0.8"/>
      </defs>
      <g>
       <use xlink:href="#mf3b124cb6f" x="73.832727" y="307.584" style="stroke: #000000; stroke-width: 0.8"/>
      </g>
     </g>
     <g id="text_1">
      <!-- 0 -->
      <g transform="translate(70.651477 322.182437)scale(0.1 -0.1)">
       <defs>
        <path id="DejaVuSans-30" d="M 2034 4250 
Q 1547 4250 1301 3770 
Q 1056 3291 1056 2328 
Q 1056 1369 1301 889 
Q 1547 409 2034 409 
Q 2525 409 2770 889 
Q 3016 1369 3016 2328 
Q 3016 3291 2770 3770 
Q 2525 4250 2034 4250 
z
M 2034 4750 
Q 2819 4750 3233 4129 
Q 3647 3509 3647 2328 
Q 3647 1150 3233 529 
Q 2819 -91 2034 -91 
Q 1250 -91 836 529 
Q 422 1150 422 2328 
Q 422 3509 836 4129 
Q 1250 4750 2034 4750 
z
" transform="scale(0.015625)"/>
       </defs>
       <use xlink:href="#DejaVuSans-30"/>
      </g>
     </g>
    </g>
    <g id="xtick_2">
     <g id="line2d_2">
      <g>
       <use xlink:href="#mf3b124cb6f" x="147.184409" y="307.584" style="stroke: #000000; stroke-width: 0.8"/>
      </g>
     </g>
     <g id="text_2">
      <!-- 10 -->
      <g transform="translate(140.821909 322.182437)scale(0.1 -0.1)">
       <defs>
        <path id="DejaVuSans-31" d="M 794 531 
L 1825 531 
L 1825 4091 
L 703 3866 
L 703 4441 
L 1819 4666 
L 2450 4666 
L 2450 531 
L 3481 531 
L 3481 0 
L 794 0 
L 794 531 
z
" transform="scale(0.015625)"/>
       </defs>
       <use xlink:href="#DejaVuSans-31"/>
       <use xlink:href="#DejaVuSans-30" x="63.623047"/>
      </g>
     </g>
    </g>
    <g id="xtick_3">
     <g id="line2d_3">
      <g>
       <use xlink:href="#mf3b124cb6f" x="220.536092" y="307.584" style="stroke: #000000; stroke-width: 0.8"/>
      </g>
     </g>
     <g id="text_3">
      <!-- 20 -->
      <g transform="translate(214.173592 322.182437)scale(0.1 -0.1)">
       <defs>
        <path id="DejaVuSans-32" d="M 1228 531 
L 3431 531 
L 3431 0 
L 469 0 
L 469 531 
Q 828 903 1448 1529 
Q 2069 2156 2228 2338 
Q 2531 2678 2651 2914 
Q 2772 3150 2772 3378 
Q 2772 3750 2511 3984 
Q 2250 4219 1831 4219 
Q 1534 4219 1204 4116 
Q 875 4013 500 3803 
L 500 4441 
Q 881 4594 1212 4672 
Q 1544 4750 1819 4750 
Q 2544 4750 2975 4387 
Q 3406 4025 3406 3419 
Q 3406 3131 3298 2873 
Q 3191 2616 2906 2266 
Q 2828 2175 2409 1742 
Q 1991 1309 1228 531 
z
" transform="scale(0.015625)"/>
       </defs>
       <use xlink:href="#DejaVuSans-32"/>
       <use xlink:href="#DejaVuSans-30" x="63.623047"/>
      </g>
     </g>
    </g>
    <g id="xtick_4">
     <g id="line2d_4">
      <g>
       <use xlink:href="#mf3b124cb6f" x="293.887774" y="307.584" style="stroke: #000000; stroke-width: 0.8"/>
      </g>
     </g>
     <g id="text_4">
      <!-- 30 -->
      <g transform="translate(287.525274 322.182437)scale(0.1 -0.1)">
       <defs>
        <path id="DejaVuSans-33" d="M 2597 2516 
Q 3050 2419 3304 2112 
Q 3559 1806 3559 1356 
Q 3559 666 3084 287 
Q 2609 -91 1734 -91 
Q 1441 -91 1130 -33 
Q 819 25 488 141 
L 488 750 
Q 750 597 1062 519 
Q 1375 441 1716 441 
Q 2309 441 2620 675 
Q 2931 909 2931 1356 
Q 2931 1769 2642 2001 
Q 2353 2234 1838 2234 
L 1294 2234 
L 1294 2753 
L 1863 2753 
Q 2328 2753 2575 2939 
Q 2822 3125 2822 3475 
Q 2822 3834 2567 4026 
Q 2313 4219 1838 4219 
Q 1578 4219 1281 4162 
Q 984 4106 628 3988 
L 628 4550 
Q 988 4650 1302 4700 
Q 1616 4750 1894 4750 
Q 2613 4750 3031 4423 
Q 3450 4097 3450 3541 
Q 3450 3153 3228 2886 
Q 3006 2619 2597 2516 
z
" transform="scale(0.015625)"/>
       </defs>
       <use xlink:href="#DejaVuSans-33"/>
       <use xlink:href="#DejaVuSans-30" x="63.623047"/>
      </g>
     </g>
    </g>
    <g id="xtick_5">
     <g id="line2d_5">
      <g>
       <use xlink:href="#mf3b124cb6f" x="367.239456" y="307.584" style="stroke: #000000; stroke-width: 0.8"/>
      </g>
     </g>
     <g id="text_5">
      <!-- 40 -->
      <g transform="translate(360.876956 322.182437)scale(0.1 -0.1)">
       <defs>
        <path id="DejaVuSans-34" d="M 2419 4116 
L 825 1625 
L 2419 1625 
L 2419 4116 
z
M 2253 4666 
L 3047 4666 
L 3047 1625 
L 3713 1625 
L 3713 1100 
L 3047 1100 
L 3047 0 
L 2419 0 
L 2419 1100 
L 313 1100 
L 313 1709 
L 2253 4666 
z
" transform="scale(0.015625)"/>
       </defs>
       <use xlink:href="#DejaVuSans-34"/>
       <use xlink:href="#DejaVuSans-30" x="63.623047"/>
      </g>
     </g>
    </g>
    <g id="text_6">
     <!-- Time (ms) -->
     <g transform="translate(210.960781 335.860562)scale(0.1 -0.1)">
      <defs>
       <path id="DejaVuSans-54" d="M -19 4666 
L 3928 4666 
L 3928 4134 
L 2272 4134 
L 2272 0 
L 1638 0 
L 1638 4134 
L -19 4134 
L -19 4666 
z
" transform="scale(0.015625)"/>
       <path id="DejaVuSans-69" d="M 603 3500 
L 1178 3500 
L 1178 0 
L 603 0 
L 603 3500 
z
M 603 4863 
L 1178 4863 
L 1178 4134 
L 603 4134 
L 603 4863 
z
" transform="scale(0.015625)"/>
       <path id="DejaVuSans-6d" d="M 3328 2828 
Q 3544 3216 3844 3400 
Q 4144 3584 4550 3584 
Q 5097 3584 5394 3201 
Q 5691 2819 5691 2113 
L 5691 0 
L 5113 0 
L 5113 2094 
Q 5113 2597 4934 2840 
Q 4756 3084 4391 3084 
Q 3944 3084 3684 2787 
Q 3425 2491 3425 1978 
L 3425 0 
L 2847 0 
L 2847 2094 
Q 2847 2600 2669 2842 
Q 2491 3084 2119 3084 
Q 1678 3084 1418 2786 
Q 1159 2488 1159 1978 
L 1159 0 
L 581 0 
L 581 3500 
L 1159 3500 
L 1159 2956 
Q 1356 3278 1631 3431 
Q 1906 3584 2284 3584 
Q 2666 3584 2933 3390 
Q 3200 3197 3328 2828 
z
" transform="scale(0.015625)"/>
       <path id="DejaVuSans-65" d="M 3597 1894 
L 3597 1613 
L 953 1613 
Q 991 1019 1311 708 
Q 1631 397 2203 397 
Q 2534 397 2845 478 
Q 3156 559 3463 722 
L 3463 178 
Q 3153 47 2828 -22 
Q 2503 -91 2169 -91 
Q 1331 -91 842 396 
Q 353 884 353 1716 
Q 353 2575 817 3079 
Q 1281 3584 2069 3584 
Q 2775 3584 3186 3129 
Q 3597 2675 3597 1894 
z
M 3022 2063 
Q 3016 2534 2758 2815 
Q 2500 3097 2075 3097 
Q 1594 3097 1305 2825 
Q 1016 2553 972 2059 
L 3022 2063 
z
" transform="scale(0.015625)"/>
       <path id="DejaVuSans-20" transform="scale(0.015625)"/>
       <path id="DejaVuSans-28" d="M 1984 4856 
Q 1566 4138 1362 3434 
Q 1159 2731 1159 2009 
Q 1159 1288 1364 580 
Q 1569 -128 1984 -844 
L 1484 -844 
Q 1016 -109 783 600 
Q 550 1309 550 2009 
Q 550 2706 781 3412 
Q 1013 4119 1484 4856 
L 1984 4856 
z
" transform="scale(0.015625)"/>
       <path id="DejaVuSans-73" d="M 2834 3397 
L 2834 2853 
Q 2591 2978 2328 3040 
Q 2066 3103 1784 3103 
Q 1356 3103 1142 2972 
Q 928 2841 928 2578 
Q 928 2378 1081 2264 
Q 1234 2150 1697 2047 
L 1894 2003 
Q 2506 1872 2764 1633 
Q 3022 1394 3022 966 
Q 3022 478 2636 193 
Q 2250 -91 1575 -91 
Q 1294 -91 989 -36 
Q 684 19 347 128 
L 347 722 
Q 666 556 975 473 
Q 1284 391 1588 391 
Q 1994 391 2212 530 
Q 2431 669 2431 922 
Q 2431 1156 2273 1281 
Q 2116 1406 1581 1522 
L 1381 1569 
Q 847 1681 609 1914 
Q 372 2147 372 2553 
Q 372 3047 722 3315 
Q 1072 3584 1716 3584 
Q 2034 3584 2315 3537 
Q 2597 3491 2834 3397 
z
" transform="scale(0.015625)"/>
       <path id="DejaVuSans-29" d="M 513 4856 
L 1013 4856 
Q 1481 4119 1714 3412 
Q 1947 2706 1947 2009 
Q 1947 1309 1714 600 
Q 1481 -109 1013 -844 
L 513 -844 
Q 928 -128 1133 580 
Q 1338 1288 1338 2009 
Q 1338 2731 1133 3434 
Q 928 4138 513 4856 
z
" transform="scale(0.015625)"/>
      </defs>
      <use xlink:href="#DejaVuSans-54"/>
      <use xlink:href="#DejaVuSans-69" x="57.958984"/>
      <use xlink:href="#DejaVuSans-6d" x="85.742188"/>
      <use xlink:href="#DejaVuSans-65" x="183.154297"/>
      <use xlink:href="#DejaVuSans-20" x="244.677734"/>
      <use xlink:href="#DejaVuSans-28" x="276.464844"/>
      <use xlink:href="#DejaVuSans-6d" x="315.478516"/>
      <use xlink:href="#DejaVuSans-73" x="412.890625"/>
      <use xlink:href="#DejaVuSans-29" x="464.990234"/>
     </g>
    </g>
   </g>
   <g id="matplotlib.axis_2">
    <g id="ytick_1">
     <g id="line2d_6">
      <defs>
       <path id="m88cc469298" d="M 0 0 
L -3.5 0 
" style="stroke: #000000; stroke-width: 0.8"/>
      </defs>
      <g>
       <use xlink:href="#m88cc469298" x="57.6" y="284.687327" style="stroke: #000000; stroke-width: 0.8"/>
      </g>
     </g>
     <g id="text_7">
      <!-- 0.3 -->
      <g transform="translate(34.696875 288.486546)scale(0.1 -0.1)">
       <defs>
        <path id="DejaVuSans-2e" d="M 684 794 
L 1344 794 
L 1344 0 
L 684 0 
L 684 794 
z
" transform="scale(0.015625)"/>
       </defs>
       <use xlink:href="#DejaVuSans-30"/>
       <use xlink:href="#DejaVuSans-2e" x="63.623047"/>
       <use xlink:href="#DejaVuSans-33" x="95.410156"/>
      </g>
     </g>
    </g>
    <g id="ytick_2">
     <g id="line2d_7">
      <g>
       <use xlink:href="#m88cc469298" x="57.6" y="244.609132" style="stroke: #000000; stroke-width: 0.8"/>
      </g>
     </g>
     <g id="text_8">
      <!-- 0.4 -->
      <g transform="translate(34.696875 248.408351)scale(0.1 -0.1)">
       <use xlink:href="#DejaVuSans-30"/>
       <use xlink:href="#DejaVuSans-2e" x="63.623047"/>
       <use xlink:href="#DejaVuSans-34" x="95.410156"/>
      </g>
     </g>
    </g>
    <g id="ytick_3">
     <g id="line2d_8">
      <g>
       <use xlink:href="#m88cc469298" x="57.6" y="204.530937" style="stroke: #000000; stroke-width: 0.8"/>
      </g>
     </g>
     <g id="text_9">
      <!-- 0.5 -->
      <g transform="translate(34.696875 208.330156)scale(0.1 -0.1)">
       <defs>
        <path id="DejaVuSans-35" d="M 691 4666 
L 3169 4666 
L 3169 4134 
L 1269 4134 
L 1269 2991 
Q 1406 3038 1543 3061 
Q 1681 3084 1819 3084 
Q 2600 3084 3056 2656 
Q 3513 2228 3513 1497 
Q 3513 744 3044 326 
Q 2575 -91 1722 -91 
Q 1428 -91 1123 -41 
Q 819 9 494 109 
L 494 744 
Q 775 591 1075 516 
Q 1375 441 1709 441 
Q 2250 441 2565 725 
Q 2881 1009 2881 1497 
Q 2881 1984 2565 2268 
Q 2250 2553 1709 2553 
Q 1456 2553 1204 2497 
Q 953 2441 691 2322 
L 691 4666 
z
" transform="scale(0.015625)"/>
       </defs>
       <use xlink:href="#DejaVuSans-30"/>
       <use xlink:href="#DejaVuSans-2e" x="63.623047"/>
       <use xlink:href="#DejaVuSans-35" x="95.410156"/>
      </g>
     </g>
    </g>
    <g id="ytick_4">
     <g id="line2d_9">
      <g>
       <use xlink:href="#m88cc469298" x="57.6" y="164.452743" style="stroke: #000000; stroke-width: 0.8"/>
      </g>
     </g>
     <g id="text_10">
      <!-- 0.6 -->
      <g transform="translate(34.696875 168.251961)scale(0.1 -0.1)">
       <defs>
        <path id="DejaVuSans-36" d="M 2113 2584 
Q 1688 2584 1439 2293 
Q 1191 2003 1191 1497 
Q 1191 994 1439 701 
Q 1688 409 2113 409 
Q 2538 409 2786 701 
Q 3034 994 3034 1497 
Q 3034 2003 2786 2293 
Q 2538 2584 2113 2584 
z
M 3366 4563 
L 3366 3988 
Q 3128 4100 2886 4159 
Q 2644 4219 2406 4219 
Q 1781 4219 1451 3797 
Q 1122 3375 1075 2522 
Q 1259 2794 1537 2939 
Q 1816 3084 2150 3084 
Q 2853 3084 3261 2657 
Q 3669 2231 3669 1497 
Q 3669 778 3244 343 
Q 2819 -91 2113 -91 
Q 1303 -91 875 529 
Q 447 1150 447 2328 
Q 447 3434 972 4092 
Q 1497 4750 2381 4750 
Q 2619 4750 2861 4703 
Q 3103 4656 3366 4563 
z
" transform="scale(0.015625)"/>
       </defs>
       <use xlink:href="#DejaVuSans-30"/>
       <use xlink:href="#DejaVuSans-2e" x="63.623047"/>
       <use xlink:href="#DejaVuSans-36" x="95.410156"/>
      </g>
     </g>
    </g>
    <g id="ytick_5">
     <g id="line2d_10">
      <g>
       <use xlink:href="#m88cc469298" x="57.6" y="124.374548" style="stroke: #000000; stroke-width: 0.8"/>
      </g>
     </g>
     <g id="text_11">
      <!-- 0.7 -->
      <g transform="translate(34.696875 128.173766)scale(0.1 -0.1)">
       <defs>
        <path id="DejaVuSans-37" d="M 525 4666 
L 3525 4666 
L 3525 4397 
L 1831 0 
L 1172 0 
L 2766 4134 
L 525 4134 
L 525 4666 
z
" transform="scale(0.015625)"/>
       </defs>
       <use xlink:href="#DejaVuSans-30"/>
       <use xlink:href="#DejaVuSans-2e" x="63.623047"/>
       <use xlink:href="#DejaVuSans-37" x="95.410156"/>
      </g>
     </g>
    </g>
    <g id="ytick_6">
     <g id="line2d_11">
      <g>
       <use xlink:href="#m88cc469298" x="57.6" y="84.296353" style="stroke: #000000; stroke-width: 0.8"/>
      </g>
     </g>
     <g id="text_12">
      <!-- 0.8 -->
      <g transform="translate(34.696875 88.095572)scale(0.1 -0.1)">
       <defs>
        <path id="DejaVuSans-38" d="M 2034 2216 
Q 1584 2216 1326 1975 
Q 1069 1734 1069 1313 
Q 1069 891 1326 650 
Q 1584 409 2034 409 
Q 2484 409 2743 651 
Q 3003 894 3003 1313 
Q 3003 1734 2745 1975 
Q 2488 2216 2034 2216 
z
M 1403 2484 
Q 997 2584 770 2862 
Q 544 3141 544 3541 
Q 544 4100 942 4425 
Q 1341 4750 2034 4750 
Q 2731 4750 3128 4425 
Q 3525 4100 3525 3541 
Q 3525 3141 3298 2862 
Q 3072 2584 2669 2484 
Q 3125 2378 3379 2068 
Q 3634 1759 3634 1313 
Q 3634 634 3220 271 
Q 2806 -91 2034 -91 
Q 1263 -91 848 271 
Q 434 634 434 1313 
Q 434 1759 690 2068 
Q 947 2378 1403 2484 
z
M 1172 3481 
Q 1172 3119 1398 2916 
Q 1625 2713 2034 2713 
Q 2441 2713 2670 2916 
Q 2900 3119 2900 3481 
Q 2900 3844 2670 4047 
Q 2441 4250 2034 4250 
Q 1625 4250 1398 4047 
Q 1172 3844 1172 3481 
z
" transform="scale(0.015625)"/>
       </defs>
       <use xlink:href="#DejaVuSans-30"/>
       <use xlink:href="#DejaVuSans-2e" x="63.623047"/>
       <use xlink:href="#DejaVuSans-38" x="95.410156"/>
      </g>
     </g>
    </g>
    <g id="ytick_7">
     <g id="line2d_12">
      <g>
       <use xlink:href="#m88cc469298" x="57.6" y="44.218158" style="stroke: #000000; stroke-width: 0.8"/>
      </g>
     </g>
     <g id="text_13">
      <!-- 0.9 -->
      <g transform="translate(34.696875 48.017377)scale(0.1 -0.1)">
       <defs>
        <path id="DejaVuSans-39" d="M 703 97 
L 703 672 
Q 941 559 1184 500 
Q 1428 441 1663 441 
Q 2288 441 2617 861 
Q 2947 1281 2994 2138 
Q 2813 1869 2534 1725 
Q 2256 1581 1919 1581 
Q 1219 1581 811 2004 
Q 403 2428 403 3163 
Q 403 3881 828 4315 
Q 1253 4750 1959 4750 
Q 2769 4750 3195 4129 
Q 3622 3509 3622 2328 
Q 3622 1225 3098 567 
Q 2575 -91 1691 -91 
Q 1453 -91 1209 -44 
Q 966 3 703 97 
z
M 1959 2075 
Q 2384 2075 2632 2365 
Q 2881 2656 2881 3163 
Q 2881 3666 2632 3958 
Q 2384 4250 1959 4250 
Q 1534 4250 1286 3958 
Q 1038 3666 1038 3163 
Q 1038 2656 1286 2365 
Q 1534 2075 1959 2075 
z
" transform="scale(0.015625)"/>
       </defs>
       <use xlink:href="#DejaVuSans-30"/>
       <use xlink:href="#DejaVuSans-2e" x="63.623047"/>
       <use xlink:href="#DejaVuSans-39" x="95.410156"/>
      </g>
     </g>
    </g>
    <g id="text_14">
     <!-- Joint Position (degrees) -->
     <g transform="translate(28.617187 232.249875)rotate(-90)scale(0.1 -0.1)">
      <defs>
       <path id="DejaVuSans-4a" d="M 628 4666 
L 1259 4666 
L 1259 325 
Q 1259 -519 939 -900 
Q 619 -1281 -91 -1281 
L -331 -1281 
L -331 -750 
L -134 -750 
Q 284 -750 456 -515 
Q 628 -281 628 325 
L 628 4666 
z
" transform="scale(0.015625)"/>
       <path id="DejaVuSans-6f" d="M 1959 3097 
Q 1497 3097 1228 2736 
Q 959 2375 959 1747 
Q 959 1119 1226 758 
Q 1494 397 1959 397 
Q 2419 397 2687 759 
Q 2956 1122 2956 1747 
Q 2956 2369 2687 2733 
Q 2419 3097 1959 3097 
z
M 1959 3584 
Q 2709 3584 3137 3096 
Q 3566 2609 3566 1747 
Q 3566 888 3137 398 
Q 2709 -91 1959 -91 
Q 1206 -91 779 398 
Q 353 888 353 1747 
Q 353 2609 779 3096 
Q 1206 3584 1959 3584 
z
" transform="scale(0.015625)"/>
       <path id="DejaVuSans-6e" d="M 3513 2113 
L 3513 0 
L 2938 0 
L 2938 2094 
Q 2938 2591 2744 2837 
Q 2550 3084 2163 3084 
Q 1697 3084 1428 2787 
Q 1159 2491 1159 1978 
L 1159 0 
L 581 0 
L 581 3500 
L 1159 3500 
L 1159 2956 
Q 1366 3272 1645 3428 
Q 1925 3584 2291 3584 
Q 2894 3584 3203 3211 
Q 3513 2838 3513 2113 
z
" transform="scale(0.015625)"/>
       <path id="DejaVuSans-74" d="M 1172 4494 
L 1172 3500 
L 2356 3500 
L 2356 3053 
L 1172 3053 
L 1172 1153 
Q 1172 725 1289 603 
Q 1406 481 1766 481 
L 2356 481 
L 2356 0 
L 1766 0 
Q 1100 0 847 248 
Q 594 497 594 1153 
L 594 3053 
L 172 3053 
L 172 3500 
L 594 3500 
L 594 4494 
L 1172 4494 
z
" transform="scale(0.015625)"/>
       <path id="DejaVuSans-50" d="M 1259 4147 
L 1259 2394 
L 2053 2394 
Q 2494 2394 2734 2622 
Q 2975 2850 2975 3272 
Q 2975 3691 2734 3919 
Q 2494 4147 2053 4147 
L 1259 4147 
z
M 628 4666 
L 2053 4666 
Q 2838 4666 3239 4311 
Q 3641 3956 3641 3272 
Q 3641 2581 3239 2228 
Q 2838 1875 2053 1875 
L 1259 1875 
L 1259 0 
L 628 0 
L 628 4666 
z
" transform="scale(0.015625)"/>
       <path id="DejaVuSans-64" d="M 2906 2969 
L 2906 4863 
L 3481 4863 
L 3481 0 
L 2906 0 
L 2906 525 
Q 2725 213 2448 61 
Q 2172 -91 1784 -91 
Q 1150 -91 751 415 
Q 353 922 353 1747 
Q 353 2572 751 3078 
Q 1150 3584 1784 3584 
Q 2172 3584 2448 3432 
Q 2725 3281 2906 2969 
z
M 947 1747 
Q 947 1113 1208 752 
Q 1469 391 1925 391 
Q 2381 391 2643 752 
Q 2906 1113 2906 1747 
Q 2906 2381 2643 2742 
Q 2381 3103 1925 3103 
Q 1469 3103 1208 2742 
Q 947 2381 947 1747 
z
" transform="scale(0.015625)"/>
       <path id="DejaVuSans-67" d="M 2906 1791 
Q 2906 2416 2648 2759 
Q 2391 3103 1925 3103 
Q 1463 3103 1205 2759 
Q 947 2416 947 1791 
Q 947 1169 1205 825 
Q 1463 481 1925 481 
Q 2391 481 2648 825 
Q 2906 1169 2906 1791 
z
M 3481 434 
Q 3481 -459 3084 -895 
Q 2688 -1331 1869 -1331 
Q 1566 -1331 1297 -1286 
Q 1028 -1241 775 -1147 
L 775 -588 
Q 1028 -725 1275 -790 
Q 1522 -856 1778 -856 
Q 2344 -856 2625 -561 
Q 2906 -266 2906 331 
L 2906 616 
Q 2728 306 2450 153 
Q 2172 0 1784 0 
Q 1141 0 747 490 
Q 353 981 353 1791 
Q 353 2603 747 3093 
Q 1141 3584 1784 3584 
Q 2172 3584 2450 3431 
Q 2728 3278 2906 2969 
L 2906 3500 
L 3481 3500 
L 3481 434 
z
" transform="scale(0.015625)"/>
       <path id="DejaVuSans-72" d="M 2631 2963 
Q 2534 3019 2420 3045 
Q 2306 3072 2169 3072 
Q 1681 3072 1420 2755 
Q 1159 2438 1159 1844 
L 1159 0 
L 581 0 
L 581 3500 
L 1159 3500 
L 1159 2956 
Q 1341 3275 1631 3429 
Q 1922 3584 2338 3584 
Q 2397 3584 2469 3576 
Q 2541 3569 2628 3553 
L 2631 2963 
z
" transform="scale(0.015625)"/>
      </defs>
      <use xlink:href="#DejaVuSans-4a"/>
      <use xlink:href="#DejaVuSans-6f" x="29.492188"/>
      <use xlink:href="#DejaVuSans-69" x="90.673828"/>
      <use xlink:href="#DejaVuSans-6e" x="118.457031"/>
      <use xlink:href="#DejaVuSans-74" x="181.835938"/>
      <use xlink:href="#DejaVuSans-20" x="221.044922"/>
      <use xlink:href="#DejaVuSans-50" x="252.832031"/>
      <use xlink:href="#DejaVuSans-6f" x="309.509766"/>
      <use xlink:href="#DejaVuSans-73" x="370.691406"/>
      <use xlink:href="#DejaVuSans-69" x="422.791016"/>
      <use xlink:href="#DejaVuSans-74" x="450.574219"/>
      <use xlink:href="#DejaVuSans-69" x="489.783203"/>
      <use xlink:href="#DejaVuSans-6f" x="517.566406"/>
      <use xlink:href="#DejaVuSans-6e" x="578.748047"/>
      <use xlink:href="#DejaVuSans-20" x="642.126953"/>
      <use xlink:href="#DejaVuSans-28" x="673.914062"/>
      <use xlink:href="#DejaVuSans-64" x="712.927734"/>
      <use xlink:href="#DejaVuSans-65" x="776.404297"/>
      <use xlink:href="#DejaVuSans-67" x="837.927734"/>
      <use xlink:href="#DejaVuSans-72" x="901.404297"/>
      <use xlink:href="#DejaVuSans-65" x="940.267578"/>
      <use xlink:href="#DejaVuSans-65" x="1001.791016"/>
      <use xlink:href="#DejaVuSans-73" x="1063.314453"/>
      <use xlink:href="#DejaVuSans-29" x="1115.414062"/>
     </g>
    </g>
   </g>
   <g id="line2d_13">
    <path d="M 73.832727 245.233951 
L 107.501149 245.251987 
L 124.95885 247.461097 
L 128.259675 248.142426 
L 141.022868 251.616404 
L 143.29677 252.874459 
L 148.06463 255.911584 
L 151.292104 258.39523 
L 154.519578 261.286471 
L 157.23359 263.907184 
L 160.314361 266.953528 
L 166.549254 273.144807 
L 173.517663 280.281131 
L 189.361627 282.02333 
L 193.469321 283.044923 
L 206.305865 283.052938 
L 247.236104 283.14111 
L 249.583358 283.383584 
L 250.09682 283.497406 
L 251.490502 284.049683 
L 253.837755 285.199927 
L 258.458911 287.510035 
L 259.339132 287.603417 
L 264.400398 287.730865 
L 266.087486 288.120826 
L 267.627872 288.613788 
L 270.488587 288.817786 
L 272.395731 288.823798 
L 277.383645 289.566847 
L 278.190514 289.810924 
L 280.244361 291.034912 
L 282.518263 291.798401 
L 283.765242 292.024042 
L 286.552606 292.269721 
L 286.699309 292.335449 
L 289.633376 292.891735 
L 294.988049 292.741842 
L 342.960049 292.640444 
L 344.353731 292.471715 
L 346.260875 291.871344 
L 348.168019 291.692996 
L 348.461425 291.608832 
L 350.661976 291.509838 
L 351.615548 291.659731 
L 354.476263 291.713836 
L 354.622967 291.767541 
L 356.456759 293.011168 
L 359.830936 295.488 
L 378.975725 295.063171 
L 379.63589 294.585038 
L 381.836441 292.409995 
L 383.52353 290.938724 
L 398.487273 290.923895 
L 398.487273 290.923895 
" clip-path="url(#pcf3db37895)" style="fill: none; stroke: #ffa500; stroke-width: 1.5; stroke-linecap: square"/>
   </g>
   <g id="line2d_14">
    <path d="M 73.832727 244.476073 
L 107.501149 244.476073 
L 124.95885 246.302035 
L 128.259675 246.855916 
L 143.003364 250.529083 
L 145.423969 251.774312 
L 149.605015 254.32569 
L 154.152819 257.637752 
L 161.414636 264.342433 
L 165.815737 268.680497 
L 166.549254 269.399901 
L 176.231676 279.221062 
L 180.045963 279.861512 
L 189.361627 280.76768 
L 193.469321 281.501512 
L 195.009706 281.979244 
L 196.330037 282.217709 
L 199.850917 282.256184 
L 227.797908 282.258188 
L 250.09682 282.301472 
L 252.810832 282.541941 
L 253.837755 282.786018 
L 258.899021 285.17548 
L 261.172924 286.382234 
L 262.566606 286.803055 
L 267.627872 286.896437 
L 269.608367 287.325274 
L 271.295456 287.872341 
L 272.395731 287.976144 
L 277.383645 288.162908 
L 279.437493 288.566095 
L 280.684471 288.681119 
L 282.078153 289.136007 
L 282.664967 289.438196 
L 283.325132 289.841383 
L 283.765242 290.178842 
L 285.158924 290.766789 
L 286.699309 291.133905 
L 289.633376 291.313054 
L 291.173762 291.72586 
L 294.988049 291.976349 
L 346.260875 291.810024 
L 348.168019 291.338304 
L 348.461425 291.324677 
L 352.56912 290.542351 
L 353.962802 290.638138 
L 357.043572 290.875 
L 358.290551 290.932312 
L 359.390826 291.55152 
L 359.830936 291.881363 
L 378.462263 292.863279 
L 379.63589 291.676163 
L 381.029572 290.94193 
L 383.376826 290.879008 
L 383.52353 290.711481 
L 384.770508 290.139565 
L 398.487273 290.123934 
L 398.487273 290.123934 
" clip-path="url(#pcf3db37895)" style="fill: none; stroke: #008000; stroke-width: 1.5; stroke-linecap: square"/>
   </g>
   <g id="line2d_15">
    <path d="M 73.832727 244.855012 
L 107.501149 244.86403 
L 124.95885 246.881566 
L 128.259675 247.499171 
L 141.022868 250.821453 
L 143.29677 251.775514 
L 145.423969 252.958022 
L 149.82507 255.85327 
L 151.292104 256.930372 
L 154.519578 259.627835 
L 159.43414 264.237829 
L 159.947602 264.77127 
L 166.549254 271.272354 
L 173.517663 278.355774 
L 176.231676 279.898584 
L 180.045963 280.420603 
L 189.361627 281.395505 
L 195.009706 282.515289 
L 197.35696 282.650353 
L 215.108067 282.655563 
L 248.409731 282.749947 
L 250.09682 282.899439 
L 252.150667 283.411238 
L 253.837755 283.992973 
L 258.899021 286.380831 
L 261.172924 286.995831 
L 262.860012 287.211452 
L 264.693804 287.302429 
L 267.627872 287.755113 
L 272.395731 288.399971 
L 277.383645 288.864878 
L 279.290789 289.474267 
L 280.244361 289.816935 
L 282.37156 290.533534 
L 285.158924 291.427077 
L 286.699309 291.734677 
L 291.173762 292.242468 
L 294.988049 292.359095 
L 343.913621 292.250684 
L 347.36115 291.652717 
L 350.661976 291.179794 
L 353.816098 291.143123 
L 354.622967 291.265562 
L 358.950716 293.026998 
L 359.830936 293.684682 
L 378.462263 294.004305 
L 378.975725 293.710933 
L 381.176276 292.016427 
L 383.52353 290.825102 
L 384.770508 290.539144 
L 398.487273 290.523915 
L 398.487273 290.523915 
" clip-path="url(#pcf3db37895)" style="fill: none; stroke: #ffff00; stroke-width: 1.5; stroke-linecap: square"/>
   </g>
   <g id="line2d_16">
    <path d="M 73.832727 195.31696 
L 107.501149 195.31696 
L 128.259675 109.600122 
L 137.355284 68.705935 
L 139.335779 61.005311 
L 141.022868 60.020589 
L 144.837156 77.261828 
L 145.423969 79.614819 
L 147.551168 89.589881 
L 148.06463 91.438688 
L 155.91326 126.70269 
L 156.866832 130.173862 
L 160.314361 143.102687 
L 162.881669 151.052999 
L 166.549254 161.83724 
L 173.517663 178.412779 
L 175.864917 180.81667 
L 176.231676 179.938156 
L 180.045963 178.3206 
L 189.361627 149.999343 
L 194.349541 131.181829 
L 196.330037 123.009484 
L 197.650367 126.859797 
L 198.017125 127.747128 
L 198.823994 130.146209 
L 203.151743 140.893177 
L 204.105315 142.834564 
L 204.252018 142.871436 
L 204.472073 142.80691 
L 204.838832 142.011759 
L 205.572349 138.484878 
L 207.406141 142.538787 
L 207.772899 142.483479 
L 207.992954 142.187702 
L 209.900098 133.890314 
L 211.367131 127.529904 
L 211.73389 127.285026 
L 213.127572 128.569933 
L 213.274275 128.569933 
L 214.447902 129.189542 
L 215.108067 129.272504 
L 222.443235 131.676394 
L 225.964116 131.676394 
L 227.797908 132.281976 
L 246.722642 131.55135 
L 247.236104 131.385026 
L 247.896269 129.859649 
L 249.583358 125.519181 
L 250.09682 123.97096 
L 253.837755 113.991089 
L 256.478416 109.821754 
L 258.458911 105.22719 
L 259.779242 105.393515 
L 264.693804 114.855576 
L 266.087486 116.075957 
L 269.608367 116.071147 
L 270.048477 115.858733 
L 270.488587 115.44713 
L 272.395731 115.44713 
L 274.302875 113.492115 
L 274.52293 112.835635 
L 274.742985 112.743054 
L 275.109743 114.291675 
L 275.549853 115.118889 
L 277.383645 114.989437 
L 289.633376 114.989437 
L 290.440245 115.109671 
L 291.027058 115.932477 
L 291.687223 115.960131 
L 341.859774 115.955722 
L 342.666643 114.989437 
L 345.747413 114.980219 
L 346.260875 114.393474 
L 347.36115 110.815694 
L 347.947964 110.418118 
L 398.487273 110.418118 
L 398.487273 110.418118 
" clip-path="url(#pcf3db37895)" style="fill: none; stroke: #ffa500; stroke-width: 1.5; stroke-linecap: square"/>
   </g>
   <g id="line2d_17">
    <path d="M 73.832727 193.846892 
L 106.107467 193.846892 
L 106.840984 191.679063 
L 107.501149 188.776199 
L 137.355284 61.185262 
L 139.335779 55.634031 
L 141.022868 55.953053 
L 141.903088 53.568 
L 142.709957 54.228889 
L 143.29677 56.771049 
L 148.06463 78.274203 
L 154.519578 107.228695 
L 156.500073 115.747716 
L 158.333865 124.081977 
L 160.314361 132.027479 
L 163.615186 144.258142 
L 166.549254 153.479734 
L 173.517663 172.071207 
L 176.231676 178.306572 
L 180.045963 170.046456 
L 188.701462 141.586529 
L 189.361627 138.512532 
L 194.129486 117.994099 
L 194.349541 117.957227 
L 195.009706 118.877022 
L 195.669871 121.086533 
L 196.330037 122.237578 
L 197.35696 117.841401 
L 197.503663 117.481098 
L 197.870422 117.467071 
L 198.163829 117.878674 
L 203.151743 132.425055 
L 205.20559 137.546647 
L 205.572349 138.175474 
L 206.672624 133.599346 
L 207.992954 128.204821 
L 208.799823 124.456307 
L 209.900098 124.081977 
L 210.85367 125.071107 
L 211.367131 126.508311 
L 212.980868 123.286825 
L 213.274275 123.291234 
L 214.154495 123.961742 
L 214.447902 124.825828 
L 214.961364 126.268242 
L 215.108067 126.670227 
L 222.443235 131.195456 
L 227.797908 131.121712 
L 246.575939 125.269895 
L 247.236104 123.337725 
L 250.09682 115.604236 
L 251.490502 113.958626 
L 253.837755 108.758881 
L 256.258361 105.250435 
L 258.458911 105.199536 
L 258.899021 104.561491 
L 259.339132 104.219624 
L 261.172924 104.182752 
L 262.566606 104.335049 
L 262.860012 104.404385 
L 264.400398 106.821901 
L 264.693804 107.053153 
L 267.627872 113.057267 
L 269.094905 115.415067 
L 270.048477 115.44713 
L 270.488587 114.864794 
L 272.395731 109.359653 
L 274.302875 110.92671 
L 274.52293 111.804823 
L 274.742985 112.193181 
L 275.549853 109.808128 
L 276.72348 107.117679 
L 276.943535 107.131706 
L 277.383645 107.737287 
L 278.630624 112.840043 
L 279.290789 114.286866 
L 292.274037 114.199095 
L 294.988049 114.985028 
L 341.859774 114.989437 
L 342.666643 114.656788 
L 342.960049 113.519769 
L 343.913621 110.806476 
L 344.353731 110.418118 
L 347.36115 110.418118 
L 347.947964 109.581285 
L 348.461425 109.562849 
L 398.487273 109.502732 
L 398.487273 109.502732 
" clip-path="url(#pcf3db37895)" style="fill: none; stroke: #008000; stroke-width: 1.5; stroke-linecap: square"/>
   </g>
   <g id="line2d_18">
    <path d="M 73.832727 194.581926 
L 106.107467 194.581926 
L 106.840984 193.498012 
L 107.501149 192.04658 
L 128.259675 104.788133 
L 137.355284 64.945598 
L 139.335779 58.319671 
L 141.022868 57.986821 
L 141.903088 58.830467 
L 142.709957 61.099895 
L 143.29677 63.600574 
L 153.052544 107.219477 
L 155.546501 118.340775 
L 156.500073 122.256014 
L 159.214085 133.515983 
L 159.800899 135.521897 
L 160.314361 137.565083 
L 163.615186 148.794993 
L 165.815737 155.483643 
L 166.549254 157.658487 
L 173.517663 175.241993 
L 175.864917 179.182682 
L 176.231676 179.122364 
L 180.045963 174.183528 
L 188.701462 146.816734 
L 189.361627 144.255937 
L 194.349541 124.569528 
L 195.009706 123.681996 
L 195.669871 123.293639 
L 196.990202 122.068849 
L 197.503663 121.941601 
L 198.163829 123.05337 
L 200.364379 129.429811 
L 203.151743 136.659116 
L 204.252018 139.092664 
L 204.472073 139.298465 
L 204.838832 139.328524 
L 206.672624 137.294756 
L 207.259437 136.853294 
L 207.992954 135.196261 
L 208.799823 131.500651 
L 209.900098 128.986145 
L 210.85367 127.488423 
L 211.367131 127.019107 
L 211.73389 126.524743 
L 213.127572 125.930584 
L 213.274275 125.930584 
L 214.301199 126.74878 
L 215.108067 127.971365 
L 222.443235 131.435925 
L 225.964116 131.399053 
L 227.797908 131.701844 
L 246.575939 128.413027 
L 247.236104 127.361375 
L 248.263028 124.754489 
L 248.923193 123.076415 
L 250.09682 119.787598 
L 251.490502 117.11819 
L 253.837755 111.374985 
L 256.478416 107.53369 
L 258.458911 105.213363 
L 259.339132 104.744248 
L 259.779242 104.799556 
L 262.860012 107.746305 
L 264.693804 110.954364 
L 266.380893 113.226197 
L 267.627872 114.566612 
L 269.094905 115.745512 
L 269.608367 115.759139 
L 270.048477 115.652931 
L 270.708642 114.830126 
L 272.395731 112.403391 
L 274.302875 112.209413 
L 275.109743 112.650674 
L 275.549853 112.463509 
L 276.72348 111.053558 
L 276.943535 111.060571 
L 277.383645 111.363362 
L 278.630624 113.91474 
L 279.437493 114.638151 
L 290.440245 114.654383 
L 291.173762 115.079613 
L 292.274037 115.079613 
L 294.988049 115.472579 
L 341.859774 115.472579 
L 342.666643 114.823112 
L 342.960049 114.254603 
L 343.913621 112.897956 
L 344.353731 112.703777 
L 345.747413 112.699168 
L 346.260875 112.405796 
L 347.36115 110.616906 
L 347.947964 109.999702 
L 350.661976 109.990484 
L 398.487273 109.960425 
L 398.487273 109.960425 
" clip-path="url(#pcf3db37895)" style="fill: none; stroke: #ffff00; stroke-width: 1.5; stroke-linecap: square"/>
   </g>
   <g id="patch_3">
    <path d="M 57.6 307.584 
L 57.6 41.472 
" style="fill: none; stroke: #000000; stroke-width: 0.8; stroke-linejoin: miter; stroke-linecap: square"/>
   </g>
   <g id="patch_4">
    <path d="M 414.72 307.584 
L 414.72 41.472 
" style="fill: none; stroke: #000000; stroke-width: 0.8; stroke-linejoin: miter; stroke-linecap: square"/>
   </g>
   <g id="patch_5">
    <path d="M 57.6 307.584 
L 414.72 307.584 
" style="fill: none; stroke: #000000; stroke-width: 0.8; stroke-linejoin: miter; stroke-linecap: square"/>
   </g>
   <g id="patch_6">
    <path d="M 57.6 41.472 
L 414.72 41.472 
" style="fill: none; stroke: #000000; stroke-width: 0.8; stroke-linejoin: miter; stroke-linecap: square"/>
   </g>
   <g id="text_15">
    <!-- Overlay of Right Joint 4 and Left Joint 1 -->
    <g transform="translate(119.255625 35.472)scale(0.12 -0.12)">
     <defs>
      <path id="DejaVuSans-4f" d="M 2522 4238 
Q 1834 4238 1429 3725 
Q 1025 3213 1025 2328 
Q 1025 1447 1429 934 
Q 1834 422 2522 422 
Q 3209 422 3611 934 
Q 4013 1447 4013 2328 
Q 4013 3213 3611 3725 
Q 3209 4238 2522 4238 
z
M 2522 4750 
Q 3503 4750 4090 4092 
Q 4678 3434 4678 2328 
Q 4678 1225 4090 567 
Q 3503 -91 2522 -91 
Q 1538 -91 948 565 
Q 359 1222 359 2328 
Q 359 3434 948 4092 
Q 1538 4750 2522 4750 
z
" transform="scale(0.015625)"/>
      <path id="DejaVuSans-76" d="M 191 3500 
L 800 3500 
L 1894 563 
L 2988 3500 
L 3597 3500 
L 2284 0 
L 1503 0 
L 191 3500 
z
" transform="scale(0.015625)"/>
      <path id="DejaVuSans-6c" d="M 603 4863 
L 1178 4863 
L 1178 0 
L 603 0 
L 603 4863 
z
" transform="scale(0.015625)"/>
      <path id="DejaVuSans-61" d="M 2194 1759 
Q 1497 1759 1228 1600 
Q 959 1441 959 1056 
Q 959 750 1161 570 
Q 1363 391 1709 391 
Q 2188 391 2477 730 
Q 2766 1069 2766 1631 
L 2766 1759 
L 2194 1759 
z
M 3341 1997 
L 3341 0 
L 2766 0 
L 2766 531 
Q 2569 213 2275 61 
Q 1981 -91 1556 -91 
Q 1019 -91 701 211 
Q 384 513 384 1019 
Q 384 1609 779 1909 
Q 1175 2209 1959 2209 
L 2766 2209 
L 2766 2266 
Q 2766 2663 2505 2880 
Q 2244 3097 1772 3097 
Q 1472 3097 1187 3025 
Q 903 2953 641 2809 
L 641 3341 
Q 956 3463 1253 3523 
Q 1550 3584 1831 3584 
Q 2591 3584 2966 3190 
Q 3341 2797 3341 1997 
z
" transform="scale(0.015625)"/>
      <path id="DejaVuSans-79" d="M 2059 -325 
Q 1816 -950 1584 -1140 
Q 1353 -1331 966 -1331 
L 506 -1331 
L 506 -850 
L 844 -850 
Q 1081 -850 1212 -737 
Q 1344 -625 1503 -206 
L 1606 56 
L 191 3500 
L 800 3500 
L 1894 763 
L 2988 3500 
L 3597 3500 
L 2059 -325 
z
" transform="scale(0.015625)"/>
      <path id="DejaVuSans-66" d="M 2375 4863 
L 2375 4384 
L 1825 4384 
Q 1516 4384 1395 4259 
Q 1275 4134 1275 3809 
L 1275 3500 
L 2222 3500 
L 2222 3053 
L 1275 3053 
L 1275 0 
L 697 0 
L 697 3053 
L 147 3053 
L 147 3500 
L 697 3500 
L 697 3744 
Q 697 4328 969 4595 
Q 1241 4863 1831 4863 
L 2375 4863 
z
" transform="scale(0.015625)"/>
      <path id="DejaVuSans-52" d="M 2841 2188 
Q 3044 2119 3236 1894 
Q 3428 1669 3622 1275 
L 4263 0 
L 3584 0 
L 2988 1197 
Q 2756 1666 2539 1819 
Q 2322 1972 1947 1972 
L 1259 1972 
L 1259 0 
L 628 0 
L 628 4666 
L 2053 4666 
Q 2853 4666 3247 4331 
Q 3641 3997 3641 3322 
Q 3641 2881 3436 2590 
Q 3231 2300 2841 2188 
z
M 1259 4147 
L 1259 2491 
L 2053 2491 
Q 2509 2491 2742 2702 
Q 2975 2913 2975 3322 
Q 2975 3731 2742 3939 
Q 2509 4147 2053 4147 
L 1259 4147 
z
" transform="scale(0.015625)"/>
      <path id="DejaVuSans-68" d="M 3513 2113 
L 3513 0 
L 2938 0 
L 2938 2094 
Q 2938 2591 2744 2837 
Q 2550 3084 2163 3084 
Q 1697 3084 1428 2787 
Q 1159 2491 1159 1978 
L 1159 0 
L 581 0 
L 581 4863 
L 1159 4863 
L 1159 2956 
Q 1366 3272 1645 3428 
Q 1925 3584 2291 3584 
Q 2894 3584 3203 3211 
Q 3513 2838 3513 2113 
z
" transform="scale(0.015625)"/>
      <path id="DejaVuSans-4c" d="M 628 4666 
L 1259 4666 
L 1259 531 
L 3531 531 
L 3531 0 
L 628 0 
L 628 4666 
z
" transform="scale(0.015625)"/>
     </defs>
     <use xlink:href="#DejaVuSans-4f"/>
     <use xlink:href="#DejaVuSans-76" x="78.710938"/>
     <use xlink:href="#DejaVuSans-65" x="137.890625"/>
     <use xlink:href="#DejaVuSans-72" x="199.414062"/>
     <use xlink:href="#DejaVuSans-6c" x="240.527344"/>
     <use xlink:href="#DejaVuSans-61" x="268.310547"/>
     <use xlink:href="#DejaVuSans-79" x="329.589844"/>
     <use xlink:href="#DejaVuSans-20" x="388.769531"/>
     <use xlink:href="#DejaVuSans-6f" x="420.556641"/>
     <use xlink:href="#DejaVuSans-66" x="481.738281"/>
     <use xlink:href="#DejaVuSans-20" x="516.943359"/>
     <use xlink:href="#DejaVuSans-52" x="548.730469"/>
     <use xlink:href="#DejaVuSans-69" x="618.212891"/>
     <use xlink:href="#DejaVuSans-67" x="645.996094"/>
     <use xlink:href="#DejaVuSans-68" x="709.472656"/>
     <use xlink:href="#DejaVuSans-74" x="772.851562"/>
     <use xlink:href="#DejaVuSans-20" x="812.060547"/>
     <use xlink:href="#DejaVuSans-4a" x="843.847656"/>
     <use xlink:href="#DejaVuSans-6f" x="873.339844"/>
     <use xlink:href="#DejaVuSans-69" x="934.521484"/>
     <use xlink:href="#DejaVuSans-6e" x="962.304688"/>
     <use xlink:href="#DejaVuSans-74" x="1025.683594"/>
     <use xlink:href="#DejaVuSans-20" x="1064.892578"/>
     <use xlink:href="#DejaVuSans-34" x="1096.679688"/>
     <use xlink:href="#DejaVuSans-20" x="1160.302734"/>
     <use xlink:href="#DejaVuSans-61" x="1192.089844"/>
     <use xlink:href="#DejaVuSans-6e" x="1253.369141"/>
     <use xlink:href="#DejaVuSans-64" x="1316.748047"/>
     <use xlink:href="#DejaVuSans-20" x="1380.224609"/>
     <use xlink:href="#DejaVuSans-4c" x="1412.011719"/>
     <use xlink:href="#DejaVuSans-65" x="1465.974609"/>
     <use xlink:href="#DejaVuSans-66" x="1527.498047"/>
     <use xlink:href="#DejaVuSans-74" x="1560.953125"/>
     <use xlink:href="#DejaVuSans-20" x="1600.162109"/>
     <use xlink:href="#DejaVuSans-4a" x="1631.949219"/>
     <use xlink:href="#DejaVuSans-6f" x="1661.441406"/>
     <use xlink:href="#DejaVuSans-69" x="1722.623047"/>
     <use xlink:href="#DejaVuSans-6e" x="1750.40625"/>
     <use xlink:href="#DejaVuSans-74" x="1813.785156"/>
     <use xlink:href="#DejaVuSans-20" x="1852.994141"/>
     <use xlink:href="#DejaVuSans-31" x="1884.78125"/>
    </g>
   </g>
   <g id="legend_1">
    <g id="patch_7">
     <path d="M 226.062188 78.82825 
L 407.72 78.82825 
Q 409.72 78.82825 409.72 76.82825 
L 409.72 48.472 
Q 409.72 46.472 407.72 46.472 
L 226.062188 46.472 
Q 224.062188 46.472 224.062188 48.472 
L 224.062188 76.82825 
Q 224.062188 78.82825 226.062188 78.82825 
z
" style="fill: #ffffff; opacity: 0.8; stroke: #cccccc; stroke-linejoin: miter"/>
    </g>
    <g id="patch_8">
     <path d="M 228.062188 58.070438 
L 248.062188 58.070438 
L 248.062188 51.070438 
L 228.062188 51.070438 
z
" style="fill: #ff0000; fill-opacity: 0.3; stroke: #ff0000; stroke-opacity: 0.3; stroke-linejoin: miter"/>
    </g>
    <g id="text_16">
     <!-- Most consistent - Right Joint 4 -->
     <g transform="translate(256.062188 58.070438)scale(0.1 -0.1)">
      <defs>
       <path id="DejaVuSans-4d" d="M 628 4666 
L 1569 4666 
L 2759 1491 
L 3956 4666 
L 4897 4666 
L 4897 0 
L 4281 0 
L 4281 4097 
L 3078 897 
L 2444 897 
L 1241 4097 
L 1241 0 
L 628 0 
L 628 4666 
z
" transform="scale(0.015625)"/>
       <path id="DejaVuSans-63" d="M 3122 3366 
L 3122 2828 
Q 2878 2963 2633 3030 
Q 2388 3097 2138 3097 
Q 1578 3097 1268 2742 
Q 959 2388 959 1747 
Q 959 1106 1268 751 
Q 1578 397 2138 397 
Q 2388 397 2633 464 
Q 2878 531 3122 666 
L 3122 134 
Q 2881 22 2623 -34 
Q 2366 -91 2075 -91 
Q 1284 -91 818 406 
Q 353 903 353 1747 
Q 353 2603 823 3093 
Q 1294 3584 2113 3584 
Q 2378 3584 2631 3529 
Q 2884 3475 3122 3366 
z
" transform="scale(0.015625)"/>
       <path id="DejaVuSans-2d" d="M 313 2009 
L 1997 2009 
L 1997 1497 
L 313 1497 
L 313 2009 
z
" transform="scale(0.015625)"/>
      </defs>
      <use xlink:href="#DejaVuSans-4d"/>
      <use xlink:href="#DejaVuSans-6f" x="86.279297"/>
      <use xlink:href="#DejaVuSans-73" x="147.460938"/>
      <use xlink:href="#DejaVuSans-74" x="199.560547"/>
      <use xlink:href="#DejaVuSans-20" x="238.769531"/>
      <use xlink:href="#DejaVuSans-63" x="270.556641"/>
      <use xlink:href="#DejaVuSans-6f" x="325.537109"/>
      <use xlink:href="#DejaVuSans-6e" x="386.71875"/>
      <use xlink:href="#DejaVuSans-73" x="450.097656"/>
      <use xlink:href="#DejaVuSans-69" x="502.197266"/>
      <use xlink:href="#DejaVuSans-73" x="529.980469"/>
      <use xlink:href="#DejaVuSans-74" x="582.080078"/>
      <use xlink:href="#DejaVuSans-65" x="621.289062"/>
      <use xlink:href="#DejaVuSans-6e" x="682.8125"/>
      <use xlink:href="#DejaVuSans-74" x="746.191406"/>
      <use xlink:href="#DejaVuSans-20" x="785.400391"/>
      <use xlink:href="#DejaVuSans-2d" x="817.1875"/>
      <use xlink:href="#DejaVuSans-20" x="853.271484"/>
      <use xlink:href="#DejaVuSans-52" x="885.058594"/>
      <use xlink:href="#DejaVuSans-69" x="954.541016"/>
      <use xlink:href="#DejaVuSans-67" x="982.324219"/>
      <use xlink:href="#DejaVuSans-68" x="1045.800781"/>
      <use xlink:href="#DejaVuSans-74" x="1109.179688"/>
      <use xlink:href="#DejaVuSans-20" x="1148.388672"/>
      <use xlink:href="#DejaVuSans-4a" x="1180.175781"/>
      <use xlink:href="#DejaVuSans-6f" x="1209.667969"/>
      <use xlink:href="#DejaVuSans-69" x="1270.849609"/>
      <use xlink:href="#DejaVuSans-6e" x="1298.632812"/>
      <use xlink:href="#DejaVuSans-74" x="1362.011719"/>
      <use xlink:href="#DejaVuSans-20" x="1401.220703"/>
      <use xlink:href="#DejaVuSans-34" x="1433.007812"/>
     </g>
    </g>
    <g id="patch_9">
     <path d="M 228.062188 72.748563 
L 248.062188 72.748563 
L 248.062188 65.748563 
L 228.062188 65.748563 
z
" style="fill: #0000ff; fill-opacity: 0.3; stroke: #0000ff; stroke-opacity: 0.3; stroke-linejoin: miter"/>
    </g>
    <g id="text_17">
     <!-- Least consistent - Left Joint 1 -->
     <g transform="translate(256.062188 72.748563)scale(0.1 -0.1)">
      <use xlink:href="#DejaVuSans-4c"/>
      <use xlink:href="#DejaVuSans-65" x="53.962891"/>
      <use xlink:href="#DejaVuSans-61" x="115.486328"/>
      <use xlink:href="#DejaVuSans-73" x="176.765625"/>
      <use xlink:href="#DejaVuSans-74" x="228.865234"/>
      <use xlink:href="#DejaVuSans-20" x="268.074219"/>
      <use xlink:href="#DejaVuSans-63" x="299.861328"/>
      <use xlink:href="#DejaVuSans-6f" x="354.841797"/>
      <use xlink:href="#DejaVuSans-6e" x="416.023438"/>
      <use xlink:href="#DejaVuSans-73" x="479.402344"/>
      <use xlink:href="#DejaVuSans-69" x="531.501953"/>
      <use xlink:href="#DejaVuSans-73" x="559.285156"/>
      <use xlink:href="#DejaVuSans-74" x="611.384766"/>
      <use xlink:href="#DejaVuSans-65" x="650.59375"/>
      <use xlink:href="#DejaVuSans-6e" x="712.117188"/>
      <use xlink:href="#DejaVuSans-74" x="775.496094"/>
      <use xlink:href="#DejaVuSans-20" x="814.705078"/>
      <use xlink:href="#DejaVuSans-2d" x="846.492188"/>
      <use xlink:href="#DejaVuSans-20" x="882.576172"/>
      <use xlink:href="#DejaVuSans-4c" x="914.363281"/>
      <use xlink:href="#DejaVuSans-65" x="968.326172"/>
      <use xlink:href="#DejaVuSans-66" x="1029.849609"/>
      <use xlink:href="#DejaVuSans-74" x="1063.304688"/>
      <use xlink:href="#DejaVuSans-20" x="1102.513672"/>
      <use xlink:href="#DejaVuSans-4a" x="1134.300781"/>
      <use xlink:href="#DejaVuSans-6f" x="1163.792969"/>
      <use xlink:href="#DejaVuSans-69" x="1224.974609"/>
      <use xlink:href="#DejaVuSans-6e" x="1252.757812"/>
      <use xlink:href="#DejaVuSans-74" x="1316.136719"/>
      <use xlink:href="#DejaVuSans-20" x="1355.345703"/>
      <use xlink:href="#DejaVuSans-31" x="1387.132812"/>
     </g>
    </g>
   </g>
  </g>
 </g>
 <defs>
  <clipPath id="pcf3db37895">
   <rect x="57.6" y="41.472" width="357.12" height="266.112"/>
  </clipPath>
 </defs>
</svg>
